<?xml version="1.0" encoding="UTF-8" standalone="no"?>
<svg
   width="16"
   height="16"
   version="1.1"
   viewBox="0 0 16 16"
   id="svg6"
   sodipodi:docname="DebugNode.svg"
   inkscape:version="1.3 (1:1.3+202307231459+0e150ed6c4)"
   xmlns:inkscape="http://www.inkscape.org/namespaces/inkscape"
   xmlns:sodipodi="http://sodipodi.sourceforge.net/DTD/sodipodi-0.dtd"
   xmlns="http://www.w3.org/2000/svg"
   xmlns:svg="http://www.w3.org/2000/svg"
   xmlns:rdf="http://www.w3.org/1999/02/22-rdf-syntax-ns#"
   xmlns:cc="http://creativecommons.org/ns#"
   xmlns:dc="http://purl.org/dc/elements/1.1/">
  <metadata
     id="metadata12">
    <rdf:RDF>
      <cc:Work
         rdf:about="">
        <dc:format>image/svg+xml</dc:format>
        <dc:type
           rdf:resource="http://purl.org/dc/dcmitype/StillImage" />
        <dc:title />
      </cc:Work>
    </rdf:RDF>
  </metadata>
  <defs
     id="defs10" />
  <sodipodi:namedview
     pagecolor="#ffffff"
     bordercolor="#666666"
     borderopacity="1"
     objecttolerance="10"
     gridtolerance="10"
     guidetolerance="10"
     inkscape:pageopacity="0"
     inkscape:pageshadow="2"
     inkscape:window-width="1224"
     inkscape:window-height="656"
     id="namedview8"
     showgrid="false"
     inkscape:zoom="19.408829"
     inkscape:cx="-5.9251385"
     inkscape:cy="1.803303"
     inkscape:window-x="56"
     inkscape:window-y="27"
     inkscape:window-maximized="1"
     inkscape:current-layer="svg6"
     inkscape:document-rotation="0"
     inkscape:showpageshadow="0"
     inkscape:pagecheckerboard="0"
     inkscape:deskcolor="#d1d1d1" />
  <rect
     style="opacity:1;fill:#e0e0e0;fill-opacity:1;stroke:none;stroke-width:3.77953;stroke-linejoin:miter;stroke-miterlimit:4;stroke-dasharray:none;stroke-opacity:1"
     id="rect836"
     width="3.2598822"
     height="3.2598822"
     x="-4.4858661"
     y="-9.0197716" />
  <rect
     y="-9.0197716"
     x="-1.225984"
     height="3.2598822"
     width="3.2598822"
     id="rect838"
     style="opacity:1;fill:#a5b7f3;fill-opacity:1;stroke:none;stroke-width:3.77953;stroke-linejoin:miter;stroke-miterlimit:4;stroke-dasharray:none;stroke-opacity:1" />
  <rect
     style="opacity:1;fill:#fc9c9c;fill-opacity:1;stroke:none;stroke-width:3.77953;stroke-linejoin:miter;stroke-miterlimit:4;stroke-dasharray:none;stroke-opacity:1"
     id="rect840"
     width="3.2598822"
     height="3.2598822"
     x="2.0338981"
     y="-9.0197716" />
  <rect
     y="-9.0197716"
     x="5.2937808"
     height="3.2598822"
     width="3.2598822"
     id="rect842"
     style="opacity:1;fill:#a5efac;fill-opacity:1;stroke:none;stroke-width:3.77953;stroke-linejoin:miter;stroke-miterlimit:4;stroke-dasharray:none;stroke-opacity:1" />
  <g
     id="g1"
     transform="matrix(0.01414648,0,0,0.01414116,0.75700852,0.75973608)"
     style="fill:#e0e0e0;fill-opacity:1;stroke:none;stroke-width:35.3512;stroke-dasharray:none;stroke-opacity:1">
    <path
       d="m 1022.0654,583.40119 c 0,11.0558 -4.0349,20.61962 -12.1118,28.69658 -8.078,8.07798 -17.63976,12.11799 -28.69045,12.11799 h -142.8167 c 0,72.69055 -14.23522,134.32019 -42.71895,184.89915 l 132.61537,133.26312 c 8.07696,8.0657 12.11799,17.63463 12.11799,28.69043 0,11.05069 -4.03489,20.61451 -12.11799,28.69146 -7.65331,8.06568 -17.20996,12.10678 -28.69043,12.10678 -11.47536,0 -21.0402,-4.0411 -28.69044,-12.10678 L 744.71774,874.15318 c -2.12439,2.11824 -5.30892,4.88424 -9.55871,8.28366 -4.259,3.3984 -13.18018,9.46354 -26.78504,18.17188 -13.59871,8.71549 -27.41539,16.47318 -41.4398,23.27612 -14.02953,6.79782 -31.46258,12.96631 -52.28993,18.49319 -20.82735,5.51767 -41.44697,8.28571 -61.84248,8.28571 V 379.38668 h -81.61174 v 571.27706 c -21.66851,0 -43.25004,-2.87447 -64.70775,-8.61522 -21.47305,-5.73461 -39.9601,-12.74937 -55.4765,-21.03917 -15.51843,-8.28981 -29.54182,-16.57245 -42.07732,-24.86737 -12.54165,-8.29082 -21.78108,-15.19302 -27.73979,-20.71478 l -9.5587,-8.93244 -116.67942,131.98501 c -8.50061,8.92123 -18.6999,13.38693 -30.60607,13.38693 -10.20133,0 -19.33537,-3.4046 -27.409252,-10.2024 -8.079002,-7.65229 -12.437264,-17.10968 -13.080923,-28.37219 -0.633427,-11.26353 2.659573,-21.14356 9.893324,-29.64723 L 222.53482,798.91766 C 197.88439,750.45286 185.55458,692.21855 185.55458,624.20757 H 42.738895 c -11.057847,0 -20.61655,-4.04103 -28.690436,-12.11185 C 5.969457,604.01365 1.92842,594.45494 1.92842,583.39914 c 0,-11.05068 4.041036,-20.61962 12.120039,-28.68941 8.073886,-8.07286 17.632589,-12.10776 28.690436,-12.10776 H 185.55356 l -1e-5,-187.44513 L 75.25138,244.85466 c -8.074909,-8.07798 -12.113899,-17.64078 -12.113899,-28.69146 0,-11.04966 4.044106,-20.61962 12.113899,-28.69043 8.071839,-8.07696 17.638729,-12.12311 28.69146,-12.12311 11.05682,0 20.61246,4.05229 28.69248,12.12311 L 242.9375,297.77494 h 538.12807 l 110.3032,-110.30217 c 8.07082,-8.07696 17.63259,-12.12311 28.69044,-12.12311 11.05068,0 20.61757,4.05229 28.68941,12.12311 8.07798,8.07081 12.11901,17.64077 12.11901,28.69043 0,11.05069 -4.04103,20.61451 -12.11901,28.69146 L 838.44644,355.15684 v 187.4482 h 142.81569 c 11.0558,0 20.61857,4.0349 28.69047,12.1139 8.0769,8.06979 12.118,17.63873 12.118,28.68327 v 0 l -0.01,-10e-4 z M 716.02116,216.15808 H 307.96861 c 0,-56.52641 19.87158,-104.66785 59.61679,-144.414082 39.73396,-39.746236 87.88256,-59.611679 144.41102,-59.611679 56.52948,0 104.67808,19.865443 144.41306,59.611679 39.74726,39.745212 59.61168,87.887672 59.61168,144.414082 z"
       id="path1"
       style="overflow:hidden;fill:#e0e0e0;fill-opacity:1;stroke:none;stroke-width:35.3512;stroke-dasharray:none;stroke-opacity:1" />
  </g>
</svg>
