<?xml version="1.0" encoding="UTF-8" standalone="no"?>
<svg
   width="16"
   height="16"
   version="1.1"
   viewBox="0 0 16 16"
   id="svg6"
   sodipodi:docname="FPSCounter.svg"
   inkscape:version="1.3 (0e150ed6c4, 2023-07-21)"
   xmlns:inkscape="http://www.inkscape.org/namespaces/inkscape"
   xmlns:sodipodi="http://sodipodi.sourceforge.net/DTD/sodipodi-0.dtd"
   xmlns="http://www.w3.org/2000/svg"
   xmlns:svg="http://www.w3.org/2000/svg"
   xmlns:rdf="http://www.w3.org/1999/02/22-rdf-syntax-ns#"
   xmlns:cc="http://creativecommons.org/ns#"
   xmlns:dc="http://purl.org/dc/elements/1.1/">
  <metadata
     id="metadata12">
    <rdf:RDF>
      <cc:Work
         rdf:about="">
        <dc:format>image/svg+xml</dc:format>
        <dc:type
           rdf:resource="http://purl.org/dc/dcmitype/StillImage" />
      </cc:Work>
    </rdf:RDF>
  </metadata>
  <defs
     id="defs10" />
  <sodipodi:namedview
     pagecolor="#ffffff"
     bordercolor="#666666"
     borderopacity="1"
     objecttolerance="10"
     gridtolerance="10"
     guidetolerance="10"
     inkscape:pageopacity="0"
     inkscape:pageshadow="2"
     inkscape:window-width="2490"
     inkscape:window-height="1369"
     id="namedview8"
     showgrid="false"
     inkscape:zoom="41.7193"
     inkscape:cx="6.8313706"
     inkscape:cy="4.4224136"
     inkscape:window-x="0"
     inkscape:window-y="0"
     inkscape:window-maximized="1"
     inkscape:current-layer="svg6"
     inkscape:document-rotation="0"
     inkscape:showpageshadow="0"
     inkscape:pagecheckerboard="0"
     inkscape:deskcolor="#d1d1d1" />
  <rect
     style="opacity:1;fill:#e0e0e0;fill-opacity:1;stroke:none;stroke-width:3.77953;stroke-linejoin:miter;stroke-miterlimit:4;stroke-dasharray:none;stroke-opacity:1"
     id="rect836"
     width="3.2598822"
     height="3.2598822"
     x="-4.4858661"
     y="-9.0197716" />
  <rect
     y="-9.0197716"
     x="-1.225984"
     height="3.2598822"
     width="3.2598822"
     id="rect838"
     style="opacity:1;fill:#a5b7f3;fill-opacity:1;stroke:none;stroke-width:3.77953;stroke-linejoin:miter;stroke-miterlimit:4;stroke-dasharray:none;stroke-opacity:1" />
  <rect
     style="opacity:1;fill:#fc9c9c;fill-opacity:1;stroke:none;stroke-width:3.77953;stroke-linejoin:miter;stroke-miterlimit:4;stroke-dasharray:none;stroke-opacity:1"
     id="rect840"
     width="3.2598822"
     height="3.2598822"
     x="2.0338981"
     y="-9.0197716" />
  <rect
     y="-9.0197716"
     x="5.2937808"
     height="3.2598822"
     width="3.2598822"
     id="rect842"
     style="opacity:1;fill:#a5efac;fill-opacity:1;stroke:none;stroke-width:3.77953;stroke-linejoin:miter;stroke-miterlimit:4;stroke-dasharray:none;stroke-opacity:1" />
  <path
     style="font-size:12.5172px;line-height:1;font-family:'Nova Square';-inkscape-font-specification:'Nova Square';text-align:end;letter-spacing:-1.62277px;text-anchor:end;fill:#81d6d6;stroke:#81d6d6;stroke-width:0.3;stroke-linecap:square;stroke-linejoin:round"
     d="m 3.5561382,11.515131 h 1.894273 q 0.9165837,0 0.9165837,-1.039256 V 8.8986509 q 0,-1.0392559 -0.9165837,-1.0392559 h -1.894273 q -0.9165838,0 -0.9165838,1.0392559 v 1.5772241 q 0,1.039256 0.9165838,1.039256 z m 0,1.100388 q -2.1386954,0 -2.1386954,-2.139644 V 5.5241256 q 0,-2.1396447 2.1386954,-2.1396447 H 5.3282 q 2.1386954,0 2.1386954,2.1396447 V 5.7075238 L 6.3058894,6.2577181 H 6.2447837 V 5.5241256 q 0,-1.039256 -0.9165837,-1.039256 H 3.5561382 q -0.9165838,0 -0.9165838,1.039256 v 1.491638 Q 3.0672934,6.7590062 3.5561382,6.7590062 h 1.894273 q 2.1386954,0 2.1386954,2.1396447 v 1.5772241 q 0,2.139644 -2.1386954,2.139644 z m 6.9934768,-1.100388 h 1.894274 q 0.916583,0 0.916583,-1.039256 V 5.5241256 q 0,-1.039256 -0.916583,-1.039256 h -1.894274 q -0.9165836,0 -0.9165836,1.039256 v 4.9517494 q 0,1.039256 0.9165836,1.039256 z m 0,1.100388 q -2.1386953,0 -2.1386953,-2.139644 V 5.5241256 q 0,-2.1396447 2.1386953,-2.1396447 h 1.894274 q 2.138695,0 2.138695,2.1396447 v 4.9517494 q 0,2.139644 -2.138695,2.139644 z"
     id="text2"
     aria-label="60" />
</svg>
