<?xml version="1.0" encoding="UTF-8" standalone="no"?>
<!-- Created with Inkscape (http://www.inkscape.org/) -->

<svg
   width="211.66669mm"
   height="264.58334mm"
   viewBox="0 0 211.66669 264.58334"
   version="1.1"
   id="svg1"
   inkscape:version="1.4 (86a8ad7, 2024-10-11)"
   sodipodi:docname="blocks.svg"
   inkscape:export-filename="..\godot\assets\tiles\blocks.png"
   inkscape:export-xdpi="96"
   inkscape:export-ydpi="96"
   xmlns:inkscape="http://www.inkscape.org/namespaces/inkscape"
   xmlns:sodipodi="http://sodipodi.sourceforge.net/DTD/sodipodi-0.dtd"
   xmlns:xlink="http://www.w3.org/1999/xlink"
   xmlns="http://www.w3.org/2000/svg"
   xmlns:svg="http://www.w3.org/2000/svg">
  <sodipodi:namedview
     id="namedview1"
     pagecolor="#505050"
     bordercolor="#eeeeee"
     borderopacity="1"
     inkscape:showpageshadow="0"
     inkscape:pageopacity="0"
     inkscape:pagecheckerboard="0"
     inkscape:deskcolor="#505050"
     inkscape:document-units="mm"
     showgrid="true"
     inkscape:zoom="2.2349852"
     inkscape:cx="312.53004"
     inkscape:cy="290.38224"
     inkscape:window-width="3840"
     inkscape:window-height="2036"
     inkscape:window-x="-12"
     inkscape:window-y="-12"
     inkscape:window-maximized="1"
     inkscape:current-layer="layer1">
    <inkscape:grid
       id="grid1"
       units="px"
       originx="0"
       originy="0"
       spacingx="13.229167"
       spacingy="13.229167"
       empcolor="#0099e5"
       empopacity="0.30196078"
       color="#0099e5"
       opacity="0.14901961"
       empspacing="4"
       enabled="true"
       visible="true" />
  </sodipodi:namedview>
  <defs
     id="defs1">
    <linearGradient
       id="swatch18"
       inkscape:swatch="solid">
      <stop
         style="stop-color:#786721;stop-opacity:1;"
         offset="0"
         id="stop18" />
    </linearGradient>
    <linearGradient
       id="swatch17"
       inkscape:swatch="solid">
      <stop
         style="stop-color:#217844;stop-opacity:1;"
         offset="0"
         id="stop17" />
    </linearGradient>
    <linearGradient
       id="swatch16"
       inkscape:swatch="solid">
      <stop
         style="stop-color:#214478;stop-opacity:1;"
         offset="0"
         id="stop16" />
    </linearGradient>
    <linearGradient
       id="swatch15"
       inkscape:swatch="solid">
      <stop
         style="stop-color:#501616;stop-opacity:1;"
         offset="0"
         id="stop15" />
    </linearGradient>
    <linearGradient
       inkscape:collect="always"
       xlink:href="#swatch15"
       id="linearGradient15"
       x1="0"
       y1="26.458332"
       x2="52.916672"
       y2="26.458332"
       gradientUnits="userSpaceOnUse" />
    <linearGradient
       inkscape:collect="always"
       xlink:href="#swatch16"
       id="linearGradient16"
       x1="52.916668"
       y1="26.458332"
       x2="105.83334"
       y2="26.458332"
       gradientUnits="userSpaceOnUse" />
    <linearGradient
       inkscape:collect="always"
       xlink:href="#swatch17"
       id="linearGradient17"
       x1="105.83334"
       y1="26.458332"
       x2="158.75002"
       y2="26.458332"
       gradientUnits="userSpaceOnUse" />
    <linearGradient
       inkscape:collect="always"
       xlink:href="#swatch18"
       id="linearGradient18"
       x1="158.75002"
       y1="26.458332"
       x2="211.66669"
       y2="26.458332"
       gradientUnits="userSpaceOnUse" />
    <linearGradient
       inkscape:collect="always"
       xlink:href="#swatch18"
       id="linearGradient26"
       gradientUnits="userSpaceOnUse"
       x1="158.75002"
       y1="26.458332"
       x2="211.66669"
       y2="26.458332"
       gradientTransform="translate(2.086792e-8,105.83334)" />
    <linearGradient
       inkscape:collect="always"
       xlink:href="#swatch17"
       id="linearGradient27"
       gradientUnits="userSpaceOnUse"
       x1="105.83334"
       y1="26.458332"
       x2="158.75002"
       y2="26.458332"
       gradientTransform="translate(2.086792e-8,105.83334)" />
    <linearGradient
       inkscape:collect="always"
       xlink:href="#swatch16"
       id="linearGradient28"
       gradientUnits="userSpaceOnUse"
       x1="52.916668"
       y1="26.458332"
       x2="105.83334"
       y2="26.458332"
       gradientTransform="translate(2.086792e-8,105.83334)" />
    <linearGradient
       inkscape:collect="always"
       xlink:href="#swatch15"
       id="linearGradient29"
       gradientUnits="userSpaceOnUse"
       x1="0"
       y1="26.458332"
       x2="52.916672"
       y2="26.458332"
       gradientTransform="translate(2.086792e-8,105.83334)" />
  </defs>
  <g
     inkscape:label="Layer 1"
     inkscape:groupmode="layer"
     id="layer1">
    <rect
       style="fill:url(#linearGradient15);stroke:none;stroke-width:1"
       id="rect1"
       width="52.916672"
       height="52.916664"
       x="0"
       y="0" />
    <path
       style="fill:#280b0b;stroke:none;stroke-width:1"
       d="M 0,52.916666 26.458333,26.458333 c 0,0 26.458336,26.458333 26.458336,26.458333 z"
       id="path1" />
    <path
       style="fill:#3d1111;fill-opacity:1;stroke:none;stroke-width:1"
       d="M 26.458333,26.458333 52.916669,0 v 52.916666 z"
       id="path2" />
    <path
       style="fill:#de8787;fill-opacity:1;stroke:none;stroke-width:1"
       d="M 0,0 26.458333,26.458333 52.916669,0 Z"
       id="path3" />
    <rect
       style="fill:url(#linearGradient16);stroke:none;stroke-width:1"
       id="rect3"
       width="52.916672"
       height="52.916664"
       x="52.916668"
       y="0" />
    <path
       style="fill:#0b1728;stroke:none;stroke-width:1"
       d="M 52.916669,52.916666 79.375002,26.458333 c 0,0 26.458338,26.458333 26.458338,26.458333 z"
       id="path4" />
    <path
       style="fill:#162d50;fill-opacity:1;stroke:none;stroke-width:1"
       d="M 79.375002,26.458333 105.83334,0 v 52.916666 z"
       id="path5" />
    <path
       style="fill:#87aade;fill-opacity:1;stroke:none;stroke-width:1"
       d="M 52.916669,0 79.375002,26.458333 105.83334,0 Z"
       id="path6" />
    <rect
       style="fill:url(#linearGradient17);stroke:none;stroke-width:1"
       id="rect6"
       width="52.916672"
       height="52.916664"
       x="105.83334"
       y="0" />
    <path
       style="fill:#0b2817;stroke:none;stroke-width:1"
       d="m 105.83334,52.916666 26.45834,-26.458333 c 0,0 26.45834,26.458333 26.45834,26.458333 z"
       id="path7" />
    <path
       style="fill:#16502d;fill-opacity:1;stroke:none;stroke-width:1"
       d="M 132.29168,26.458333 158.75002,0 v 52.916666 z"
       id="path8" />
    <path
       style="fill:#87deaa;fill-opacity:1;stroke:none;stroke-width:1"
       d="M 105.83334,0 132.29168,26.458333 158.75002,0 Z"
       id="path9" />
    <rect
       style="fill:url(#linearGradient18);stroke:none;stroke-width:1"
       id="rect9"
       width="52.916672"
       height="52.916664"
       x="158.75002"
       y="1.1074131e-07" />
    <path
       style="fill:#28220b;stroke:none;stroke-width:1"
       d="m 158.75,52.916666 26.45834,-26.458333 c 0,0 26.45834,26.458333 26.45834,26.458333 z"
       id="path10" />
    <path
       style="fill:#504416;fill-opacity:1;stroke:none;stroke-width:1"
       d="M 185.20834,26.458333 211.66668,1.1074131e-7 V 52.916666 Z"
       id="path11" />
    <path
       style="fill:#decd87;fill-opacity:1;stroke:none;stroke-width:1"
       d="M 158.75,1.1074131e-7 185.20834,26.458333 211.66668,1.1074131e-7 Z"
       id="path12" />
    <path
       id="path18"
       style="fill:#ffffff;fill-opacity:1;stroke:none;stroke-width:1"
       d="M 13.229167,59.531252 6.6145838,66.145836 V 72.76042 L 19.843751,59.531252 Z m 13.229168,0 L 6.6145838,79.375 v 6.614586 L 33.072918,59.531252 Z m 13.229167,0 -33.0729182,33.07292 v 6.614581 L 46.302085,59.531252 Z m 6.614583,6.614584 -33.072918,33.072917 h 6.614584 L 46.302085,73.456244 Z m 0,13.229164 -19.84375,19.843753 h 6.614583 L 46.302085,85.989586 Z m 0,13.229172 -6.614583,6.614581 h 6.614583 z" />
    <path
       id="path23"
       style="fill:#c83737;fill-opacity:1;stroke:none;stroke-width:1"
       d="m 66.145837,59.531252 -6.614583,6.614584 V 72.76042 L 72.760421,59.531252 Z m 13.229168,0 L 59.531254,79.375 v 6.614586 L 85.989588,59.531252 Z m 13.229167,0 -33.072918,33.07292 v 6.614581 L 99.218755,59.531252 Z m 6.614583,6.614584 -33.072918,33.072917 h 6.614584 L 99.218755,73.456244 Z m 0,13.229164 -19.84375,19.843753 h 6.614583 L 99.218755,85.989586 Z m 0,13.229172 -6.614583,6.614581 h 6.614583 z" />
    <rect
       style="fill:url(#linearGradient29);stroke:none;stroke-width:1"
       id="rect23"
       width="52.916672"
       height="52.916664"
       x="0"
       y="105.83334" />
    <rect
       style="fill:url(#linearGradient28);stroke:none;stroke-width:1"
       id="rect24"
       width="52.916672"
       height="52.916664"
       x="52.916668"
       y="105.83334" />
    <rect
       style="fill:url(#linearGradient27);stroke:none;stroke-width:1"
       id="rect25"
       width="52.916672"
       height="52.916664"
       x="105.83335"
       y="105.83334" />
    <rect
       style="fill:url(#linearGradient26);stroke:none;stroke-width:1"
       id="rect26"
       width="52.916672"
       height="52.916664"
       x="158.75002"
       y="105.83334" />
  </g>
</svg>
