<svg xmlns="http://www.w3.org/2000/svg" width="24" height="24" viewBox="0 0 24 24"><path d="M12 2c5.514 0 10 4.486 10 10s-4.486 10-10 10-10-4.486-10-10 4.486-10 10-10zm0-2c-6.627 0-12 5.373-12 12s5.373 12 12 12 12-5.373 12-12-5.373-12-12-12zm4.303 11.315c-.007.01-.757 1.388-.872 1.604-.124.228-.494.18-.494-.118v-5.325c0-.839-1.348-.814-1.348 0v4.302c0 .235-.453.229-.453 0l-.002-5.122c0-.441-.356-.656-.714-.656-.363 0-.729.222-.729.656v5.064c0 .233-.437.243-.437.005v-4.315c0-.861-1.476-.885-1.476 0v4.571c0 .233-.472.234-.472 0v-2.845c0-.777-1.304-.821-1.304.04l-.002 6.487c.001 1.487.832 2.337 2.407 2.337h2.935c1.497 0 2.021-.846 2.438-1.693.396-.808 2.001-3.971 2.125-4.266.066-.144.095-.278.095-.401 0-.81-1.276-1.127-1.697-.325z"/></svg>