<?xml version="1.0" encoding="UTF-8" standalone="no"?>
<!-- Created with Inkscape (http://www.inkscape.org/) -->
<svg
   xmlns:dc="http://purl.org/dc/elements/1.1/"
   xmlns:cc="http://creativecommons.org/ns#"
   xmlns:rdf="http://www.w3.org/1999/02/22-rdf-syntax-ns#"
   xmlns:svg="http://www.w3.org/2000/svg"
   xmlns="http://www.w3.org/2000/svg"
   xmlns:xlink="http://www.w3.org/1999/xlink"
   xmlns:sodipodi="http://sodipodi.sourceforge.net/DTD/sodipodi-0.dtd"
   xmlns:inkscape="http://www.inkscape.org/namespaces/inkscape"
   width="256"
   height="256"
   id="svg3624"
   sodipodi:version="0.32"
   inkscape:version="0.46"
   version="1.0"
   sodipodi:docname="ps-controller-icon.svg"
   inkscape:output_extension="org.inkscape.output.svg.inkscape">
  <defs
     id="defs3626">
    <filter
       inkscape:collect="always"
       id="filter3600">
      <feGaussianBlur
         inkscape:collect="always"
         stdDeviation="2.1425265"
         id="feGaussianBlur3602" />
    </filter>
    <linearGradient
       id="linearGradient3377">
      <stop
         style="stop-color:#a9b0b5;stop-opacity:1"
         offset="0"
         id="stop3379" />
      <stop
         style="stop-color:#6a747b;stop-opacity:1;"
         offset="1"
         id="stop3381" />
    </linearGradient>
    <linearGradient
       inkscape:collect="always"
       xlink:href="#linearGradient3377"
       id="linearGradient3501"
       gradientUnits="userSpaceOnUse"
       x1="-35.355339"
       y1="39.608253"
       x2="-33.941124"
       y2="125.89859" />
    <inkscape:perspective
       sodipodi:type="inkscape:persp3d"
       inkscape:vp_x="0 : 32 : 1"
       inkscape:vp_y="0 : 1000 : 0"
       inkscape:vp_z="64 : 32 : 1"
       inkscape:persp3d-origin="32 : 21.333333 : 1"
       id="perspective3632" />
    <linearGradient
       inkscape:collect="always"
       xlink:href="#linearGradient3377"
       id="linearGradient3700"
       gradientUnits="userSpaceOnUse"
       x1="-35.355339"
       y1="39.608253"
       x2="-33.941124"
       y2="125.89859" />
  </defs>
  <sodipodi:namedview
     id="base"
     pagecolor="#ffffff"
     bordercolor="#666666"
     borderopacity="1.0"
     inkscape:pageopacity="0.0"
     inkscape:pageshadow="2"
     inkscape:zoom="0.97227183"
     inkscape:cx="-132.23812"
     inkscape:cy="73.690413"
     inkscape:current-layer="layer1"
     showgrid="true"
     inkscape:document-units="px"
     inkscape:grid-bbox="true"
     inkscape:window-width="1400"
     inkscape:window-height="972"
     inkscape:window-x="0"
     inkscape:window-y="27" />
  <metadata
     id="metadata3629">
    <rdf:RDF>
      <cc:Work
         rdf:about="">
        <dc:format>image/svg+xml</dc:format>
        <dc:type
           rdf:resource="http://purl.org/dc/dcmitype/StillImage" />
      </cc:Work>
    </rdf:RDF>
  </metadata>
  <g
     id="layer1"
     inkscape:label="Layer 1"
     inkscape:groupmode="layer">
    <path
       style="opacity:0.2;fill:#000000;fill-opacity:1;fill-rule:nonzero;stroke:#000000;stroke-width:3.19023252;stroke-linecap:butt;stroke-linejoin:round;marker:none;marker-start:none;marker-mid:none;marker-end:none;stroke-miterlimit:4;stroke-dasharray:none;stroke-dashoffset:0;stroke-opacity:1;visibility:visible;display:inline;overflow:visible;filter:url(#filter3600);enable-background:accumulate"
       d="M -170.91799,43.735463 C -183.2171,43.735462 -188.19398,49.486901 -188.19924,61.079213 C -188.19969,62.068862 -188.30965,62.860317 -188.48049,63.516713 C -201.69591,70.576953 -210.69199,84.495676 -210.69924,100.51671 C -210.69992,102.02926 -210.60491,103.54533 -210.44924,105.01671 C -210.62574,109.65394 -212.23536,115.82508 -212.94924,122.98546 C -217.9806,156.74551 -227.95475,213.04796 -194.66799,213.04796 C -174.05251,213.04796 -166.11308,190.82092 -149.91799,155.04796 C -145.27818,160.85857 -138.14754,164.60683 -130.13674,164.61046 C -118.43334,164.61576 -108.57823,156.66729 -105.63674,145.89171 L -91.94924,145.89171 L -76.23049,145.89171 C -73.30589,156.6807 -63.44154,164.63642 -51.73049,164.64171 C -44.45078,164.64499 -37.88828,161.56133 -33.26174,156.64171 C -17.55211,191.46956 -9.53512,213.04796 10.76951,213.04796 C 44.05627,213.04796 34.08213,156.74551 29.05076,122.98546 C 28.29436,115.39859 27.64237,108.7014 27.64451,103.98546 C 27.63698,103.97268 27.6208,103.9669 27.61326,103.95421 C 27.69969,102.85852 27.769,101.75939 27.76951,100.64171 C 27.77697,84.171489 18.27579,69.918858 4.45701,63.047963 C 4.34894,62.488167 4.26986,61.845268 4.26951,61.079213 C 4.26425,49.4869 -0.41827,43.701022 -12.98049,43.735463 C -14.32397,43.73907 -15.7098,43.797436 -17.07424,43.797963 C -33.23593,43.804098 -37.01773,48.518353 -37.01174,61.766713 C -37.0105,64.504599 -37.19591,65.072134 -37.41799,65.704213 C -39.66115,67.201082 -41.75732,68.908688 -43.66799,70.797963 L -91.94924,70.797963 L -139.16799,70.797963 C -141.44684,68.531483 -143.98249,66.527597 -146.73049,64.829213 C -146.82767,64.265301 -146.88749,63.42652 -146.88674,61.766713 C -146.88075,48.518351 -151.45204,43.797963 -166.82424,43.797963 C -168.1887,43.797346 -169.5745,43.74036 -170.91799,43.735463 z"
       id="path3509"
       transform="matrix(0.9834273,0,0,0.9834273,218.42541,4.9141391)" />
    <g
       id="g3475"
       transform="matrix(0.744338,0,0,0.744338,163.71659,87.505849)">
      <path
         id="path2598"
         d="M -157.12783,-31.929689 C -159.47394,-31.929689 -161.34736,-30.056281 -161.34736,-27.710166 L -161.34736,-4.6048724 L -184.45265,-4.6048724 C -186.79876,-4.6048724 -188.67218,-2.6974346 -188.67217,-0.35132034 L -188.67217,23.128287 C -188.67217,25.474401 -186.79877,27.347812 -184.45265,27.347811 L -161.34736,27.347811 L -161.34736,50.453105 C -161.34736,52.799219 -159.47394,54.706659 -157.12783,54.706657 L -133.64823,54.706657 C -131.30212,54.706657 -129.39466,52.799218 -129.39467,50.453105 L -129.39467,27.347811 L -106.28938,27.347811 C -103.94327,27.347811 -102.06986,25.474401 -102.06986,23.128287 L -102.06986,-0.35132034 C -102.06986,-2.6974346 -103.94327,-4.6048724 -106.28938,-4.6048724 L -129.39467,-4.6048724 L -129.39467,-27.710166 C -129.39467,-30.05628 -131.3021,-31.929689 -133.64823,-31.929689 L -157.12783,-31.929689 z"
         style="opacity:1;fill:#404040;fill-opacity:1;fill-rule:nonzero;stroke:#000000;stroke-width:3;marker:none;marker-start:none;marker-mid:none;marker-end:none;stroke-opacity:1;visibility:visible;display:inline;overflow:visible;enable-background:accumulate" />
      <g
         id="g3444">
        <path
           style="fill:url(#linearGradient3700);fill-opacity:1;fill-rule:nonzero;stroke:#000000;stroke-width:4.28599977;stroke-linecap:butt;stroke-linejoin:round;marker:none;marker-start:none;marker-mid:none;marker-end:none;stroke-miterlimit:4;stroke-dasharray:none;stroke-dashoffset:0;stroke-opacity:1;visibility:visible;display:inline;overflow:visible;enable-background:accumulate"
           d="M -154.0625,-64.46507 C -170.58606,-64.46507 -177.27418,-56.73024 -177.28125,-41.15625 C -177.28446,-34.06521 -181.25214,-34.35887 -181.625,-31.1875 C -196.91244,-21.41769 -206.44559,-2.70596 -206.9375,16.65625 C -207.2575,17.18898 -206.83631,16.20669 -207.15625,16.75 C -207.15338,23.08575 -209.51505,31.80722 -210.53125,42 C -217.29077,87.35581 -230.71996,163 -186,163 C -156.01175,163 -146.00724,128.03056 -120.25,72.8125 L -48,72.78125 L 24.28125,72.8125 C 50.038492,128.03056 60.043001,163 90.03125,163 C 134.75121,163 121.32202,87.35581 114.5625,42 C 113.5463,31.80722 112.68463,22.83575 112.6875,16.5 C 112.36756,15.95669 112.03875,15.43898 111.71875,14.90625 C 111.22684,-4.45596 100.94369,-21.41769 85.65625,-31.1875 C 85.28339,-34.35887 81.284449,-34.06521 81.28125,-41.15625 C 81.27418,-56.73024 74.970793,-64.51134 58.09375,-64.46507 C 56.288805,-64.460223 54.458099,-64.372028 52.625,-64.37132 C 30.912166,-64.36308 25.804451,-58.04885 25.8125,-40.25 C 25.81513,-34.42089 25.25739,-35.91274 24.71875,-32.75 C 22.25399,-31.35858 22.904291,-29.85882 20.6875,-28.125 L -48,-28.09375 L -116.65625,-28.125 C -118.87304,-29.85882 -118.22274,-31.35858 -120.6875,-32.75 C -121.22614,-35.91274 -121.78388,-34.42089 -121.78125,-40.25 C -121.7732,-58.04885 -127.94157,-64.37132 -148.59375,-64.37132 C -150.42686,-64.372151 -152.25756,-64.45849 -154.0625,-64.46507 z"
           id="path2461"
           sodipodi:nodetypes="csccccscccsccccsssscccccssc" />
        <path
           style="fill:#a3aab0;fill-opacity:1;fill-rule:nonzero;stroke:#000000;stroke-width:4.28556871;stroke-linecap:butt;stroke-linejoin:round;marker:none;marker-start:none;marker-mid:none;marker-end:none;stroke-miterlimit:4;stroke-dasharray:none;stroke-dashoffset:0;stroke-opacity:1;visibility:visible;display:inline;overflow:visible;enable-background:accumulate"
           d="M -151.12983,-44.5 C -182.24223,-44.51407 -207.5043,-19.27488 -207.51837,11.83751 C -207.53246,42.94991 -182.29325,68.21197 -151.18087,68.22605 C -144.93375,68.22888 -138.90631,67.14424 -133.28794,65.26768 C -132.50033,83.39501 -117.60295,97.906 -99.28094,97.9143 C -80.449761,97.92282 -65.159581,82.64645 -65.15107,63.81527 C -65.14275,45.47933 -79.620821,30.46902 -97.76683,29.68605 C -95.880076,24.06256 -94.795133,18.1445 -94.79231,11.88853 C -94.778234,-19.22387 -120.01744,-44.48592 -151.12983,-44.5 z"
           id="path2411" />
        <path
           style="fill:#a3aab0;fill-opacity:1;fill-rule:nonzero;stroke:#000000;stroke-width:4.28556871;stroke-linecap:butt;stroke-linejoin:round;marker:none;marker-start:none;marker-mid:none;marker-end:none;stroke-miterlimit:4;stroke-dasharray:none;stroke-dashoffset:0;stroke-opacity:1;visibility:visible;display:inline;overflow:visible;enable-background:accumulate"
           d="M 56.523441,-44.40603 C 25.411056,-44.42011 0.1489839,-19.18091 0.1348872,11.9315 C 0.1320587,18.21789 1.1939883,24.17567 3.093258,29.82439 C -14.362668,31.30996 -28.062037,45.99211 -28.070125,63.83206 C -28.078633,82.66324 -12.802264,97.95346 6.0289154,97.96197 C 24.192349,97.97016 39.025896,83.71566 40.065238,65.80965 C 45.253321,67.38881 50.770554,68.31745 56.472414,68.32002 C 87.584842,68.33411 112.84687,43.0949 112.86095,11.98251 C 112.87504,-19.12988 87.63584,-44.39195 56.523441,-44.40603 z"
           id="path2413" />
      </g>
      <path
         transform="matrix(1.8740095,8.4821802e-4,-8.4821802e-4,1.8740095,-860.73833,-625.96011)"
         d="M 418,367.86218 A 11.5,11.5 0 1 1 395,367.86218 A 11.5,11.5 0 1 1 418,367.86218 z"
         sodipodi:ry="11.5"
         sodipodi:rx="11.5"
         sodipodi:cy="367.86218"
         sodipodi:cx="406.5"
         id="path2421"
         style="fill:#33323a;fill-opacity:1;fill-rule:nonzero;stroke:#000000;stroke-width:1.48632741;stroke-linecap:butt;stroke-linejoin:round;marker:none;marker-start:none;marker-mid:none;marker-end:none;stroke-miterlimit:4;stroke-dasharray:none;stroke-dashoffset:0;stroke-opacity:1;visibility:visible;display:inline;overflow:visible;enable-background:accumulate"
         sodipodi:type="arc" />
      <path
         transform="matrix(1.8161971,8.2205085e-4,-8.2205085e-4,1.8161971,-731.93734,-604.63483)"
         d="M 418,367.86218 A 11.5,11.5 0 1 1 395,367.86218 A 11.5,11.5 0 1 1 418,367.86218 z"
         sodipodi:ry="11.5"
         sodipodi:rx="11.5"
         sodipodi:cy="367.86218"
         sodipodi:cx="406.5"
         id="path2423"
         style="fill:#33323a;fill-opacity:1;fill-rule:nonzero;stroke:#000000;stroke-width:1.5303576;stroke-linecap:butt;stroke-linejoin:round;marker:none;marker-start:none;marker-mid:none;marker-end:none;stroke-miterlimit:4;stroke-dasharray:none;stroke-dashoffset:0;stroke-opacity:1;visibility:visible;display:inline;overflow:visible;enable-background:accumulate"
         sodipodi:type="arc" />
      <g
         id="g3456">
        <path
           id="path2596"
           d="M 44.872167,-31.929689 C 42.526058,-31.929689 40.652644,-30.056281 40.652644,-27.710166 L 40.652644,-4.6048724 L 17.54735,-4.6048724 C 15.20124,-4.6048724 13.327815,-2.6974346 13.327826,-0.35132034 L 13.327826,23.128287 C 13.327826,25.474401 15.20123,27.347812 17.54735,27.347811 L 40.652644,27.347811 L 40.652644,50.453105 C 40.652644,52.799219 42.526058,54.706659 44.872167,54.706657 L 68.351775,54.706657 C 70.697883,54.706657 72.605337,52.799218 72.605326,50.453105 L 72.605326,27.347811 L 95.71062,27.347811 C 98.05673,27.347811 99.930144,25.474401 99.930144,23.128287 L 99.930144,-0.35132034 C 99.930144,-2.6974346 98.05673,-4.6048724 95.71062,-4.6048724 L 72.605326,-4.6048724 L 72.605326,-27.710166 C 72.605326,-30.05628 70.697895,-31.929689 68.351775,-31.929689 L 44.872167,-31.929689 z"
           style="opacity:1;fill:#a9b0b5;fill-opacity:1;fill-rule:nonzero;stroke:none;stroke-width:3;marker:none;marker-start:none;marker-mid:none;marker-end:none;stroke-opacity:1;visibility:visible;display:inline;overflow:visible;enable-background:accumulate" />
        <path
           sodipodi:type="arc"
           style="fill:#33323a;fill-opacity:1;fill-rule:nonzero;stroke:#000000;stroke-width:4.16692877;stroke-linecap:butt;stroke-linejoin:round;marker:none;marker-start:none;marker-mid:none;marker-end:none;stroke-miterlimit:4;stroke-dasharray:none;stroke-dashoffset:0;stroke-opacity:1;visibility:visible;display:inline;overflow:visible;enable-background:accumulate"
           id="path2450"
           sodipodi:cx="389"
           sodipodi:cy="351.36218"
           sodipodi:rx="19"
           sodipodi:ry="19"
           d="M 408,351.36218 A 19,19 0 1 1 370,351.36218 A 19,19 0 1 1 408,351.36218 z"
           transform="matrix(0.5945249,2.6914648e-4,-2.6914648e-4,0.5945249,-203.11168,-197.09303)" />
        <path
           sodipodi:type="arc"
           style="fill:#33323a;fill-opacity:1;fill-rule:nonzero;stroke:#000000;stroke-width:4.16692877;stroke-linecap:butt;stroke-linejoin:round;marker:none;marker-start:none;marker-mid:none;marker-end:none;stroke-miterlimit:4;stroke-dasharray:none;stroke-dashoffset:0;stroke-opacity:1;visibility:visible;display:inline;overflow:visible;enable-background:accumulate"
           id="path2452"
           sodipodi:cx="389"
           sodipodi:cy="351.36218"
           sodipodi:rx="19"
           sodipodi:ry="19"
           d="M 408,351.36218 A 19,19 0 1 1 370,351.36218 A 19,19 0 1 1 408,351.36218 z"
           transform="matrix(0.5945249,2.6914648e-4,-2.6914648e-4,0.5945249,-146.24362,-197.06544)" />
        <path
           sodipodi:type="arc"
           style="fill:#33323a;fill-opacity:1;fill-rule:nonzero;stroke:#000000;stroke-width:4.16692877;stroke-linecap:butt;stroke-linejoin:round;marker:none;marker-start:none;marker-mid:none;marker-end:none;stroke-miterlimit:4;stroke-dasharray:none;stroke-dashoffset:0;stroke-opacity:1;visibility:visible;display:inline;overflow:visible;enable-background:accumulate"
           id="path2454"
           sodipodi:cx="389"
           sodipodi:cy="351.36218"
           sodipodi:rx="19"
           sodipodi:ry="19"
           d="M 408,351.36218 A 19,19 0 1 1 370,351.36218 A 19,19 0 1 1 408,351.36218 z"
           transform="matrix(0.5945249,2.6914648e-4,-2.6914648e-4,0.5945249,-174.66396,-225.51326)" />
        <path
           sodipodi:type="arc"
           style="fill:#33323a;fill-opacity:1;fill-rule:nonzero;stroke:#000000;stroke-width:4.16692877;stroke-linecap:butt;stroke-linejoin:round;marker:none;marker-start:none;marker-mid:none;marker-end:none;stroke-miterlimit:4;stroke-dasharray:none;stroke-dashoffset:0;stroke-opacity:1;visibility:visible;display:inline;overflow:visible;enable-background:accumulate"
           id="path2456"
           sodipodi:cx="389"
           sodipodi:cy="351.36218"
           sodipodi:rx="19"
           sodipodi:ry="19"
           d="M 408,351.36218 A 19,19 0 1 1 370,351.36218 A 19,19 0 1 1 408,351.36218 z"
           transform="matrix(0.5945249,2.6914648e-4,-2.6914648e-4,0.5945249,-174.6915,-168.64518)" />
      </g>
      <g
         id="g3467">
        <rect
           style="fill:#aa0000;fill-opacity:1;fill-rule:nonzero;stroke:#000000;stroke-width:1.48323786;stroke-linecap:butt;stroke-linejoin:round;marker:none;marker-start:none;marker-mid:none;marker-end:none;stroke-miterlimit:4;stroke-dasharray:none;stroke-dashoffset:0;stroke-opacity:1;visibility:visible;display:inline;overflow:visible;enable-background:accumulate"
           id="rect2463"
           width="11.865903"
           height="5.9329515"
           x="-52.658066"
           y="54.788197"
           transform="matrix(0.9999999,4.5246662e-4,-4.5246662e-4,0.9999999,0,0)" />
        <rect
           style="fill:#33323a;fill-opacity:1;fill-rule:nonzero;stroke:#000000;stroke-width:2.96647573;stroke-linecap:butt;stroke-linejoin:round;marker:none;marker-start:none;marker-mid:none;marker-end:none;stroke-miterlimit:4;stroke-dasharray:none;stroke-dashoffset:0;stroke-opacity:1;visibility:visible;display:inline;overflow:visible;enable-background:accumulate"
           id="rect2465"
           width="14.615908"
           height="6.7795358"
           x="-54.29932"
           y="38.629402"
           transform="matrix(0.9999999,4.5246662e-4,-4.5246662e-4,0.9999999,0,0)" />
        <rect
           style="fill:#33323a;fill-opacity:1;fill-rule:nonzero;stroke:#000000;stroke-width:2.96647573;stroke-linecap:butt;stroke-linejoin:round;marker:none;marker-start:none;marker-mid:none;marker-end:none;stroke-miterlimit:4;stroke-dasharray:none;stroke-dashoffset:0;stroke-opacity:1;visibility:visible;display:inline;overflow:visible;enable-background:accumulate"
           id="rect2467"
           width="12.494753"
           height="7.1340594"
           x="-85.721138"
           y="8.4377928"
           transform="matrix(0.9999999,4.5246662e-4,-4.5246662e-4,0.9999999,0,0)" />
        <path
           style="fill:#33323a;fill-opacity:1;fill-rule:nonzero;stroke:#000000;stroke-width:2.96647573;stroke-linecap:butt;stroke-linejoin:round;marker:none;marker-start:none;marker-mid:none;marker-end:none;stroke-miterlimit:4;stroke-dasharray:none;stroke-dashoffset:0;stroke-opacity:1;visibility:visible;display:inline;overflow:visible;enable-background:accumulate"
           d="M -24.334762,7.3612983 L -9.5866389,10.777765 C -8.6143669,11.263901 -8.9692869,12.992938 -9.4112589,13.23147 L -24.338799,16.260736 L -24.334762,7.3612983 z"
           id="rect2469"
           sodipodi:nodetypes="ccccc" />
      </g>
      <g
         id="g3449">
        <path
           style="opacity:1;fill:#a9b0b5;fill-opacity:1;fill-rule:nonzero;stroke:none;stroke-width:3;marker:none;marker-start:none;marker-mid:none;marker-end:none;stroke-opacity:1;visibility:visible;display:inline;overflow:visible;enable-background:accumulate"
           d="M -162.77428,-31.929689 C -165.12039,-31.929689 -166.99381,-30.056281 -166.99381,-27.710166 L -166.99381,-4.6048724 L -190.0991,-4.6048724 C -192.44521,-4.6048724 -194.31863,-2.6974346 -194.31862,-0.35132034 L -194.31862,23.128287 C -194.31862,25.474401 -192.44522,27.347812 -190.0991,27.347811 L -166.99381,27.347811 L -166.99381,50.453105 C -166.99381,52.799219 -165.12039,54.706659 -162.77428,54.706657 L -139.29468,54.706657 C -136.94857,54.706657 -135.04111,52.799218 -135.04112,50.453105 L -135.04112,27.347811 L -111.93583,27.347811 C -109.58972,27.347811 -107.71631,25.474401 -107.71631,23.128287 L -107.71631,-0.35132034 C -107.71631,-2.6974346 -109.58972,-4.6048724 -111.93583,-4.6048724 L -135.04112,-4.6048724 L -135.04112,-27.710166 C -135.04112,-30.05628 -136.94855,-31.929689 -139.29468,-31.929689 L -162.77428,-31.929689 z"
           id="path2600" />
        <path
           style="fill:#33323a;fill-opacity:1;fill-rule:evenodd;stroke:#000000;stroke-width:2.96647573;stroke-linecap:butt;stroke-linejoin:round;stroke-miterlimit:4;stroke-dasharray:none;stroke-opacity:1"
           d="M -151.15263,3.8920523 C -152.2882,3.8920523 -160.04803,-5.0114192 -160.04803,-5.0114192 L -160.03998,-17.860527 L -142.24113,-17.85247 L -142.24918,-5.0033681 C -142.24918,-5.0033681 -149.90631,3.8920523 -151.15263,3.8920523 z"
           id="path2441"
           sodipodi:nodetypes="cccccc" />
        <path
           sodipodi:nodetypes="cccccc"
           id="path2575"
           d="M -151.13653,16.139473 C -150.01337,16.139473 -142.24113,25.042943 -142.24113,25.042943 L -142.24918,37.892053 L -160.04803,37.883993 L -160.03998,25.034893 C -160.03998,25.034893 -152.25785,16.139473 -151.13653,16.139473 z"
           style="fill:#33323a;fill-opacity:1;fill-rule:evenodd;stroke:#000000;stroke-width:2.96647573;stroke-linecap:butt;stroke-linejoin:round;stroke-miterlimit:4;stroke-dasharray:none;stroke-opacity:1" />
        <path
           style="fill:#33323a;fill-opacity:1;fill-rule:evenodd;stroke:#000000;stroke-width:2.96647573;stroke-linecap:butt;stroke-linejoin:round;stroke-miterlimit:4;stroke-dasharray:none;stroke-opacity:1"
           d="M -146.02087,11.007713 C -146.02087,9.882713 -137.1174,2.112313 -137.1174,2.112313 L -124.26829,2.120363 L -124.27635,19.919213 L -137.12545,19.911163 C -137.12545,19.911163 -146.02087,12.015495 -146.02087,11.007713 z"
           id="path2577"
           sodipodi:nodetypes="cccccc" />
        <path
           sodipodi:nodetypes="cccccc"
           id="path2579"
           d="M -156.26829,11.007713 C -156.26829,9.8776176 -165.17176,2.112313 -165.17176,2.112313 L -178.02087,2.120363 L -178.01281,19.919213 L -165.16371,19.911163 C -165.16371,19.911163 -156.26829,12.129033 -156.26829,11.007713 z"
           style="fill:#33323a;fill-opacity:1;fill-rule:evenodd;stroke:#000000;stroke-width:2.96647573;stroke-linecap:butt;stroke-linejoin:round;stroke-miterlimit:4;stroke-dasharray:none;stroke-opacity:1" />
      </g>
    </g>
  </g>
</svg>
