<!-- 
    This SVG file is derived from the AudioStreamPlayer icon from Godot Engine:
    https://github.com/godotengine/godot/blob/master/editor/icons/icon_audio_stream_player_2_d.svg
    
    Here's Godot Engine's license:

		Copyright (c) 2007-2020 Juan Linietsky, Ariel Manzur.
		Copyright (c) 2014-2020 Godot Engine contributors (cf. AUTHORS.md).

		Permission is hereby granted, free of charge, to any person obtaining a copy
		of this software and associated documentation files (the "Software"), to deal
		in the Software without restriction, including without limitation the rights
		to use, copy, modify, merge, publish, distribute, sublicense, and/or sell
		copies of the Software, and to permit persons to whom the Software is
		furnished to do so, subject to the following conditions:

		The above copyright notice and this permission notice shall be included in all
		copies or substantial portions of the Software.

		THE SOFTWARE IS PROVIDED "AS IS", WITHOUT WARRANTY OF ANY KIND, EXPRESS OR
		IMPLIED, INCLUDING BUT NOT LIMITED TO THE WARRANTIES OF MERCHANTABILITY,
		FITNESS FOR A PARTICULAR PURPOSE AND NONINFRINGEMENT. IN NO EVENT SHALL THE
		AUTHORS OR COPYRIGHT HOLDERS BE LIABLE FOR ANY CLAIM, DAMAGES OR OTHER
		LIABILITY, WHETHER IN AN ACTION OF CONTRACT, TORT OR OTHERWISE, ARISING FROM,
		OUT OF OR IN CONNECTION WITH THE SOFTWARE OR THE USE OR OTHER DEALINGS IN THE
		SOFTWARE.

	End of license
-->
<svg height="16" viewBox="0 0 16 16" width="16" xmlns="http://www.w3.org/2000/svg" xmlns:xlink="http://www.w3.org/1999/xlink"><linearGradient id="a" gradientUnits="userSpaceOnUse" x1="8" x2="8" y1="1" y2="15"><stop offset="0" stop-color="#ff7a7a"/><stop offset=".5" stop-color="#e1dc7a"/><stop offset="1" stop-color="#66ff9e"/></linearGradient>
<path d="m11.971 1.002a1.0001 1.0001 0 0 0 -.24609.037109l-7 2a1.0001 1.0001 0 0 0 -.72461.96094v5.5508a2.5 2.5 0 0 0 -.5-.050781 2.5 2.5 0 0 0 -2.5 2.5 2.5 2.5 0 0 0 2.5 2.5 2.5 2.5 0 0 0 2.4961-2.4121 1.0001 1.0001 0 0 0 .0039062-.087891v-7.2441l5-1.4277v3.1719l2-1v-3.5a1.0001 1.0001 0 0 0 -1.0293-.99805z" fill="url(#a)"/>
<path d="M 13.498047 7.4960938 C 13.263787 7.4906638 13.070271 7.6745056 13.070312 7.9023438 L 13.070312 8.0527344 C 11.494803 8.0527344 10.167969 9.3303798 10.167969 10.957031 C 10.167969 11.562035 9.6772713 12.052734 9.0722656 12.052734 L 7.71875 12.052734 L 7.71875 13.861328 L 9.0722656 13.861328 C 10.647776 13.861328 11.976563 12.583682 11.976562 10.957031 C 11.976562 10.352026 12.465308 9.8613281 13.070312 9.8613281 L 13.070312 10.011719 C 13.070602 10.323931 13.419192 10.519345 13.697266 10.363281 L 15.367188 9.3085938 C 15.645492 9.1524037 15.645493 8.7616587 15.367188 8.6054688 L 13.697266 7.5507812 C 13.636736 7.5165653 13.567996 7.4978008 13.498047 7.4960938 z M 7.71875 8.0527344 L 7.71875 9.8613281 L 9.0703125 9.8613281 C 9.3078527 9.8613281 9.5256968 9.9398614 9.7050781 10.068359 C 9.8650998 9.4643952 10.180379 8.9270282 10.607422 8.5 C 10.158088 8.2182497 9.6308898 8.0527344 9.0703125 8.0527344 L 7.71875 8.0527344 z M 13.496094 11.498047 C 13.261835 11.492647 13.070271 11.676459 13.070312 11.904297 L 13.070312 12.052734 C 12.833652 12.052734 12.616515 11.977243 12.4375 11.849609 C 12.276896 12.453085 11.960452 12.991463 11.533203 13.417969 C 11.982361 13.6994 12.510078 13.863281 13.070312 13.863281 L 13.070312 14.011719 C 13.070602 14.323931 13.417238 14.519346 13.695312 14.363281 L 15.365234 13.308594 C 15.643539 13.152404 15.643539 12.763611 15.365234 12.607422 L 13.695312 11.552734 C 13.634783 11.518514 13.566043 11.499757 13.496094 11.498047 z " style="fill:#a5b7f3;" />
</svg>
