<?xml version="1.0" encoding="UTF-8" standalone="no"?>
<!-- Created with Inkscape (http://www.inkscape.org/) -->

<svg
   xmlns:dc="http://purl.org/dc/elements/1.1/"
   xmlns:cc="http://creativecommons.org/ns#"
   xmlns:rdf="http://www.w3.org/1999/02/22-rdf-syntax-ns#"
   xmlns:svg="http://www.w3.org/2000/svg"
   xmlns="http://www.w3.org/2000/svg"
   xmlns:xlink="http://www.w3.org/1999/xlink"
   xmlns:sodipodi="http://sodipodi.sourceforge.net/DTD/sodipodi-0.dtd"
   xmlns:inkscape="http://www.inkscape.org/namespaces/inkscape"
   width="210mm"
   height="297mm"
   viewBox="0 0 210 297"
   version="1.1"
   id="svg8"
   inkscape:version="0.92.2 (5c3e80d, 2017-08-06)"
   sodipodi:docname="ships.svg">
  <defs
     id="defs2" />
  <sodipodi:namedview
     id="base"
     pagecolor="#000000"
     bordercolor="#666666"
     borderopacity="1.0"
     inkscape:pageopacity="0"
     inkscape:pageshadow="2"
     inkscape:zoom="2"
     inkscape:cx="97.00689"
     inkscape:cy="27.744942"
     inkscape:document-units="mm"
     inkscape:current-layer="g4657"
     showgrid="true"
     inkscape:snap-grids="true"
     inkscape:measure-start="0,0"
     inkscape:measure-end="0,0"
     inkscape:window-width="2160"
     inkscape:window-height="1329"
     inkscape:window-x="0"
     inkscape:window-y="55"
     inkscape:window-maximized="1"
     inkscape:pagecheckerboard="false">
    <inkscape:grid
       type="xygrid"
       id="grid3699"
       empspacing="16"
       color="#afafff"
       opacity="0.50588235"
       empcolor="#ffffff"
       empopacity="0.57647059" />
  </sodipodi:namedview>
  <metadata
     id="metadata5">
    <rdf:RDF>
      <cc:Work
         rdf:about="">
        <dc:format>image/svg+xml</dc:format>
        <dc:type
           rdf:resource="http://purl.org/dc/dcmitype/StillImage" />
        <dc:title></dc:title>
      </cc:Work>
    </rdf:RDF>
  </metadata>
  <g
     inkscape:label="Layer 1"
     inkscape:groupmode="layer"
     id="layer1">
    <g
       id="g4648">
      <path
         sodipodi:nodetypes="ccccc"
         inkscape:connector-curvature="0"
         id="circle3703"
         d="m 10.133277,292.42146 -3.2541106,-3.35897 -2.6116756,-0.0289 c 0.1567921,1.32436 0.9284758,2.49741 2.0825618,3.1657 1.1556471,0.66592 2.5575683,0.74826 3.7832244,0.22221 z"
         style="opacity:1;fill:#00ff00;fill-opacity:1;stroke:none;stroke-width:0.27399999;stroke-linecap:round;stroke-linejoin:round;stroke-miterlimit:4;stroke-dasharray:none;stroke-opacity:0.58947365" />
      <path
         sodipodi:nodetypes="ccccc"
         inkscape:connector-curvature="0"
         id="path3705"
         d="m 10.133779,284.64571 c -1.2257347,-0.52638 -2.6278676,-0.44423 -3.7837264,0.22169 -1.1542183,0.6684 -1.9259285,1.84167 -2.0825618,3.16622 l 2.6116756,0.0289 z"
         style="opacity:1;fill:#00ff00;fill-opacity:1;stroke:none;stroke-width:0.27399999;stroke-linecap:round;stroke-linejoin:round;stroke-miterlimit:4;stroke-dasharray:none;stroke-opacity:0.58947365" />
      <path
         sodipodi:nodetypes="ccccc"
         inkscape:connector-curvature="0"
         id="path3707"
         d="m 14.552083,288.53333 -3.555815,-3.38016 -2.5296017,3.38016 2.5296017,3.37964 z"
         style="fill:#00ff00;stroke:none;stroke-width:0.26458332px;stroke-linecap:butt;stroke-linejoin:miter;stroke-opacity:1" />
      <path
         inkscape:connector-curvature="0"
         id="path4534"
         d="m 4.7624868,292.2375 1.05834,0.79375 -1.32292,1.32291 -1.85208,-1.85208 1.85208,0.79375 z"
         style="fill:#00ff00;fill-opacity:1;stroke:none;stroke-width:0.26458332px;stroke-linecap:butt;stroke-linejoin:miter;stroke-opacity:1" />
      <path
         style="fill:#00ff00;fill-opacity:1;stroke:none;stroke-width:0.26458332px;stroke-linecap:butt;stroke-linejoin:miter;stroke-opacity:1"
         d="m 4.7624868,284.82916 1.05834,-0.79375 -1.32292,-1.32291 -1.85208,1.85208 1.85208,-0.79375 z"
         id="path4536"
         inkscape:connector-curvature="0" />
      <path
         sodipodi:nodetypes="cccccc"
         inkscape:connector-curvature="0"
         id="path4538"
         d="m 8.2020768,283.50625 1.32292,0 -0.26458,-2.38125 -2.11667,0.52916 1.5875,0.26459 z"
         style="fill:#00ff00;fill-opacity:1;stroke:none;stroke-width:0.26458332px;stroke-linecap:butt;stroke-linejoin:miter;stroke-opacity:1" />
      <path
         style="fill:#00ff00;fill-opacity:1;stroke:none;stroke-width:0.26458332px;stroke-linecap:butt;stroke-linejoin:miter;stroke-opacity:1"
         d="m 8.2020768,293.56041 h 1.32292 l -0.26458,2.38125 -2.11667,-0.52916 1.5875,-0.26459 z"
         id="path4540"
         inkscape:connector-curvature="0"
         sodipodi:nodetypes="cccccc" />
      <path
         sodipodi:nodetypes="cccccc"
         inkscape:connector-curvature="0"
         id="path4546"
         d="m 11.377077,292.76666 1.05833,-1.05833 0.52917,1.32292 2.38125,-1.05834 -2.38125,1.85209 z"
         style="fill:#00ff00;fill-opacity:1;stroke:none;stroke-width:0.26458332px;stroke-linecap:butt;stroke-linejoin:miter;stroke-opacity:1" />
      <use
         height="100%"
         width="100%"
         transform="matrix(1,0,0,-1,6.7999999e-6,577.06666)"
         id="use4550"
         xlink:href="#path4546"
         y="0"
         x="0" />
    </g>
    <g
       id="g4657">
      <path
         style="opacity:1;fill:#ff0000;fill-opacity:1;stroke:none;stroke-width:3.77952766;stroke-linecap:round;stroke-linejoin:round;stroke-miterlimit:4;stroke-dasharray:none;stroke-opacity:1"
         d="M 89 1074.5195 L 89 1078.5195 L 80 1078.5195 L 80 1083.9297 L 79.998047 1083.9316 L 80 1084.5195 L 80.007812 1087.5195 L 92 1087.5195 L 92 1093.5195 L 80 1093.5195 L 80 1102.5195 L 89 1102.5195 L 89 1106.5195 L 92 1106.5195 L 92 1106.5137 L 101 1106.4961 L 101 1106.5195 L 112 1106.5195 L 112 1074.5195 L 101 1074.5195 L 101 1074.5234 L 90 1074.5449 L 90 1074.5195 L 89 1074.5195 z "
         transform="scale(0.26458333)"
         id="rect4617" />
      <rect
         transform="rotate(90)"
         y="-32.013828"
         x="287.73959"
         height="1.5875002"
         width="1.5874988"
         id="rect4554"
         style="opacity:1;fill:#ff0000;fill-opacity:1;stroke:none;stroke-width:1.22474456;stroke-linecap:round;stroke-linejoin:round;stroke-miterlimit:4;stroke-dasharray:none;stroke-opacity:1" />
      <path
         id="rect4556"
         d="m 26.458333,281.65417 h -5.291667 v 1.05833 0.52917 l -6.9e-4,1.05833 h 1.322917 l 6.9e-4,-1.05833 h 3.96875 z"
         style="opacity:1;fill:#ff0000;fill-opacity:1;stroke:none;stroke-width:1.09544623;stroke-linecap:round;stroke-linejoin:round;stroke-miterlimit:4;stroke-dasharray:none;stroke-opacity:1"
         inkscape:connector-curvature="0"
         sodipodi:nodetypes="ccccccccc" />
      <path
         id="rect4561"
         d="m 26.458333,293.825 h -3.96875 l -6.9e-4,-1.05834 h -1.322917 l 6.9e-4,1.05834 v 0.52917 1.05833 h 5.291667 z"
         style="opacity:1;fill:#ff0000;fill-opacity:1;stroke:none;stroke-width:1.09544516;stroke-linecap:round;stroke-linejoin:round;stroke-miterlimit:4;stroke-dasharray:none;stroke-opacity:1"
         inkscape:connector-curvature="0"
         sodipodi:nodetypes="ccccccccc" />
    </g>
  </g>
</svg>
