<?xml version="1.0" encoding="UTF-8" standalone="no"?>
<svg
   xmlns:dc="http://purl.org/dc/elements/1.1/"
   xmlns:cc="http://creativecommons.org/ns#"
   xmlns:rdf="http://www.w3.org/1999/02/22-rdf-syntax-ns#"
   xmlns:svg="http://www.w3.org/2000/svg"
   xmlns="http://www.w3.org/2000/svg"
   xmlns:sodipodi="http://sodipodi.sourceforge.net/DTD/sodipodi-0.dtd"
   xmlns:inkscape="http://www.inkscape.org/namespaces/inkscape"
   width="210mm"
   height="297mm"
   viewBox="0 0 210 297"
   version="1.1"
   id="svg8"
   inkscape:version="1.0.1 (1.0.1+r73)"
   sodipodi:docname="controls.svg">
  <defs
     id="defs2">
    <marker
       inkscape:stockid="Arrow2Lend"
       orient="auto"
       refY="0.0"
       refX="0.0"
       id="Arrow2Lend"
       style="overflow:visible;"
       inkscape:isstock="true">
      <path
         id="path980"
         style="fill-rule:evenodd;stroke-width:0.625;stroke-linejoin:round;stroke:#ffffff;stroke-opacity:1;fill:#ffffff;fill-opacity:1"
         d="M 8.7185878,4.0337352 L -2.2072895,0.016013256 L 8.7185884,-4.0017078 C 6.9730900,-1.6296469 6.9831476,1.6157441 8.7185878,4.0337352 z "
         transform="scale(1.1) rotate(180) translate(1,0)" />
    </marker>
    <marker
       inkscape:stockid="Arrow1Sstart"
       orient="auto"
       refY="0.0"
       refX="0.0"
       id="Arrow1Sstart"
       style="overflow:visible"
       inkscape:isstock="true">
      <path
         id="path971"
         d="M 0.0,0.0 L 5.0,-5.0 L -12.5,0.0 L 5.0,5.0 L 0.0,0.0 z "
         style="fill-rule:evenodd;stroke:#ffffff;stroke-width:1pt;stroke-opacity:1;fill:#ffffff;fill-opacity:1"
         transform="scale(0.2) translate(6,0)" />
    </marker>
    <marker
       inkscape:stockid="Arrow1Send"
       orient="auto"
       refY="0.0"
       refX="0.0"
       id="marker1397"
       style="overflow:visible;"
       inkscape:isstock="true">
      <path
         id="path1395"
         d="M 0.0,0.0 L 5.0,-5.0 L -12.5,0.0 L 5.0,5.0 L 0.0,0.0 z "
         style="fill-rule:evenodd;stroke:#ffffff;stroke-width:1pt;stroke-opacity:1;fill:#ffffff;fill-opacity:1"
         transform="scale(0.2) rotate(180) translate(6,0)" />
    </marker>
    <marker
       inkscape:stockid="Arrow2Mend"
       orient="auto"
       refY="0.0"
       refX="0.0"
       id="marker1339"
       style="overflow:visible;"
       inkscape:isstock="true">
      <path
         id="path1337"
         style="fill-rule:evenodd;stroke-width:0.625;stroke-linejoin:round;stroke:#ffffff;stroke-opacity:1;fill:#ffffff;fill-opacity:1"
         d="M 8.7185878,4.0337352 L -2.2072895,0.016013256 L 8.7185884,-4.0017078 C 6.9730900,-1.6296469 6.9831476,1.6157441 8.7185878,4.0337352 z "
         transform="scale(0.6) rotate(180) translate(0,0)" />
    </marker>
    <marker
       inkscape:stockid="Arrow1Send"
       orient="auto"
       refY="0.0"
       refX="0.0"
       id="Arrow1Send"
       style="overflow:visible;"
       inkscape:isstock="true">
      <path
         id="path974"
         d="M 0.0,0.0 L 5.0,-5.0 L -12.5,0.0 L 5.0,5.0 L 0.0,0.0 z "
         style="fill-rule:evenodd;stroke:#ffffff;stroke-width:1pt;stroke-opacity:1;fill:#ffffff;fill-opacity:1"
         transform="scale(0.2) rotate(180) translate(6,0)" />
    </marker>
    <marker
       inkscape:stockid="Arrow2Mend"
       orient="auto"
       refY="0.0"
       refX="0.0"
       id="Arrow2Mend"
       style="overflow:visible;"
       inkscape:isstock="true">
      <path
         id="path986"
         style="fill-rule:evenodd;stroke-width:0.625;stroke-linejoin:round;stroke:#ffffff;stroke-opacity:1;fill:#ffffff;fill-opacity:1"
         d="M 8.7185878,4.0337352 L -2.2072895,0.016013256 L 8.7185884,-4.0017078 C 6.9730900,-1.6296469 6.9831476,1.6157441 8.7185878,4.0337352 z "
         transform="scale(0.6) rotate(180) translate(0,0)" />
    </marker>
    <marker
       inkscape:stockid="Arrow1Mend"
       orient="auto"
       refY="0.0"
       refX="0.0"
       id="Arrow1Mend"
       style="overflow:visible;"
       inkscape:isstock="true">
      <path
         id="path968"
         d="M 0.0,0.0 L 5.0,-5.0 L -12.5,0.0 L 5.0,5.0 L 0.0,0.0 z "
         style="fill-rule:evenodd;stroke:#ffffff;stroke-width:1pt;stroke-opacity:1;fill:#ffffff;fill-opacity:1"
         transform="scale(0.4) rotate(180) translate(10,0)" />
    </marker>
    <marker
       inkscape:stockid="Arrow1Lend"
       orient="auto"
       refY="0.0"
       refX="0.0"
       id="Arrow1Lend"
       style="overflow:visible;"
       inkscape:isstock="true">
      <path
         id="path962"
         d="M 0.0,0.0 L 5.0,-5.0 L -12.5,0.0 L 5.0,5.0 L 0.0,0.0 z "
         style="fill-rule:evenodd;stroke:#ffffff;stroke-width:1pt;stroke-opacity:1;fill:#ffffff;fill-opacity:1"
         transform="scale(0.8) rotate(180) translate(12.5,0)" />
    </marker>
  </defs>
  <sodipodi:namedview
     id="base"
     pagecolor="#3f3f3f"
     bordercolor="#666666"
     borderopacity="1.0"
     inkscape:pageopacity="0"
     inkscape:pageshadow="2"
     inkscape:zoom="2.8"
     inkscape:cx="270.2749"
     inkscape:cy="1068.7327"
     inkscape:document-units="mm"
     inkscape:current-layer="layer1"
     showgrid="false"
     inkscape:snap-global="false"
     inkscape:snap-object-midpoints="true"
     inkscape:window-width="1224"
     inkscape:window-height="656"
     inkscape:window-x="56"
     inkscape:window-y="27"
     inkscape:window-maximized="1"
     inkscape:document-rotation="0">
    <inkscape:grid
       type="xygrid"
       id="grid815" />
  </sodipodi:namedview>
  <metadata
     id="metadata5">
    <rdf:RDF>
      <cc:Work
         rdf:about="">
        <dc:format>image/svg+xml</dc:format>
        <dc:type
           rdf:resource="http://purl.org/dc/dcmitype/StillImage" />
        <dc:title></dc:title>
      </cc:Work>
    </rdf:RDF>
  </metadata>
  <g
     inkscape:label="Layer 1"
     inkscape:groupmode="layer"
     id="layer1">
    <path
       id="path1037"
       style="color:#000000;font-style:normal;font-variant:normal;font-weight:normal;font-stretch:normal;font-size:medium;line-height:normal;font-family:sans-serif;font-variant-ligatures:normal;font-variant-position:normal;font-variant-caps:normal;font-variant-numeric:normal;font-variant-alternates:normal;font-variant-east-asian:normal;font-feature-settings:normal;font-variation-settings:normal;text-indent:0;text-align:start;text-decoration:none;text-decoration-line:none;text-decoration-style:solid;text-decoration-color:#000000;letter-spacing:normal;word-spacing:normal;text-transform:none;writing-mode:lr-tb;direction:ltr;text-orientation:mixed;dominant-baseline:auto;baseline-shift:baseline;text-anchor:start;white-space:normal;shape-padding:0;shape-margin:0;inline-size:0;clip-rule:nonzero;display:inline;overflow:visible;visibility:visible;opacity:1;isolation:auto;mix-blend-mode:normal;color-interpolation:sRGB;color-interpolation-filters:linearRGB;solid-color:#000000;solid-opacity:1;vector-effect:none;fill:#999999;fill-opacity:1;fill-rule:nonzero;stroke:none;stroke-width:2;stroke-linecap:butt;stroke-linejoin:miter;stroke-miterlimit:4;stroke-dasharray:none;stroke-dashoffset:0;stroke-opacity:1;color-rendering:auto;image-rendering:auto;shape-rendering:auto;text-rendering:auto;enable-background:accumulate;stop-color:#000000;stop-opacity:1"
       d="M 236.90625 1004.4473 C 234.0485 1004.4473 231.73242 1006.8228 231.73242 1009.709 L 231.73242 1016.9805 A 1.0001006 1.0001006 0 0 0 232.73633 1017.9844 L 241.07031 1017.9844 A 1.0001006 1.0001006 0 0 0 242.07422 1016.9805 L 242.07422 1009.709 C 242.07422 1006.8232 239.764 1004.4473 236.90625 1004.4473 z M 296.98047 1004.4473 C 294.12272 1004.4473 291.81445 1006.8232 291.81445 1009.709 L 291.81445 1016.9805 A 1.0001006 1.0001006 0 0 0 292.81055 1017.9844 L 301.15234 1017.9844 A 1.0001006 1.0001006 0 0 0 302.14844 1016.9805 L 302.14844 1009.709 C 302.14844 1006.8228 299.83822 1004.4473 296.98047 1004.4473 z M 236.90625 1006.4473 C 238.66694 1006.4473 240.07422 1007.8726 240.07422 1009.709 L 240.07422 1015.9844 L 233.73242 1015.9844 L 233.73242 1009.709 C 233.73242 1007.873 235.14555 1006.4473 236.90625 1006.4473 z M 296.98047 1006.4473 C 298.74117 1006.4473 300.14844 1007.873 300.14844 1009.709 L 300.14844 1015.9844 L 293.81445 1015.9844 L 293.81445 1009.709 C 293.81445 1007.8726 295.21977 1006.4473 296.98047 1006.4473 z M 231.23047 1019.623 C 229.30402 1019.623 227.72461 1021.2044 227.72461 1023.1309 L 227.72461 1023.1523 C 227.72461 1025.0788 229.304 1026.6582 231.23047 1026.6582 L 240.07422 1026.6582 C 242.00069 1026.6582 243.58008 1025.0788 243.58008 1023.1523 L 243.58008 1023.1309 C 243.58008 1021.2044 242.00067 1019.623 240.07422 1019.623 L 231.23047 1019.623 z M 294.30859 1019.623 C 292.38214 1019.623 290.79492 1021.2044 290.79492 1023.1309 L 290.79492 1023.1523 C 290.79492 1025.0788 292.38212 1026.6582 294.30859 1026.6582 L 303.14453 1026.6582 C 305.071 1026.6582 306.6582 1025.0788 306.6582 1023.1523 L 306.6582 1023.1309 C 306.6582 1021.2044 305.07098 1019.623 303.14453 1019.623 L 294.30859 1019.623 z M 231.23047 1021.625 L 240.07422 1021.625 C 240.92727 1021.625 241.58008 1022.2778 241.58008 1023.1309 L 241.58008 1023.1523 C 241.58008 1024.0054 240.92725 1024.6582 240.07422 1024.6582 L 231.23047 1024.6582 C 230.37743 1024.6582 229.72461 1024.0054 229.72461 1023.1523 L 229.72461 1023.1309 C 229.72461 1022.2778 230.37741 1021.625 231.23047 1021.625 z M 294.30859 1021.625 L 303.14453 1021.625 C 303.99759 1021.625 304.6582 1022.2778 304.6582 1023.1309 L 304.6582 1023.1523 C 304.6582 1024.0054 303.99757 1024.6582 303.14453 1024.6582 L 294.30859 1024.6582 C 293.45556 1024.6582 292.79492 1024.0054 292.79492 1023.1523 L 292.79492 1023.1309 C 292.79492 1022.2778 293.45554 1021.625 294.30859 1021.625 z M 291.2168 1028.4844 C 281.25794 1028.4478 279.63459 1036.4453 267.18555 1036.4453 C 254.87624 1036.4453 254.41441 1026.1184 238.32031 1029.0391 C 211.96684 1033.8037 207.91589 1091.7837 221.89648 1094.8223 C 229.6584 1096.5086 233.56965 1087.5076 243.83203 1081.0469 A 11.919106 11.919106 0 0 0 262.27148 1075.0879 A 56.325761 56.325761 0 0 1 267.18164 1074.8789 C 268.90749 1074.8789 270.51891 1074.9525 272.06445 1075.0859 A 11.921649 11.921649 0 0 0 290.51562 1081.0312 C 300.79072 1087.4922 304.70062 1096.5028 312.46484 1094.8145 C 326.44313 1091.7853 322.2889 1034.5171 296.05078 1029.0391 C 294.23195 1028.6592 292.63949 1028.4896 291.2168 1028.4844 z M 297.60352 1036.834 A 4.004396 4.004396 0 0 1 301.56836 1040.8379 A 4.004396 4.004396 0 0 1 297.55469 1044.8457 L 297.56445 1044.8438 A 4.0049476 4.0049476 0 0 1 297.60352 1036.834 z M 236.03516 1040.3477 L 242.07812 1040.3477 L 242.07812 1046.4922 L 248.22266 1046.4922 L 248.22266 1052.5352 L 242.07812 1052.5352 L 242.07812 1058.6797 L 242.07812 1058.6836 L 236.03516 1058.6836 L 236.03516 1052.5371 L 229.88672 1052.5371 L 229.88672 1046.4941 L 236.03516 1046.4941 L 236.03516 1040.3477 z M 306.11914 1045.5078 A 4.004396 4.004396 0 0 1 306.19922 1045.5078 A 4.004396 4.004396 0 0 1 306.27734 1045.5078 A 4.004396 4.004396 0 0 1 310.24023 1049.5117 A 4.004396 4.004396 0 0 1 306.22656 1053.5176 L 306.23633 1053.5156 A 4.004396 4.004396 0 1 1 306.11914 1045.5078 z M 288.77148 1045.5098 A 4.004396 4.004396 0 0 1 288.84961 1045.5098 A 4.004396 4.004396 0 0 1 288.92969 1045.5098 A 4.004396 4.004396 0 0 1 292.89453 1049.5137 A 4.004396 4.004396 0 0 1 288.89062 1053.5195 L 288.89062 1053.5176 A 4.004396 4.004396 0 1 1 288.77148 1045.5098 z M 257.64258 1053.7891 L 264.69141 1053.7891 L 264.69141 1057.9336 L 257.64258 1057.9336 L 257.64258 1053.7891 z M 269.64258 1053.7891 L 276.69141 1053.7891 L 276.69141 1057.9336 L 269.64258 1057.9336 L 269.64258 1053.7891 z M 297.44531 1054.1836 A 4.004396 4.004396 0 0 1 297.52344 1054.1836 A 4.004396 4.004396 0 0 1 297.60352 1054.1836 A 4.004396 4.004396 0 0 1 301.56836 1058.1875 A 4.004396 4.004396 0 0 1 297.55469 1062.1934 L 297.56445 1062.1914 A 4.004396 4.004396 0 1 1 297.44531 1054.1836 z M 283.25 1063.5234 A 7.9376751 7.9376751 0 0 1 283.31055 1063.5234 A 7.9375316 7.9375316 0 0 1 283.37109 1063.5234 A 7.9371324 7.9371324 0 0 1 291.36133 1071.4648 A 7.9371324 7.9371324 0 0 1 283.41602 1079.4004 L 283.41602 1079.3984 A 7.9376751 7.9376751 0 0 1 283.25 1063.5234 z M 250.85547 1063.5254 A 7.9371324 7.9371324 0 0 1 258.85156 1071.4609 A 7.9371324 7.9371324 0 0 1 250.91797 1079.4004 L 250.91406 1079.3984 A 7.9371324 7.9371324 0 0 1 250.85547 1063.5254 z "
       transform="scale(0.26458333)"
       inkscape:export-xdpi="541.56726"
       inkscape:export-ydpi="541.56726" />
    <rect
       style="fill:#ffffff;fill-opacity:1;stroke:#000000;stroke-width:0.529167;stroke-miterlimit:4;stroke-dasharray:none;stroke-opacity:1"
       id="rect999"
       width="3.6671085"
       height="1.332444"
       x="77.204491"
       y="270.04022"
       ry="0.66372728" />
    <rect
       style="fill:#ffffff;fill-opacity:1;stroke:#000000;stroke-width:0.529167;stroke-miterlimit:4;stroke-dasharray:none;stroke-opacity:1"
       id="rect997"
       width="3.6671085"
       height="1.332444"
       x="60.516407"
       y="270.04022"
       ry="0.66372728"
       inkscape:export-filename="/home/nitaku/repos/superstarfighter/godot/assets/UI/buttons/trigger_top.png"
       inkscape:export-xdpi="539.28186"
       inkscape:export-ydpi="539.28186" />
    <path
       id="rect977"
       style="fill:#ffffff;fill-opacity:1;stroke:#000000;stroke-width:0.529167;stroke-linejoin:round;stroke-miterlimit:4;stroke-dasharray:none;stroke-opacity:1"
       d="m 62.680945,266.02471 c -0.610982,0 -1.103017,0.50271 -1.103017,1.12741 v 1.92415 H 63.7836 v -1.92415 c 0,-0.6247 -0.491673,-1.12741 -1.102655,-1.12741 z"
       sodipodi:nodetypes="ssccss"
       inkscape:export-filename="/home/nitaku/repos/superstarfighter/godot/assets/UI/buttons/trigger_bottom.png"
       inkscape:export-xdpi="539.28186"
       inkscape:export-ydpi="539.28186" />
    <path
       id="path987"
       style="fill:#ffffff;fill-opacity:1;stroke:#000000;stroke-width:0.529167;stroke-linejoin:round;stroke-miterlimit:4;stroke-dasharray:none;stroke-opacity:1"
       d="m 78.57611,266.02471 c 0.610982,0 1.103017,0.50271 1.103017,1.12741 v 1.92415 h -2.205672 v -1.92415 c 0,-0.6247 0.491673,-1.12741 1.102655,-1.12741 z"
       sodipodi:nodetypes="ssccss" />
    <g
       id="g1710"
       inkscape:export-xdpi="299.74536"
       inkscape:export-ydpi="299.74536">
      <rect
         ry="1.2048181"
         y="270.77789"
         x="4.2049837"
         height="4.8192167"
         width="4.8191986"
         id="rect831"
         style="opacity:1;fill:#999999;fill-opacity:1;stroke:none;stroke-width:0.5291667;stroke-linecap:square;stroke-linejoin:round;stroke-miterlimit:4;stroke-dasharray:none;stroke-opacity:1" />
      <text
         id="text843"
         y="274.44504"
         x="6.6100464"
         style="font-style:normal;font-variant:normal;font-weight:500;font-stretch:normal;font-size:3.62923px;line-height:1.25;font-family:Ubuntu;-inkscape-font-specification:'Ubuntu Medium';letter-spacing:0px;word-spacing:0px;fill:#ffffff;fill-opacity:1;stroke:none;stroke-width:0.264583"
         xml:space="preserve"><tspan
           style="font-style:normal;font-variant:normal;font-weight:500;font-stretch:normal;font-family:Ubuntu;-inkscape-font-specification:'Ubuntu Medium';text-align:center;text-anchor:middle;fill:#ffffff;stroke-width:0.264583"
           y="274.44504"
           x="6.6100464"
           id="tspan841"
           sodipodi:role="line">2</tspan></text>
      <rect
         style="opacity:1;fill:#999999;fill-opacity:1;stroke:none;stroke-width:0.5291667;stroke-linecap:square;stroke-linejoin:round;stroke-miterlimit:4;stroke-dasharray:none;stroke-opacity:1"
         id="rect853"
         width="4.8191986"
         height="4.8192167"
         x="10.819568"
         y="277.39249"
         ry="1.2048181" />
      <text
         xml:space="preserve"
         style="font-style:normal;font-variant:normal;font-weight:500;font-stretch:normal;font-size:3.62923px;line-height:1.25;font-family:Ubuntu;-inkscape-font-specification:'Ubuntu Medium';letter-spacing:0px;word-spacing:0px;fill:#ffffff;fill-opacity:1;stroke:none;stroke-width:0.264583"
         x="13.22463"
         y="281.05963"
         id="text857"><tspan
           sodipodi:role="line"
           id="tspan855"
           x="13.22463"
           y="281.05963"
           style="font-style:normal;font-variant:normal;font-weight:500;font-stretch:normal;font-family:Ubuntu;-inkscape-font-specification:'Ubuntu Medium';text-align:center;text-anchor:middle;fill:#ffffff;stroke-width:0.264583">W</tspan></text>
      <rect
         ry="1.2048181"
         y="282.68414"
         x="10.819568"
         height="4.8192167"
         width="4.8191986"
         id="rect859"
         style="opacity:1;fill:#999999;fill-opacity:1;stroke:none;stroke-width:0.5291667;stroke-linecap:square;stroke-linejoin:round;stroke-miterlimit:4;stroke-dasharray:none;stroke-opacity:1" />
      <text
         id="text863"
         y="286.35129"
         x="13.22463"
         style="font-style:normal;font-variant:normal;font-weight:500;font-stretch:normal;font-size:3.62923px;line-height:1.25;font-family:Ubuntu;-inkscape-font-specification:'Ubuntu Medium';letter-spacing:0px;word-spacing:0px;fill:#ffffff;fill-opacity:1;stroke:none;stroke-width:0.264583"
         xml:space="preserve"><tspan
           style="font-style:normal;font-variant:normal;font-weight:500;font-stretch:normal;font-family:Ubuntu;-inkscape-font-specification:'Ubuntu Medium';text-align:center;text-anchor:middle;fill:#ffffff;stroke-width:0.264583"
           y="286.35129"
           x="13.22463"
           id="tspan861"
           sodipodi:role="line">S</tspan></text>
      <rect
         style="opacity:1;fill:#999999;fill-opacity:1;stroke:none;stroke-width:0.5291667;stroke-linecap:square;stroke-linejoin:round;stroke-miterlimit:4;stroke-dasharray:none;stroke-opacity:1"
         id="rect865"
         width="4.8191986"
         height="4.8192167"
         x="5.5279002"
         y="282.68414"
         ry="1.2048181" />
      <text
         xml:space="preserve"
         style="font-style:normal;font-variant:normal;font-weight:500;font-stretch:normal;font-size:3.62923px;line-height:1.25;font-family:Ubuntu;-inkscape-font-specification:'Ubuntu Medium';letter-spacing:0px;word-spacing:0px;fill:#ffffff;fill-opacity:1;stroke:none;stroke-width:0.264583"
         x="7.9329629"
         y="286.35129"
         id="text869"><tspan
           sodipodi:role="line"
           id="tspan867"
           x="7.9329629"
           y="286.35129"
           style="font-style:normal;font-variant:normal;font-weight:500;font-stretch:normal;font-family:Ubuntu;-inkscape-font-specification:'Ubuntu Medium';text-align:center;text-anchor:middle;fill:#ffffff;stroke-width:0.264583">A</tspan></text>
      <rect
         ry="1.2048181"
         y="282.68414"
         x="16.111235"
         height="4.8192167"
         width="4.8191986"
         id="rect871"
         style="opacity:1;fill:#999999;fill-opacity:1;stroke:none;stroke-width:0.5291667;stroke-linecap:square;stroke-linejoin:round;stroke-miterlimit:4;stroke-dasharray:none;stroke-opacity:1" />
      <text
         id="text875"
         y="286.35129"
         x="18.516298"
         style="font-style:normal;font-variant:normal;font-weight:500;font-stretch:normal;font-size:3.62923px;line-height:1.25;font-family:Ubuntu;-inkscape-font-specification:'Ubuntu Medium';letter-spacing:0px;word-spacing:0px;fill:#ffffff;fill-opacity:1;stroke:none;stroke-width:0.264583"
         xml:space="preserve"><tspan
           style="font-style:normal;font-variant:normal;font-weight:500;font-stretch:normal;font-family:Ubuntu;-inkscape-font-specification:'Ubuntu Medium';text-align:center;text-anchor:middle;fill:#ffffff;stroke-width:0.264583"
           y="286.35129"
           x="18.516298"
           id="tspan873"
           sodipodi:role="line">D</tspan></text>
      <text
         xml:space="preserve"
         style="font-style:normal;font-variant:normal;font-weight:500;font-stretch:normal;font-size:2.71442px;line-height:1.25;font-family:Ubuntu;-inkscape-font-specification:'Ubuntu Medium';letter-spacing:0px;word-spacing:0px;fill:#ffffff;fill-opacity:1;stroke:none;stroke-width:0.264583"
         x="10.583371"
         y="273.84793"
         id="text909"><tspan
           sodipodi:role="line"
           id="tspan907"
           x="10.583371"
           y="273.84793"
           style="font-style:normal;font-variant:normal;font-weight:500;font-stretch:normal;font-family:Ubuntu;-inkscape-font-specification:'Ubuntu Medium';text-align:start;text-anchor:start;fill:#ffffff;stroke-width:0.264583">Jump</tspan></text>
      <text
         id="text913"
         y="290.8096"
         x="13.211384"
         style="font-style:normal;font-variant:normal;font-weight:500;font-stretch:normal;font-size:2.71442px;line-height:1.25;font-family:Ubuntu;-inkscape-font-specification:'Ubuntu Medium';letter-spacing:0px;word-spacing:0px;fill:#ffffff;fill-opacity:1;stroke:none;stroke-width:0.264583"
         xml:space="preserve"><tspan
           id="tspan915"
           style="font-style:normal;font-variant:normal;font-weight:500;font-stretch:normal;font-family:Ubuntu;-inkscape-font-specification:'Ubuntu Medium';text-align:center;text-anchor:middle;fill:#ffffff;stroke-width:0.264583"
           y="290.8096"
           x="13.211384"
           sodipodi:role="line">Move</tspan></text>
      <rect
         style="opacity:1;fill:#999999;fill-opacity:1;stroke:none;stroke-width:0.5291667;stroke-linecap:square;stroke-linejoin:round;stroke-miterlimit:4;stroke-dasharray:none;stroke-opacity:1"
         id="rect919"
         width="4.8191986"
         height="4.8192167"
         x="29.340401"
         y="270.77789"
         ry="1.2048181" />
      <text
         xml:space="preserve"
         style="font-style:normal;font-variant:normal;font-weight:500;font-stretch:normal;font-size:3.62923px;line-height:1.25;font-family:Ubuntu;-inkscape-font-specification:'Ubuntu Medium';letter-spacing:0px;word-spacing:0px;fill:#ffffff;fill-opacity:1;stroke:none;stroke-width:0.264583"
         x="31.745462"
         y="274.44504"
         id="text923"><tspan
           sodipodi:role="line"
           id="tspan921"
           x="31.745462"
           y="274.44504"
           style="font-style:normal;font-variant:normal;font-weight:500;font-stretch:normal;font-family:Ubuntu;-inkscape-font-specification:'Ubuntu Medium';text-align:center;text-anchor:middle;fill:#ffffff;stroke-width:0.264583">M</tspan></text>
      <rect
         ry="1.2048181"
         y="277.39249"
         x="35.954983"
         height="4.8192167"
         width="4.8191986"
         id="rect925"
         style="opacity:1;fill:#999999;fill-opacity:1;stroke:none;stroke-width:0.5291667;stroke-linecap:square;stroke-linejoin:round;stroke-miterlimit:4;stroke-dasharray:none;stroke-opacity:1" />
      <rect
         style="opacity:1;fill:#999999;fill-opacity:1;stroke:none;stroke-width:0.5291667;stroke-linecap:square;stroke-linejoin:round;stroke-miterlimit:4;stroke-dasharray:none;stroke-opacity:1"
         id="rect931"
         width="4.8191986"
         height="4.8192167"
         x="35.954983"
         y="282.68414"
         ry="1.2048181" />
      <rect
         ry="1.2048181"
         y="282.68414"
         x="30.663317"
         height="4.8192167"
         width="4.8191986"
         id="rect937"
         style="opacity:1;fill:#999999;fill-opacity:1;stroke:none;stroke-width:0.5291667;stroke-linecap:square;stroke-linejoin:round;stroke-miterlimit:4;stroke-dasharray:none;stroke-opacity:1" />
      <rect
         style="opacity:1;fill:#999999;fill-opacity:1;stroke:none;stroke-width:0.5291667;stroke-linecap:square;stroke-linejoin:round;stroke-miterlimit:4;stroke-dasharray:none;stroke-opacity:1"
         id="rect943"
         width="4.8191986"
         height="4.8192167"
         x="41.246651"
         y="282.68414"
         ry="1.2048181" />
      <text
         id="text951"
         y="273.84793"
         x="35.718788"
         style="font-style:normal;font-variant:normal;font-weight:500;font-stretch:normal;font-size:2.71442px;line-height:1.25;font-family:Ubuntu;-inkscape-font-specification:'Ubuntu Medium';letter-spacing:0px;word-spacing:0px;fill:#ffffff;fill-opacity:1;stroke:none;stroke-width:0.264583"
         xml:space="preserve"><tspan
           style="font-style:normal;font-variant:normal;font-weight:500;font-stretch:normal;font-family:Ubuntu;-inkscape-font-specification:'Ubuntu Medium';text-align:start;text-anchor:start;fill:#ffffff;stroke-width:0.264583"
           y="273.84793"
           x="35.718788"
           id="tspan949"
           sodipodi:role="line">Jump</tspan></text>
      <text
         xml:space="preserve"
         style="font-style:normal;font-variant:normal;font-weight:500;font-stretch:normal;font-size:2.71442px;line-height:1.25;font-family:Ubuntu;-inkscape-font-specification:'Ubuntu Medium';letter-spacing:0px;word-spacing:0px;fill:#ffffff;fill-opacity:1;stroke:none;stroke-width:0.264583"
         x="38.346802"
         y="290.8096"
         id="text955"><tspan
           sodipodi:role="line"
           x="38.346802"
           y="290.8096"
           style="font-style:normal;font-variant:normal;font-weight:500;font-stretch:normal;font-family:Ubuntu;-inkscape-font-specification:'Ubuntu Medium';text-align:center;text-anchor:middle;fill:#ffffff;stroke-width:0.264583"
           id="tspan953">Move</tspan></text>
      <path
         inkscape:connector-curvature="0"
         id="path1613"
         d="m 38.364582,278.53743 -0.827736,1.32338 h 1.655472 z m -0.330771,1.32365 v 1.32287 h 0.662512 v -1.32287 z"
         style="fill:#ffffff;stroke:#ffffff;stroke-width:0.26458332px;stroke-linecap:butt;stroke-linejoin:miter;stroke-opacity:1" />
      <path
         style="fill:#ffffff;stroke:#ffffff;stroke-width:0.26458332px;stroke-linecap:butt;stroke-linejoin:miter;stroke-opacity:1"
         d="m 38.364582,286.35842 -0.827736,-1.32338 h 1.655472 z m -0.330771,-1.32365 v -1.32287 h 0.662512 v 1.32287 z"
         id="path1621"
         inkscape:connector-curvature="0" />
      <path
         inkscape:connector-curvature="0"
         id="path1623"
         d="m 44.92092,285.03516 -1.32338,0.82774 v -1.65548 z m -1.32365,0.33077 H 42.2744 v -0.66251 h 1.32287 z"
         style="fill:#ffffff;stroke:#ffffff;stroke-width:0.26458332px;stroke-linecap:butt;stroke-linejoin:miter;stroke-opacity:1" />
      <path
         style="fill:#ffffff;stroke:#ffffff;stroke-width:0.26458332px;stroke-linecap:butt;stroke-linejoin:miter;stroke-opacity:1"
         d="m 31.808246,285.03516 1.32338,0.82774 v -1.65548 z m 1.32365,0.33077 h 1.32287 v -0.66251 h -1.32287 z"
         id="path1625"
         inkscape:connector-curvature="0" />
      <path
         inkscape:connector-curvature="0"
         id="path975"
         d="m -7.6540192,265.56973 -0.827736,-1.32338 h 1.655472 z m -0.330771,-1.32365 v -26.72287 h 0.662512 v 26.72287 z"
         style="fill:#ffffff;stroke:#ffffff;stroke-width:0.26458332px;stroke-linecap:butt;stroke-linejoin:miter;stroke-opacity:1"
         sodipodi:nodetypes="ccccccccc"
         inkscape:export-xdpi="299"
         inkscape:export-ydpi="299" />
    </g>
    <path
       style="fill:#ffffff;fill-opacity:1;stroke:#000000;stroke-width:0.52916667;stroke-miterlimit:4;stroke-dasharray:none;stroke-opacity:1"
       d="m 78.69958,278.83759 c -1.496049,0.0565 -1.449208,2.28919 0.04789,2.28284 l -0.0028,5.6e-4 c 0.631791,10e-4 1.144671,-0.51044 1.144435,-1.14226 1.77e-4,-0.64947 -0.540661,-1.16831 -1.189546,-1.14114 z"
       id="path1653"
       inkscape:connector-curvature="0"
       sodipodi:nodetypes="cccccc"
       inkscape:export-xdpi="299.74536"
       inkscape:export-ydpi="299.74536" />
    <path
       sodipodi:nodetypes="cccccc"
       inkscape:connector-curvature="0"
       id="path1662"
       d="m 66.330577,281.36612 c -2.733325,0.10324 -2.647745,4.18303 0.0875,4.17142 l -0.0051,8.7e-4 c 1.154301,0.002 2.091348,-0.93272 2.090916,-2.08724 3.24e-4,-1.18677 -0.987803,-2.13484 -2.173335,-2.0852 z"
       style="fill:#ffffff;fill-opacity:1;stroke:#000000;stroke-width:0.52916667;stroke-miterlimit:4;stroke-dasharray:none;stroke-opacity:1"
       inkscape:export-xdpi="539.28186"
       inkscape:export-ydpi="539.28186"
       inkscape:export-filename="/home/nitaku/repos/superstarfighter/godot/assets/UI/buttons/stick.png" />
    <text
       xml:space="preserve"
       style="font-style:normal;font-variant:normal;font-weight:500;font-stretch:normal;font-size:2.71442px;line-height:1.25;font-family:Ubuntu;-inkscape-font-specification:'Ubuntu Medium';letter-spacing:0px;word-spacing:0px;fill:#ffffff;fill-opacity:1;stroke:none;stroke-width:0.264583"
       x="17.861492"
       y="267.64914"
       id="text1670"
       inkscape:export-xdpi="299.74536"
       inkscape:export-ydpi="299.74536"><tspan
         sodipodi:role="line"
         id="tspan1668"
         x="17.861492"
         y="267.64914"
         style="font-style:normal;font-variant:normal;font-weight:500;font-stretch:normal;font-family:Ubuntu;-inkscape-font-specification:'Ubuntu Medium';text-align:start;text-anchor:start;fill:#ffffff;stroke-width:0.264583">KEYBOARD</tspan></text>
    <path
       style="fill:#ffffff;fill-opacity:1;stroke:#000000;stroke-width:0.52916667;stroke-miterlimit:4;stroke-dasharray:none;stroke-opacity:1"
       d="m 78.69958,274.26409 c -1.496049,0.0565 -1.449208,2.28919 0.04789,2.28284 l -0.0028,5.6e-4 c 0.631791,0.001 1.144671,-0.51044 1.144435,-1.14226 1.77e-4,-0.64947 -0.540661,-1.16831 -1.189546,-1.14114 z"
       id="path72"
       inkscape:connector-curvature="0"
       sodipodi:nodetypes="cccccc"
       inkscape:export-xdpi="299.74536"
       inkscape:export-ydpi="299.74536" />
    <path
       style="fill:#ffffff;fill-opacity:1;stroke:#000000;stroke-width:0.52916667;stroke-miterlimit:4;stroke-dasharray:none;stroke-opacity:1"
       d="m 76.393924,276.52252 c -1.496049,0.0565 -1.449208,2.28919 0.04789,2.28284 l -0.0028,5.6e-4 c 0.631791,10e-4 1.144671,-0.51044 1.144435,-1.14226 1.77e-4,-0.64947 -0.540661,-1.16831 -1.189546,-1.14114 z"
       id="path74"
       inkscape:connector-curvature="0"
       sodipodi:nodetypes="cccccc"
       inkscape:export-xdpi="299.74536"
       inkscape:export-ydpi="299.74536" />
    <path
       style="fill:#ffffff;fill-opacity:1;stroke:#000000;stroke-width:0.529167;stroke-miterlimit:4;stroke-dasharray:none;stroke-opacity:1"
       d="m 81.014686,276.52252 c -1.496049,0.0565 -1.449208,2.28919 0.04789,2.28284 l -0.0028,5.6e-4 c 0.631791,10e-4 1.144671,-0.51044 1.144435,-1.14226 1.77e-4,-0.64947 -0.540661,-1.16831 -1.189546,-1.14114 z"
       id="path76"
       inkscape:connector-curvature="0"
       sodipodi:nodetypes="cccccc"
       inkscape:export-xdpi="299.74536"
       inkscape:export-ydpi="299.74536" />
    <path
       id="rect80"
       style="fill:#ffffff;fill-opacity:1;stroke:#000000;stroke-width:2;stroke-miterlimit:4;stroke-dasharray:none;stroke-opacity:1"
       d="m 236.03516,1046.4941 h -6.14844 v 6.043 h 6.14844 z"
       transform="scale(0.26458333)"
       sodipodi:nodetypes="ccccc"
       inkscape:export-filename="/home/nitaku/repos/superstarfighter/godot/assets/UI/buttons/dpad.png"
       inkscape:export-xdpi="541.9444"
       inkscape:export-ydpi="541.9444" />
    <rect
       style="fill:#ffffff;fill-opacity:1;stroke:#000000;stroke-width:0.529167;stroke-miterlimit:4;stroke-dasharray:none;stroke-opacity:1"
       id="rect965"
       width="1.8652923"
       height="1.0963372"
       x="71.342751"
       y="278.81528"
       inkscape:export-filename="/home/nitaku/repos/superstarfighter/godot/assets/UI/buttons/special_button.png"
       inkscape:export-xdpi="540.90997"
       inkscape:export-ydpi="540.90997" />
    <rect
       style="fill:#ffffff;fill-opacity:1;stroke:#000000;stroke-width:0.529167;stroke-miterlimit:4;stroke-dasharray:none;stroke-opacity:1"
       id="rect967"
       width="1.8652923"
       height="1.0963372"
       x="68.167747"
       y="278.81528" />
    <path
       style="fill:#ffffff;fill-opacity:1;stroke:#000000;stroke-width:0.529167;stroke-miterlimit:4;stroke-dasharray:none;stroke-opacity:1"
       d="m 73.549125,282.34551 c -1.496049,0.0565 -1.449208,2.28919 0.04789,2.28284 l -0.0028,5.6e-4 c 0.631791,10e-4 1.144671,-0.51044 1.144435,-1.14226 1.77e-4,-0.64947 -0.540661,-1.16831 -1.189546,-1.14114 z"
       id="path1060"
       inkscape:connector-curvature="0"
       sodipodi:nodetypes="cccccc"
       inkscape:export-xdpi="540.91046"
       inkscape:export-ydpi="540.91046"
       inkscape:export-filename="/home/nitaku/repos/superstarfighter/godot/assets/UI/buttons/button.png" />
  </g>
</svg>
