<?xml version="1.0" encoding="UTF-8" standalone="no"?>
<!-- Created with Inkscape (http://www.inkscape.org/) -->

<svg
   width="1920"
   height="1080"
   viewBox="0 0 508 285.75"
   version="1.1"
   id="svg1"
   xml:space="preserve"
   inkscape:version="1.3.2 (091e20ef0f, 2023-11-25)"
   sodipodi:docname="fake_crt.svg"
   inkscape:export-filename="../../godot/assets/HUD/fake_crt.png"
   inkscape:export-xdpi="96"
   inkscape:export-ydpi="96"
   xmlns:inkscape="http://www.inkscape.org/namespaces/inkscape"
   xmlns:sodipodi="http://sodipodi.sourceforge.net/DTD/sodipodi-0.dtd"
   xmlns:xlink="http://www.w3.org/1999/xlink"
   xmlns="http://www.w3.org/2000/svg"
   xmlns:svg="http://www.w3.org/2000/svg"><sodipodi:namedview
     id="namedview1"
     pagecolor="#505050"
     bordercolor="#eeeeee"
     borderopacity="1"
     inkscape:showpageshadow="0"
     inkscape:pageopacity="0"
     inkscape:pagecheckerboard="0"
     inkscape:deskcolor="#d1d1d1"
     inkscape:document-units="mm"
     inkscape:zoom="0.35355339"
     inkscape:cx="1353.4024"
     inkscape:cy="278.60007"
     inkscape:window-width="1850"
     inkscape:window-height="1009"
     inkscape:window-x="0"
     inkscape:window-y="0"
     inkscape:window-maximized="1"
     inkscape:current-layer="layer1" /><defs
     id="defs1"><linearGradient
       id="linearGradient2"><stop
         style="stop-color:#485ae7;stop-opacity:0;"
         offset="0"
         id="stop1" /><stop
         style="stop-color:#485ae7;stop-opacity:0;"
         offset="0.59999996"
         id="stop5" /><stop
         style="stop-color:#485ae7;stop-opacity:1;"
         offset="1"
         id="stop6" /></linearGradient><linearGradient
       id="linearGradient35"
       inkscape:collect="always"><stop
         style="stop-color:#ffffff;stop-opacity:0;"
         offset="0"
         id="stop35" /><stop
         style="stop-color:#ffffff;stop-opacity:0;"
         offset="0.69999999"
         id="stop37" /><stop
         style="stop-color:#ffffff;stop-opacity:1;"
         offset="1"
         id="stop36" /></linearGradient><linearGradient
       id="linearGradient2-2"><stop
         style="stop-color:#8893ef;stop-opacity:0;"
         offset="0"
         id="stop23" /><stop
         style="stop-color:#929df0;stop-opacity:0;"
         offset="0.59999996"
         id="stop24" /><stop
         style="stop-color:#7b88ed;stop-opacity:1;"
         offset="1"
         id="stop25" /></linearGradient><linearGradient
       id="linearGradient2-1"><stop
         style="stop-color:#e748b2;stop-opacity:0;"
         offset="0"
         id="stop2" /><stop
         style="stop-color:#e748b0;stop-opacity:0;"
         offset="0.59999996"
         id="stop4" /><stop
         style="stop-color:#e748a0;stop-opacity:1;"
         offset="1"
         id="stop3" /></linearGradient><inkscape:path-effect
       effect="envelope"
       id="path-effect2"
       is_visible="true"
       lpeversion="1"
       yy="true"
       xx="true"
       bendpath1="m -136.29451,10.650251 h 508"
       bendpath2="M 371.70549,10.650251 V 296.40025"
       bendpath3="m -136.29451,296.40025 h 508"
       bendpath4="M -136.29451,10.650251 V 296.40025" /><inkscape:path-effect
       effect="envelope"
       id="path-effect1"
       is_visible="true"
       lpeversion="1"
       yy="true"
       xx="true"
       bendpath1="m -136.43094,10.660912 h 508"
       bendpath2="M 371.56906,10.660912 V 296.41091"
       bendpath3="m -136.43094,296.41091 h 508"
       bendpath4="M -136.43094,10.660912 V 296.41091" /><radialGradient
       inkscape:collect="always"
       xlink:href="#linearGradient2"
       id="radialGradient3"
       cx="117.70549"
       cy="153.52525"
       fx="117.70549"
       fy="153.52525"
       r="254"
       gradientTransform="matrix(1.513407,0,0,1.2659939,-60.430826,-40.836784)"
       gradientUnits="userSpaceOnUse" /><radialGradient
       inkscape:collect="always"
       xlink:href="#linearGradient2-2"
       id="radialGradient25"
       gradientUnits="userSpaceOnUse"
       gradientTransform="matrix(1.513407,0,0,1.2659939,-60.430826,-40.836784)"
       cx="117.70549"
       cy="153.52525"
       fx="117.70549"
       fy="153.52525"
       r="254" /><filter
       inkscape:collect="always"
       style="color-interpolation-filters:sRGB"
       id="filter33"
       x="-0.0061781105"
       y="-0.010978329"
       width="1.0123562"
       height="1.0219567"><feGaussianBlur
         inkscape:collect="always"
         stdDeviation="0.89033088"
         id="feGaussianBlur33" /></filter><mask
       maskUnits="userSpaceOnUse"
       id="mask37"><rect
         style="opacity:1;fill:url(#radialGradient37);fill-opacity:1;stroke:none;stroke-width:1.2;stroke-dasharray:none;stroke-dashoffset:1.54205;stroke-opacity:1"
         id="rect37"
         width="508"
         height="285.75"
         x="-136.43094"
         y="10.660912" /></mask><radialGradient
       inkscape:collect="always"
       xlink:href="#linearGradient35"
       id="radialGradient37"
       gradientUnits="userSpaceOnUse"
       gradientTransform="matrix(0.87255424,0,0,1.2407425,14.98368,-36.962609)"
       cx="117.56906"
       cy="153.5359"
       fx="117.56906"
       fy="153.5359"
       r="254" /></defs><g
     inkscape:label="Layer 1"
     inkscape:groupmode="layer"
     id="layer1"
     transform="translate(136.43094,-10.660912)"><path
       id="rect1"
       style="opacity:0.37;fill:url(#radialGradient25);fill-opacity:0.509527;stroke:none;stroke-width:0.7;stroke-dashoffset:1.54205"
       d="m 117.70549,10.65006 c -0.50509,0 -1.1605,0.01048 -1.67122,0.01085 H -136.43094 V 296.41091 h 254 L 119.3767,10.660912 c -0.51072,-3.74e-4 -1.16613,-0.01085 -1.67121,-0.01085 z"
       sodipodi:nodetypes="scccccs" /><path
       id="path23"
       style="opacity:0.57;fill:url(#radialGradient3);fill-opacity:0.509527;stroke:none;stroke-width:0.7;stroke-dashoffset:1.54205"
       d="m 117.70549,10.65006 c -0.50509,0 -1.1605,0.01048 -1.67122,0.01085 l 1.53479,285.749998 h 254 V 166.58214 c 0.0606,-4.48021 0.13643,-9.08828 0.13643,-13.05708 0,-3.9688 -0.0758,-8.57687 -0.13643,-13.05708 V 10.660912 H 119.3767 c -0.51072,-3.74e-4 -1.16613,-0.01085 -1.67121,-0.01085 z"
       sodipodi:nodetypes="sccccscccs" /><path
       id="path29"
       style="stroke-width:0.7;stroke-dashoffset:1.54205"
       d="M -136.43094 10.660912 L -136.43094 140.46798 L -136.43094 140.48968 L -136.43094 166.58214 L -136.43094 166.60385 L -136.43094 296.41091 L 115.76142 296.41091 L 119.3767 296.41091 L 371.56906 296.41091 L 371.56906 166.60385 L 371.56906 166.58214 L 371.56906 140.48968 L 371.56906 140.46798 L 371.56906 10.660912 L 119.3767 10.660912 L 115.76142 10.660912 L -136.43094 10.660912 z M 117.56906 10.672798 C 128.20208 10.673444 140.10068 10.758815 152.73901 10.904308 C 152.81962 10.90523 152.91052 10.907515 152.99119 10.908442 C 170.21301 11.108638 189.17986 11.476376 208.00282 11.852571 C 224.55136 12.184109 240.89388 12.546548 256.90991 12.937776 C 264.39491 13.120379 271.99405 13.295094 279.13491 13.477794 C 321.5432 14.596786 359.06114 15.735138 362.30554 15.838891 C 362.34078 15.839981 363.06269 15.860217 363.09154 15.861111 C 363.1212 15.862038 363.18206 15.864132 363.18508 15.864212 A 3.7915673 3.7915673 0 0 1 366.82465 19.261421 C 366.95822 21.820733 367.93206 40.718909 368.99299 65.711815 C 369.06943 67.519147 369.13972 69.572494 369.21623 71.434463 C 369.64941 82.168368 370.06677 93.465419 370.42701 104.75233 C 370.42783 104.77423 370.42877 104.79605 370.42959 104.81796 C 370.74374 114.68791 371.05478 124.65594 371.22696 133.92316 C 371.22727 133.93856 371.22771 133.95545 371.228 133.9707 C 371.35455 140.79912 371.42381 147.20555 371.42747 153.03155 C 371.42937 153.18544 371.43211 153.34654 371.43212 153.48424 C 371.43214 153.49682 371.43263 153.51265 371.43263 153.52506 L 371.43263 153.53591 L 371.43263 153.54625 C 371.43263 159.48971 371.35782 166.0951 371.228 173.10009 C 371.22772 173.11481 371.22726 173.13086 371.22696 173.14608 C 371.22682 173.1535 371.22658 173.16192 371.22645 173.16934 C 371.05429 182.42615 370.74331 192.38107 370.42959 202.23888 C 370.42141 202.45665 370.41389 202.67517 370.40582 202.89156 C 370.09312 212.63664 369.73289 222.27793 369.36144 231.64639 C 369.31094 232.9167 369.27085 234.2841 369.21985 235.53659 C 369.1424 237.46015 369.06998 239.53379 368.99196 241.37861 C 367.95589 265.78126 367.04177 283.5249 366.87426 286.74587 C 366.86837 286.87425 366.86094 287.03594 366.85255 287.21509 C 366.84585 287.36118 366.8303 287.68672 366.82465 287.80989 A 3.7915673 3.7915673 0 0 1 363.18508 291.2071 C 363.18398 291.20739 363.16481 291.20763 363.15097 291.20813 C 362.903 291.21607 356.29288 291.40115 355.53386 291.42517 C 348.3063 291.65426 317.44841 292.58457 279.30079 293.58938 C 272.15399 293.77526 264.42902 293.94908 256.89182 294.13353 C 240.877 294.51831 224.54721 294.89093 208.0023 295.21874 C 189.0822 295.59669 169.99338 295.96908 152.70335 296.16803 C 152.60017 296.16922 152.48242 296.1715 152.37934 296.17268 C 139.86678 296.31578 128.10763 296.39787 117.56906 296.39851 C 107.03049 296.39787 95.271331 296.31578 82.758782 296.17268 C 82.655705 296.1715 82.537951 296.16922 82.43477 296.16803 C 65.145367 295.96909 46.056769 295.59668 27.137371 295.21874 C 10.590906 294.8909 -5.7405619 294.51834 -21.756803 294.13353 C -29.292798 293.94911 -37.016444 293.77523 -44.162153 293.58938 C -82.310174 292.58456 -113.16813 291.65426 -120.39574 291.42517 C -121.15476 291.40115 -127.76488 291.21607 -128.01285 291.20813 C -128.01396 291.20809 -128.04586 291.20713 -128.04696 291.2071 A 3.7915673 3.7915673 0 0 1 -131.68653 287.80989 C -131.68823 287.77718 -131.70166 287.49096 -131.71443 287.21509 C -131.71972 287.09985 -131.73025 286.87425 -131.73614 286.74587 C -131.90365 283.5249 -132.81777 265.78126 -133.85384 241.37861 C -133.93186 239.53379 -134.00428 237.46015 -134.08173 235.53659 C -134.0819 235.53234 -134.08207 235.52792 -134.08225 235.52367 C -134.13308 234.27528 -134.17324 232.90963 -134.22332 231.64639 C -134.59662 222.25679 -134.955 212.63665 -135.2677 202.89156 C -135.2748 202.67036 -135.28442 202.45997 -135.29147 202.23888 C -135.60519 192.38107 -135.91617 182.42615 -136.08833 173.16934 C -136.08841 173.16457 -136.08875 173.15913 -136.08884 173.15435 C -136.08904 173.14333 -136.0896 173.13129 -136.08988 173.11973 C -136.08993 173.11676 -136.08982 173.11339 -136.08988 173.11043 L -136.08988 173.10991 C -136.08994 173.10639 -136.08981 173.10361 -136.08988 173.10009 C -136.08998 173.09464 -136.09029 173.08849 -136.09039 173.08304 C -136.21001 166.62259 -136.26861 160.62142 -136.27901 155.04745 C -136.2796 154.74449 -136.28458 154.40162 -136.28883 154.06715 C -136.28893 153.92033 -136.29399 153.7331 -136.294 153.58707 C -136.294 153.57481 -136.29451 153.55902 -136.29451 153.54676 L -136.29451 153.54625 L -136.29451 153.53591 L -136.29451 153.5354 L -136.29451 153.52506 L -136.29451 153.52454 C -136.29451 153.51245 -136.294 153.49686 -136.294 153.48475 C -136.29325 153.03436 -136.27989 152.47535 -136.27901 152.02386 C -136.26861 146.44987 -136.21001 140.44874 -136.09039 133.98827 C -136.09029 133.98282 -136.08998 133.97667 -136.08988 133.97121 C -136.08981 133.9677 -136.08994 133.96491 -136.08988 133.9614 L -136.08988 133.96088 C -136.08959 133.94541 -136.08861 133.92777 -136.08833 133.9123 C -135.91605 124.65165 -135.60533 114.69239 -135.29147 104.83036 C -134.93116 93.532567 -134.51698 82.213988 -134.07966 71.478388 C -134.00255 69.601409 -133.93176 67.537159 -133.85487 65.710782 C -132.79409 40.722479 -131.81993 21.815801 -131.68653 19.261937 A 3.7915673 3.7915673 0 0 1 -131.68653 19.261421 A 3.7915673 3.7915673 0 0 1 -128.04696 15.864212 C -128.04401 15.864133 -127.98622 15.862071 -127.95549 15.861111 C -127.95467 15.861085 -127.93151 15.860621 -127.93068 15.860595 C -127.90327 15.859717 -127.12242 15.837917 -127.08784 15.836823 C -123.68012 15.729035 -86.373868 14.596173 -44.033996 13.478828 C -36.882434 13.295815 -29.267325 13.120707 -21.771789 12.937776 C -5.7557461 12.546548 10.586736 12.184111 27.135303 11.852571 C 45.967165 11.476208 64.944787 11.108066 82.173288 10.907925 C 82.372468 10.905639 82.591713 10.90146 82.795989 10.898624 C 95.29358 10.755805 107.04173 10.673438 117.56906 10.672798 z " /><path
       id="rect32"
       style="opacity:0.359958;mix-blend-mode:normal;fill:none;fill-opacity:1;stroke:#005eca;stroke-width:2;stroke-dasharray:none;stroke-dashoffset:1.54205;stroke-opacity:1;filter:url(#filter33)"
       d="m 117.56906,10.672798 c -10.52732,6.4e-4 -22.275493,0.08301 -34.773071,0.225826 -0.204276,0.0028 -0.423521,0.007 -0.622701,0.0093 -17.228484,0.200141 -36.206141,0.568283 -55.037985,0.944646 -16.54855,0.331539 -32.8910649,0.693977 -48.907092,1.085205 -7.495528,0.18293 -15.110652,0.358039 -22.262207,0.541052 -42.339829,1.117344 -79.646124,2.250208 -83.053844,2.357995 -0.0346,0.0011 -0.81543,0.02289 -0.84284,0.02377 -8.3e-4,2.6e-5 -0.024,4.9e-4 -0.0248,5.16e-4 -0.0307,9.6e-4 -0.0885,0.003 -0.0915,0.0031 a 3.7915673,3.7915673 0 0 0 -3.63957,3.397209 3.7915673,3.7915673 0 0 1 0,5.16e-4 c -0.1334,2.553862 -1.10756,21.460567 -2.16834,46.448845 -0.0769,1.826375 -0.14768,3.890629 -0.22479,5.767606 -0.43732,10.73559 -0.85151,22.054188 -1.21181,33.351976 -0.31386,9.86202 -0.62458,19.8213 -0.79686,29.08194 -2.8e-4,0.0155 -0.001,0.0331 -0.002,0.0486 v 5.2e-4 c -6e-5,0.004 7e-5,0.006 0,0.01 -1e-4,0.005 -4.1e-4,0.0116 -5.1e-4,0.0171 -0.11962,6.46046 -0.17822,12.46161 -0.18862,18.03559 -8.8e-4,0.45149 -0.0142,1.0105 -0.015,1.46089 0,0.0121 -5.1e-4,0.0277 -5.1e-4,0.0398 v 5.2e-4 0.0103 5.1e-4 0.0103 5.1e-4 c 0,0.0123 5.1e-4,0.0281 5.1e-4,0.0403 1e-5,0.14603 0.005,0.33326 0.005,0.48008 0.004,0.33447 0.009,0.67734 0.01,0.9803 0.0104,5.57396 0.069,11.57515 0.18862,18.03559 1e-4,0.005 4.1e-4,0.0116 5.1e-4,0.017 7e-5,0.004 -6e-5,0.006 0,0.01 v 5.2e-4 c 6e-5,0.003 -5e-5,0.006 0,0.009 2.8e-4,0.0116 8.4e-4,0.0236 0.001,0.0346 9e-5,0.005 4.3e-4,0.0102 5.1e-4,0.015 0.17216,9.2568 0.48314,19.21174 0.79686,29.06954 0.007,0.22109 0.0167,0.43148 0.0238,0.65268 0.3127,9.74508 0.67108,19.36524 1.04438,28.75483 0.0501,1.26324 0.0902,2.62889 0.14107,3.87728 1.8e-4,0.004 3.5e-4,0.009 5.2e-4,0.0129 0.0774,1.92356 0.14987,3.9972 0.22789,5.84202 1.03607,24.40263 1.95019,42.14629 2.1177,45.36726 0.006,0.12838 0.0164,0.35398 0.0217,0.46922 0.0128,0.27587 0.0262,0.56209 0.0279,0.5948 a 3.7915673,3.7915673 0 0 0 3.63957,3.39721 c 0.001,3e-5 0.033,9.9e-4 0.0341,0.001 0.24797,0.008 6.85809,0.19302 7.61711,0.21704 7.2276,0.22909 38.085604,1.15939 76.233587,2.16421 7.145701,0.18585 14.869363,0.35973 22.40535,0.54415 16.0162255,0.38481 32.347725,0.75737 48.894174,1.08521 18.919379,0.37794 38.008014,0.75035 55.297399,0.94929 0.103181,10e-4 0.220935,0.003 0.324012,0.005 12.512536,0.1431 24.271718,0.22519 34.810278,0.22583 10.53856,-6.4e-4 22.29773,-0.0827 34.81028,-0.22583 0.10308,-0.001 0.22083,-0.003 0.32401,-0.005 17.29001,-0.19895 36.37887,-0.57134 55.29895,-0.94929 16.54489,-0.32781 32.87472,-0.70043 48.88952,-1.08521 7.53719,-0.18445 15.26218,-0.35827 22.40897,-0.54415 38.14758,-1.00481 69.00552,-1.93512 76.23307,-2.16421 0.75902,-0.024 7.36914,-0.2091 7.61711,-0.21704 0.0138,-5e-4 0.033,-7.4e-4 0.0341,-0.001 a 3.7915673,3.7915673 0 0 0 3.63957,-3.39721 c 0.006,-0.12317 0.0212,-0.44871 0.0279,-0.5948 0.008,-0.17915 0.0158,-0.34084 0.0217,-0.46922 0.16751,-3.22097 1.08163,-20.96463 2.1177,-45.36726 0.078,-1.84482 0.15044,-3.91846 0.22789,-5.84202 0.051,-1.25249 0.0911,-2.61989 0.14159,-3.8902 0.37145,-9.36845 0.73168,-19.00976 1.04438,-28.75483 0.008,-0.21639 0.0156,-0.43491 0.0238,-0.65268 0.31372,-9.8578 0.6247,-19.81274 0.79686,-29.06954 1.3e-4,-0.007 3.7e-4,-0.0158 5.1e-4,-0.0233 3e-4,-0.0152 7.6e-4,-0.0313 10e-4,-0.046 0.12982,-7.00498 0.20463,-13.61039 0.20463,-19.55384 v -0.0103 -0.0109 c 0,-0.0124 -4.9e-4,-0.0282 -5.1e-4,-0.0408 -1e-5,-0.1377 -0.003,-0.2988 -0.005,-0.45269 -0.004,-5.82599 -0.0729,-12.23244 -0.19947,-19.06085 -2.9e-4,-0.0152 -7.3e-4,-0.0321 -0.001,-0.0475 -0.17218,-9.26722 -0.48322,-19.23526 -0.79737,-29.1052 -8.2e-4,-0.0219 -0.002,-0.0437 -0.003,-0.0656 -0.36024,-11.286907 -0.7776,-22.583976 -1.21078,-33.317871 -0.0765,-1.861967 -0.1468,-3.915317 -0.22324,-5.722648 -1.06093,-24.992881 -2.03477,-43.891085 -2.16834,-46.450394 a 3.7915673,3.7915673 0 0 0 -3.63957,-3.397209 c -0.003,-8e-5 -0.0639,-0.0022 -0.0935,-0.0031 -0.0289,-8.94e-4 -0.75076,-0.02113 -0.786,-0.02222 -3.24439,-0.103753 -40.76238,-1.242106 -83.17063,-2.361097 -7.14085,-0.182699 -14.74001,-0.357416 -22.225,-0.540018 -16.01602,-0.391228 -32.35857,-0.753668 -48.90709,-1.085205 -18.82294,-0.376195 -37.78983,-0.743933 -55.01163,-0.944129 -0.0807,-9.27e-4 -0.17157,-0.0032 -0.25218,-0.0041 -12.63832,-0.145493 -24.53694,-0.230864 -35.16995,-0.23151 z"
       transform="matrix(1.0045966,0,0,1.0055806,-0.54040813,-0.85685084)" /></g></svg>
