<?xml version="1.0" encoding="UTF-8" standalone="no"?>
<!-- Created with Inkscape (http://www.inkscape.org/) -->

<svg
   width="210mm"
   height="297mm"
   viewBox="0 0 210 297"
   version="1.1"
   id="svg5"
   inkscape:version="1.2 (1:1.2.1+202207142221+cd75a1ee6d)"
   sodipodi:docname="power_grid.svg"
   inkscape:export-filename="power_grid.png"
   inkscape:export-xdpi="191.715"
   inkscape:export-ydpi="191.715"
   xmlns:inkscape="http://www.inkscape.org/namespaces/inkscape"
   xmlns:sodipodi="http://sodipodi.sourceforge.net/DTD/sodipodi-0.dtd"
   xmlns="http://www.w3.org/2000/svg"
   xmlns:svg="http://www.w3.org/2000/svg">
  <sodipodi:namedview
     id="namedview7"
     pagecolor="#505050"
     bordercolor="#eeeeee"
     borderopacity="1"
     inkscape:showpageshadow="0"
     inkscape:pageopacity="0"
     inkscape:pagecheckerboard="0"
     inkscape:deskcolor="#505050"
     inkscape:document-units="mm"
     showgrid="false"
     showborder="false"
     inkscape:zoom="0.83368312"
     inkscape:cx="1651.7067"
     inkscape:cy="1479.579"
     inkscape:window-width="1864"
     inkscape:window-height="1016"
     inkscape:window-x="56"
     inkscape:window-y="27"
     inkscape:window-maximized="1"
     inkscape:current-layer="layer1">
    <inkscape:grid
       type="xygrid"
       id="grid132"
       color="#dedeff"
       opacity="0.1254902"
       empcolor="#6161ff"
       empopacity="0.25098039"
       spacingx="13.229167"
       spacingy="13.229167"
       empspacing="2" />
  </sodipodi:namedview>
  <defs
     id="defs2" />
  <g
     inkscape:label="Layer 1"
     inkscape:groupmode="layer"
     id="layer1">
    <path
       id="rect450"
       style="fill:#ececec;fill-opacity:0.99542701;stroke:none;stroke-width:0.79375;stroke-linecap:round;stroke-miterlimit:10;stroke-dasharray:none"
       d="m 345.99045,284.16771 c -1.83202,0 -3.30689,1.47505 -3.30689,3.30729 v 36.38021 h -36.37565 c -1.83201,0 -3.30688,1.47506 -3.30688,3.30729 v 125.67709 c 0,1.83223 1.47487,3.30728 3.30688,3.30728 h 36.37565 v 36.3802 c 0,1.83224 1.47487,3.3073 3.30689,3.3073 h 125.66137 c 1.83201,0 3.30688,-1.47506 3.30688,-3.3073 v -36.3802 h 36.37566 c 1.83201,0 3.30688,-1.47505 3.30688,-3.30728 V 327.1625 c 0,-1.83223 -1.47487,-3.30729 -3.30688,-3.30729 H 474.9587 V 287.475 c 0,-1.83224 -1.47487,-3.30729 -3.30688,-3.30729 z m 52.91005,9.92188 h 19.84127 l 6.61375,6.61458 v 19.84375 l -6.61375,6.61458 H 398.9005 l -6.61375,-6.61458 v -19.84375 z m 39.68254,0 h 19.84126 l 6.61377,6.61458 v 19.84375 l -6.61377,6.61458 h -19.84126 l -6.61375,-6.61458 v -19.84375 z m -119.04763,39.68749 h 19.84128 l 6.61376,6.61459 v 19.84374 l -6.61376,6.61459 h -19.84128 l -6.61376,-6.61459 v -19.84374 z m 39.68255,0 h 19.84127 l 6.61375,6.61459 v 19.84374 l -6.61375,6.61459 h -19.84127 l -6.61376,-6.61459 v -19.84374 z m 39.68254,0 h 19.84127 l 6.61375,6.61459 v 19.84374 L 418.74177,366.85 H 398.9005 l -6.61375,-6.61459 v -19.84374 z m 39.68254,0 h 19.84126 l 6.61377,6.61459 v 19.84374 L 458.4243,366.85 h -19.84126 l -6.61375,-6.61459 v -19.84374 z m -119.04763,39.6875 h 19.84128 l 6.61376,6.61459 v 19.84375 l -6.61376,6.61457 h -19.84128 l -6.61376,-6.61457 v -19.84375 z m 39.68255,0 h 19.84127 l 6.61375,6.61459 v 19.84375 l -6.61375,6.61457 h -19.84127 l -6.61376,-6.61457 v -19.84375 z m 79.36508,0 h 19.84126 l 6.61377,6.61459 v 19.84375 l -6.61377,6.61457 h -19.84126 l -6.61375,-6.61457 v -19.84375 z m 39.68254,0 h 19.84127 l 6.61376,6.61459 v 19.84375 l -6.61376,6.61457 h -19.84127 l -6.61376,-6.61457 v -19.84375 z m -119.04762,39.6875 h 19.84127 l 6.61375,6.61458 v 19.84376 l -6.61375,6.61458 h -19.84127 l -6.61376,-6.61458 v -19.84376 z m 39.68254,0 h 19.84127 l 6.61375,6.61458 v 19.84376 l -6.61375,6.61458 H 398.9005 l -6.61375,-6.61458 v -19.84376 z m 39.68254,0 h 19.84126 l 6.61377,6.61458 v 19.84376 l -6.61377,6.61458 h -19.84126 l -6.61375,-6.61458 v -19.84376 z m 39.68254,0 h 19.84127 l 6.61376,6.61458 v 19.84376 l -6.61376,6.61458 h -19.84127 l -6.61376,-6.61458 v -19.84376 z m -119.04762,39.68751 h 19.84127 l 6.61375,6.61457 v 19.84375 l -6.61375,6.61458 h -19.84127 l -6.61376,-6.61458 v -19.84375 z m 39.68254,0 h 19.84127 l 6.61375,6.61457 v 19.84375 l -6.61375,6.61458 H 398.9005 l -6.61375,-6.61458 v -19.84375 z"
       inkscape:export-filename="power_grid.png"
       inkscape:export-xdpi="191.715"
       inkscape:export-ydpi="191.715" />
    <path
       id="rect9620"
       style="opacity:0.5;fill:#ffffff;fill-opacity:0.995427;stroke:none;stroke-width:0.793999;stroke-linecap:round;stroke-miterlimit:10;stroke-dasharray:none"
       d="M 466.08538 -64.211608 L 466.08538 -18.542241 L 471.31399 -13.313624 L 466.08538 -8.0850076 L 466.08538 5.9466426 L 475.99158 -3.9595563 L 485.34528 -3.9588255 L 499.37693 10.072825 L 499.37766 19.426527 L 485.34784 33.456351 L 475.99377 33.455985 L 466.08538 23.547594 L 466.08538 37.577052 L 503.25317 74.744847 L 503.25317 60.715389 L 490.02542 47.487635 L 490.02505 38.133567 L 503.25317 24.905448 L 503.25317 4.5953654 L 490.02213 -8.6356768 L 490.0214 -17.989379 L 503.25354 -31.221518 L 503.25354 -51.523562 L 490.01848 -64.758623 L 490.01811 -74.112692 L 503.25354 -87.348119 L 503.25354 -101.37977 L 466.08538 -64.211608 z "
       transform="rotate(45)" />
    <path
       id="rect9726"
       style="opacity:0.5;fill:#ffffff;fill-opacity:0.995427;stroke:none;stroke-width:0.793999;stroke-linecap:round;stroke-miterlimit:10;stroke-dasharray:none"
       d="M 585.82176 -127.82139 L 585.82176 -57.66314 L 588.23418 -60.07556 L 597.58825 -60.075195 L 611.6199 -46.043545 L 611.62027 -36.689477 L 597.59044 -22.659653 L 588.23674 -22.660384 L 585.82176 -25.075363 L 585.82176 -1.5365388 L 588.23784 -3.9526135 L 597.59154 -3.9518827 L 611.62319 10.079767 L 611.62392 19.43347 L 597.5941 33.463293 L 588.24003 33.462928 L 585.82176 31.044661 L 585.82176 54.590062 L 588.24112 52.170699 L 597.59519 52.171064 L 611.62684 66.202714 L 611.62721 75.556782 L 597.59738 89.586605 L 588.24368 89.585875 L 585.82176 87.163953 L 585.82176 101.19414 L 590.58302 105.9554 C 591.87861 107.25099 593.96444 107.2512 595.25987 105.95577 L 622.98992 78.225719 L 622.98992 61.526594 L 616.30333 61.526228 L 602.27168 47.494578 L 602.27131 38.14051 L 616.30114 24.110687 L 622.98992 24.111052 L 622.98992 5.403647 L 616.30004 5.4029161 L 602.26839 -8.6287341 L 602.26766 -17.982437 L 616.29748 -32.01226 L 622.98992 -32.011894 L 622.98992 -50.7193 L 616.29639 -50.720031 L 602.26474 -64.751681 L 602.264 -74.105383 L 616.29419 -88.135572 L 622.98992 -88.134841 L 622.98992 -104.823 L 595.24526 -132.56767 C 593.94968 -133.86325 591.86346 -133.86309 590.56804 -132.56767 L 585.82176 -127.82139 z "
       transform="rotate(45)" />
    <path
       id="rect9728"
       style="opacity:0.5;fill:#ffffff;fill-opacity:0.995427;stroke:none;stroke-width:0.793999;stroke-linecap:round;stroke-miterlimit:10;stroke-dasharray:none"
       d="M 636.20781 -91.605117 L 636.20781 -77.574928 L 639.67955 -74.103191 L 639.68028 -64.749488 L 636.20781 -61.27702 L 636.20781 -51.922587 L 644.35749 -60.072272 L 645.44056 -60.072272 L 645.4402 -82.372729 L 636.20781 -91.605117 z M 636.20781 -30.808607 L 636.20781 -21.455636 L 639.6832 -17.980244 L 639.68357 -8.6261762 L 636.20781 -5.1504195 L 636.20781 34.664388 L 639.68649 38.143068 L 639.68722 47.49677 L 636.20781 50.976181 L 636.20781 65.007831 L 645.44056 55.775079 L 645.44056 -22.65673 L 644.35969 -22.65673 L 636.20781 -30.808607 z "
       transform="rotate(45)" />
    <path
       id="rect9782"
       style="opacity:0.5;fill:#ffffff;fill-opacity:0.995427;stroke:none;stroke-width:0.793999;stroke-linecap:round;stroke-miterlimit:10;stroke-dasharray:none"
       d="M 445.58894 -43.715168 C 445.50847 -43.634699 445.44857 -43.543014 445.3781 -43.456825 L 445.3781 -39.297025 C 445.44862 -39.210756 445.50876 -39.118857 445.5893 -39.038316 L 454.61048 -30.017135 L 454.61048 -52.736715 L 445.58894 -43.715168 z M 445.59259 12.407779 C 445.51081 12.489561 445.44955 12.582821 445.3781 12.670507 L 445.3781 16.822268 C 445.44956 16.909955 445.51117 17.002844 445.59296 17.08463 L 454.61048 26.102158 L 454.61048 3.3898859 L 445.59259 12.407779 z "
       transform="rotate(45)" />
    <path
       id="rect9784"
       style="opacity:0.5;fill:#ffffff;fill-opacity:0.995427;stroke:none;stroke-width:0.793999;stroke-linecap:round;stroke-miterlimit:10;stroke-dasharray:none"
       d="M 524.61563 -122.74186 L 524.61563 -108.71021 L 529.44559 -113.54017 L 529.44559 -127.57182 L 524.61563 -122.74186 z M 524.61563 -86.281494 L 524.61563 -76.927791 L 527.43329 -74.110134 L 527.43402 -64.756431 L 524.61563 -61.938043 L 524.61563 -52.583609 L 529.44559 -57.413566 L 529.44559 -81.451537 L 524.61563 -86.281494 z M 524.61563 -30.161471 L 524.61563 -20.808499 L 527.43694 -17.987187 L 527.43731 -8.6331189 L 524.61563 -5.8114418 L 524.61563 3.5429917 L 529.44559 -1.2869654 L 529.44559 -25.331513 L 524.61563 -30.161471 z M 524.61563 25.957822 L 524.61563 35.311525 L 527.44023 38.136125 L 527.44096 47.489828 L 524.61563 50.315159 L 524.61563 96.107303 L 529.44559 100.93726 L 529.44559 30.787779 L 524.61563 25.957822 z "
       transform="rotate(45)" />
    <path
       id="path9549"
       style="fill:#ac9393;fill-opacity:0.99542701;stroke:none;stroke-width:0.79375;stroke-linecap:round;stroke-miterlimit:10;stroke-dasharray:none"
       d="M 345.99025 284.16767 C 344.15823 284.16767 342.68348 285.64272 342.68348 287.47496 L 342.68348 323.85517 L 306.30792 323.85517 C 304.47591 323.85517 303.00114 325.33023 303.00114 327.16246 L 303.00114 452.83954 C 303.00114 454.67177 304.47591 456.14683 306.30792 456.14683 L 342.68348 456.14683 L 342.68348 492.52704 C 342.68348 494.35928 344.15823 495.83433 345.99025 495.83433 L 471.65183 495.83433 C 473.48384 495.83433 474.95861 494.35928 474.95861 492.52704 L 474.95861 456.14683 L 511.33416 456.14683 C 513.16617 456.14683 514.64146 454.67177 514.64146 452.83954 L 514.64146 327.16246 C 514.64146 325.33023 513.16617 323.85517 511.33416 323.85517 L 474.95861 323.85517 L 474.95861 287.47496 C 474.95861 285.64272 473.48384 284.16767 471.65183 284.16767 L 345.99025 284.16767 z M 349.16525 287.34267 L 468.47683 287.34267 C 470.30884 287.34267 471.78361 288.81772 471.78361 290.64996 L 471.78361 327.03017 L 508.15916 327.03017 C 509.99117 327.03017 511.46646 328.50523 511.46646 330.33746 L 511.46646 449.66454 C 511.46646 451.49677 509.99117 452.97183 508.15916 452.97183 L 471.78361 452.97183 L 471.78361 489.35204 C 471.78361 491.18428 470.30884 492.65933 468.47683 492.65933 L 349.16525 492.65933 C 347.33323 492.65933 345.85848 491.18428 345.85848 489.35204 L 345.85848 452.97183 L 309.48292 452.97183 C 307.65091 452.97183 306.17614 451.49677 306.17614 449.66454 L 306.17614 330.33746 C 306.17614 328.50523 307.65091 327.03017 309.48292 327.03017 L 345.85848 327.03017 L 345.85848 290.64996 C 345.85848 288.81772 347.33323 287.34267 349.16525 287.34267 z " />
  </g>
</svg>
