<?xml version="1.0" encoding="UTF-8" standalone="no"?>
<!-- Created with Inkscape (http://www.inkscape.org/) -->

<svg
   width="210mm"
   height="297mm"
   viewBox="0 0 210 297"
   version="1.1"
   id="svg5"
   inkscape:version="1.2 (1:1.2.1+202207142221+cd75a1ee6d)"
   sodipodi:docname="power_grid.svg"
   xmlns:inkscape="http://www.inkscape.org/namespaces/inkscape"
   xmlns:sodipodi="http://sodipodi.sourceforge.net/DTD/sodipodi-0.dtd"
   xmlns="http://www.w3.org/2000/svg"
   xmlns:svg="http://www.w3.org/2000/svg">
  <sodipodi:namedview
     id="namedview7"
     pagecolor="#505050"
     bordercolor="#eeeeee"
     borderopacity="1"
     inkscape:showpageshadow="0"
     inkscape:pageopacity="0"
     inkscape:pagecheckerboard="0"
     inkscape:deskcolor="#505050"
     inkscape:document-units="mm"
     showgrid="false"
     showborder="false"
     inkscape:zoom="1.0708779"
     inkscape:cx="1566.9387"
     inkscape:cy="1521.6487"
     inkscape:window-width="1864"
     inkscape:window-height="1016"
     inkscape:window-x="56"
     inkscape:window-y="27"
     inkscape:window-maximized="1"
     inkscape:current-layer="layer1">
    <inkscape:grid
       type="xygrid"
       id="grid132"
       color="#dedeff"
       opacity="0.1254902"
       empcolor="#6161ff"
       empopacity="0.25098039"
       spacingx="13.229167"
       spacingy="13.229167"
       empspacing="2" />
  </sodipodi:namedview>
  <defs
     id="defs2" />
  <g
     inkscape:label="Layer 1"
     inkscape:groupmode="layer"
     id="layer1">
    <path
       id="rect450"
       style="fill:#ffffff;fill-opacity:0.99542701;stroke:none;stroke-width:0.79375;stroke-linecap:round;stroke-miterlimit:10;stroke-dasharray:none"
       d="m 345.99045,284.16771 c -1.83202,0 -3.30689,1.47505 -3.30689,3.30729 v 36.38021 h -36.37565 c -1.83201,0 -3.30688,1.47506 -3.30688,3.30729 v 125.67709 c 0,1.83223 1.47487,3.30728 3.30688,3.30728 h 36.37565 v 36.3802 c 0,1.83224 1.47487,3.3073 3.30689,3.3073 h 125.66137 c 1.83201,0 3.30688,-1.47506 3.30688,-3.3073 v -36.3802 h 36.37566 c 1.83201,0 3.30688,-1.47505 3.30688,-3.30728 V 327.1625 c 0,-1.83223 -1.47487,-3.30729 -3.30688,-3.30729 H 474.9587 V 287.475 c 0,-1.83224 -1.47487,-3.30729 -3.30688,-3.30729 z m 52.91005,9.92188 h 19.84127 l 6.61375,6.61458 v 19.84375 l -6.61375,6.61458 H 398.9005 l -6.61375,-6.61458 v -19.84375 z m 39.68254,0 h 19.84126 l 6.61377,6.61458 v 19.84375 l -6.61377,6.61458 h -19.84126 l -6.61375,-6.61458 v -19.84375 z m -119.04763,39.68749 h 19.84128 l 6.61376,6.61459 v 19.84374 l -6.61376,6.61459 h -19.84128 l -6.61376,-6.61459 v -19.84374 z m 39.68255,0 h 19.84127 l 6.61375,6.61459 v 19.84374 l -6.61375,6.61459 h -19.84127 l -6.61376,-6.61459 v -19.84374 z m 39.68254,0 h 19.84127 l 6.61375,6.61459 v 19.84374 L 418.74177,366.85 H 398.9005 l -6.61375,-6.61459 v -19.84374 z m 39.68254,0 h 19.84126 l 6.61377,6.61459 v 19.84374 L 458.4243,366.85 h -19.84126 l -6.61375,-6.61459 v -19.84374 z m -119.04763,39.6875 h 19.84128 l 6.61376,6.61459 v 19.84375 l -6.61376,6.61457 h -19.84128 l -6.61376,-6.61457 v -19.84375 z m 39.68255,0 h 19.84127 l 6.61375,6.61459 v 19.84375 l -6.61375,6.61457 h -19.84127 l -6.61376,-6.61457 v -19.84375 z m 79.36508,0 h 19.84126 l 6.61377,6.61459 v 19.84375 l -6.61377,6.61457 h -19.84126 l -6.61375,-6.61457 v -19.84375 z m 39.68254,0 h 19.84127 l 6.61376,6.61459 v 19.84375 l -6.61376,6.61457 h -19.84127 l -6.61376,-6.61457 v -19.84375 z m -119.04762,39.6875 h 19.84127 l 6.61375,6.61458 v 19.84376 l -6.61375,6.61458 h -19.84127 l -6.61376,-6.61458 v -19.84376 z m 39.68254,0 h 19.84127 l 6.61375,6.61458 v 19.84376 l -6.61375,6.61458 H 398.9005 l -6.61375,-6.61458 v -19.84376 z m 39.68254,0 h 19.84126 l 6.61377,6.61458 v 19.84376 l -6.61377,6.61458 h -19.84126 l -6.61375,-6.61458 v -19.84376 z m 39.68254,0 h 19.84127 l 6.61376,6.61458 v 19.84376 l -6.61376,6.61458 h -19.84127 l -6.61376,-6.61458 v -19.84376 z m -119.04762,39.68751 h 19.84127 l 6.61375,6.61457 v 19.84375 l -6.61375,6.61458 h -19.84127 l -6.61376,-6.61458 v -19.84375 z m 39.68254,0 h 19.84127 l 6.61375,6.61457 v 19.84375 l -6.61375,6.61458 H 398.9005 l -6.61375,-6.61458 v -19.84375 z"
       inkscape:export-filename="power_grid.png"
       inkscape:export-xdpi="191.715"
       inkscape:export-ydpi="191.715" />
  </g>
</svg>
