<?xml version="1.0" encoding="UTF-8" standalone="no"?>
<!-- Created with Inkscape (http://www.inkscape.org/) -->

<svg
   width="210mm"
   height="297mm"
   viewBox="0 0 210 297"
   version="1.1"
   id="svg5"
   inkscape:version="1.2 (1:1.2.1+202207142221+cd75a1ee6d)"
   sodipodi:docname="power_grid.svg"
   inkscape:export-filename="power_grid.png"
   inkscape:export-xdpi="191.715"
   inkscape:export-ydpi="191.715"
   xmlns:inkscape="http://www.inkscape.org/namespaces/inkscape"
   xmlns:sodipodi="http://sodipodi.sourceforge.net/DTD/sodipodi-0.dtd"
   xmlns="http://www.w3.org/2000/svg"
   xmlns:svg="http://www.w3.org/2000/svg">
  <sodipodi:namedview
     id="namedview7"
     pagecolor="#505050"
     bordercolor="#eeeeee"
     borderopacity="1"
     inkscape:showpageshadow="0"
     inkscape:pageopacity="0"
     inkscape:pagecheckerboard="0"
     inkscape:deskcolor="#505050"
     inkscape:document-units="mm"
     showgrid="true"
     showborder="false"
     inkscape:zoom="0.43662097"
     inkscape:cx="1370.7541"
     inkscape:cy="1363.8832"
     inkscape:window-width="1864"
     inkscape:window-height="1016"
     inkscape:window-x="56"
     inkscape:window-y="27"
     inkscape:window-maximized="1"
     inkscape:current-layer="layer1">
    <inkscape:grid
       type="xygrid"
       id="grid132"
       color="#dedeff"
       opacity="0.1254902"
       empcolor="#6161ff"
       empopacity="0.25098039"
       spacingx="13.229167"
       spacingy="13.229167"
       empspacing="2" />
  </sodipodi:namedview>
  <defs
     id="defs2" />
  <g
     inkscape:label="Layer 1"
     inkscape:groupmode="layer"
     id="layer1">
    <path
       id="rect450"
       style="fill:#ececec;fill-opacity:0.995427;stroke:none;stroke-width:0.79375;stroke-linecap:round;stroke-miterlimit:10;stroke-dasharray:none"
       d="M 294.34844 264.58333 C 292.51642 264.58333 291.04167 266.05839 291.04167 267.89062 L 291.04167 304.27083 L 254.66611 304.27083 C 252.8341 304.27083 251.35933 305.7459 251.35933 307.57812 L 251.35933 433.25521 C 251.35933 435.08744 252.8341 436.5625 254.66611 436.5625 L 291.04167 436.5625 L 291.04167 472.94271 C 291.04167 474.77495 292.51642 476.25 294.34844 476.25 L 499.40156 476.25 C 501.23357 476.25 502.70833 474.77495 502.70833 472.94271 L 502.70833 436.5625 L 539.08389 436.5625 C 540.9159 436.5625 542.39067 435.08744 542.39067 433.25521 L 542.39067 307.57812 C 542.39067 305.7459 540.9159 304.27083 539.08389 304.27083 L 502.70833 304.27083 L 502.70833 267.89062 C 502.70833 266.05839 501.23357 264.58333 499.40156 264.58333 L 294.34844 264.58333 z M 307.57968 274.50521 L 327.42084 274.50521 L 334.03439 281.11979 L 334.03439 300.96354 L 327.42084 307.57812 L 307.57968 307.57812 L 300.96561 300.96354 L 300.96561 281.11979 L 307.57968 274.50521 z M 386.95416 274.50521 L 406.79584 274.50521 L 413.40939 281.11979 L 413.40939 300.96354 L 406.79584 307.57812 L 386.95416 307.57812 L 380.34061 300.96354 L 380.34061 281.11979 L 386.95416 274.50521 z M 426.63701 274.50521 L 426.64218 274.50521 L 446.47817 274.50521 L 446.48334 274.50521 L 453.09689 281.11979 L 453.09689 300.96354 L 446.48334 307.57812 L 446.47817 307.57812 L 426.64218 307.57812 L 426.63701 307.57812 L 420.02294 300.96354 L 420.02294 281.11979 L 426.63701 274.50521 z M 466.32968 274.50521 L 486.17084 274.50521 L 492.78439 281.11979 L 492.78439 300.96354 L 486.17084 307.57812 L 466.32968 307.57812 L 459.71561 300.96354 L 459.71561 281.11979 L 466.32968 274.50521 z M 267.89218 314.19271 L 287.73334 314.19271 L 294.34689 320.80729 L 294.34689 340.65104 L 287.73334 347.26562 L 267.89218 347.26562 L 261.27811 340.65104 L 261.27811 320.80729 L 267.89218 314.19271 z M 307.57968 314.19271 L 307.58949 314.19271 L 327.42084 314.19271 L 327.43066 314.19271 L 334.04421 320.80729 L 334.04421 340.65104 L 327.43066 347.26562 L 327.42084 347.26562 L 307.58949 347.26562 L 307.57968 347.26562 L 300.96561 340.65104 L 300.96561 320.80729 L 307.57968 314.19271 z M 347.27183 314.19271 L 367.11299 314.19271 L 373.72706 320.80729 L 373.72706 340.65104 L 367.11299 347.26562 L 347.27183 347.26562 L 340.65828 340.65104 L 340.65828 320.80729 L 347.27183 314.19271 z M 386.95416 314.19271 L 406.79584 314.19271 L 413.40939 320.80729 L 413.40939 340.65104 L 406.79584 347.26562 L 386.95416 347.26562 L 380.34061 340.65104 L 380.34061 320.80729 L 386.95416 314.19271 z M 426.63701 314.19271 L 446.47817 314.19271 L 453.09172 320.80729 L 453.09172 340.65104 L 446.47817 347.26562 L 426.63701 347.26562 L 420.02294 340.65104 L 420.02294 320.80729 L 426.63701 314.19271 z M 506.01718 314.19271 L 525.85834 314.19271 L 532.47189 320.80729 L 532.47189 340.65104 L 525.85834 347.26562 L 506.01718 347.26562 L 499.40311 340.65104 L 499.40311 320.80729 L 506.01718 314.19271 z M 267.89218 353.88021 L 287.73334 353.88021 L 294.34689 360.49479 L 294.34689 380.33854 L 287.73334 386.95312 L 267.89218 386.95312 L 261.27811 380.33854 L 261.27811 360.49479 L 267.89218 353.88021 z M 307.57968 353.88021 L 307.58949 353.88021 L 327.42084 353.88021 L 327.43066 353.88021 L 334.04421 360.49479 L 334.04421 380.33854 L 327.43066 386.95312 L 327.42084 386.95312 L 307.58949 386.95312 L 307.57968 386.95312 L 300.96561 380.33854 L 300.96561 360.49479 L 307.57968 353.88021 z M 347.26718 353.88021 L 347.27183 353.88021 L 367.10834 353.88021 L 367.11299 353.88021 L 373.72706 360.49479 L 373.72706 380.33854 L 367.11299 386.95312 L 367.10834 386.95312 L 347.27183 386.95312 L 347.26718 386.95312 L 340.65311 380.33854 L 340.65311 360.49479 L 347.26718 353.88021 z M 426.63701 353.88021 L 446.47817 353.88021 L 453.09172 360.49479 L 453.09172 380.33854 L 446.47817 386.95312 L 426.63701 386.95312 L 420.02294 380.33854 L 420.02294 360.49479 L 426.63701 353.88021 z M 466.31934 353.88021 L 466.32968 353.88021 L 486.16051 353.88021 L 486.17084 353.88021 L 492.78439 360.49479 L 492.78439 380.33854 L 486.17084 386.95312 L 486.16051 386.95312 L 466.32968 386.95312 L 466.31934 386.95312 L 459.70579 380.33854 L 459.70579 360.49479 L 466.31934 353.88021 z M 506.01718 353.88021 L 525.85834 353.88021 L 532.47189 360.49479 L 532.47189 380.33854 L 525.85834 386.95312 L 506.01718 386.95312 L 499.40311 380.33854 L 499.40311 360.49479 L 506.01718 353.88021 z M 267.89218 393.56771 L 287.73334 393.56771 L 294.34689 400.18229 L 294.34689 420.02604 L 287.73334 426.64062 L 267.89218 426.64062 L 261.27811 420.02604 L 261.27811 400.18229 L 267.89218 393.56771 z M 347.26718 393.56771 L 347.27183 393.56771 L 367.10834 393.56771 L 367.11299 393.56771 L 373.72706 400.18229 L 373.72706 420.02604 L 367.11299 426.64062 L 367.10834 426.64062 L 347.27183 426.64062 L 347.26718 426.64062 L 340.65311 420.02604 L 340.65311 400.18229 L 347.26718 393.56771 z M 386.95416 393.56771 L 406.79584 393.56771 L 413.40939 400.18229 L 413.40939 420.02604 L 406.79584 426.64062 L 386.95416 426.64062 L 380.34061 420.02604 L 380.34061 400.18229 L 386.95416 393.56771 z M 426.63701 393.56771 L 446.47817 393.56771 L 453.09172 400.18229 L 453.09172 420.02604 L 446.47817 426.64062 L 426.63701 426.64062 L 420.02294 420.02604 L 420.02294 400.18229 L 426.63701 393.56771 z M 466.31934 393.56771 L 466.32968 393.56771 L 486.16051 393.56771 L 486.17084 393.56771 L 492.78439 400.18229 L 492.78439 420.02604 L 486.17084 426.64062 L 486.16051 426.64062 L 466.32968 426.64062 L 466.31934 426.64062 L 459.70579 420.02604 L 459.70579 400.18229 L 466.31934 393.56771 z M 506.01718 393.56771 L 525.85834 393.56771 L 532.47189 400.18229 L 532.47189 420.02604 L 525.85834 426.64062 L 506.01718 426.64062 L 499.40311 420.02604 L 499.40311 400.18229 L 506.01718 393.56771 z M 307.57968 433.25521 L 327.42084 433.25521 L 334.03439 439.86979 L 334.03439 459.71354 L 327.42084 466.32812 L 307.57968 466.32812 L 300.96561 459.71354 L 300.96561 439.86979 L 307.57968 433.25521 z M 347.26718 433.25521 L 347.27183 433.25521 L 367.10834 433.25521 L 367.11299 433.25521 L 373.72706 439.86979 L 373.72706 459.71354 L 367.11299 466.32812 L 367.10834 466.32812 L 347.27183 466.32812 L 347.26718 466.32812 L 340.65311 459.71354 L 340.65311 439.86979 L 347.26718 433.25521 z M 386.95416 433.25521 L 406.79584 433.25521 L 413.40939 439.86979 L 413.40939 459.71354 L 406.79584 466.32812 L 386.95416 466.32812 L 380.34061 459.71354 L 380.34061 439.86979 L 386.95416 433.25521 z M 466.32968 433.25521 L 486.17084 433.25521 L 492.78439 439.86979 L 492.78439 459.71354 L 486.17084 466.32812 L 466.32968 466.32812 L 459.71561 459.71354 L 459.71561 439.86979 L 466.32968 433.25521 z "
       inkscape:export-filename="power_grid.png"
       inkscape:export-xdpi="191.715"
       inkscape:export-ydpi="191.715" />
    <path
       style="fill:#ebebeb;fill-opacity:1;stroke:#c8b7b7;stroke-width:1;stroke-linecap:butt;stroke-linejoin:miter;stroke-dasharray:none;stroke-opacity:1"
       d="m 181.95199,366.85 -6.61395,-6.61464 1.9e-4,-19.84369 6.61376,-6.61459 19.84129,-5e-5 6.61373,6.61464 v 19.84375 l -6.61373,6.61453 z"
       id="path934"
       inkscape:export-filename="./rototile.png"
       inkscape:export-xdpi="191.715"
       inkscape:export-ydpi="191.715" />
    <path
       id="rect385"
       style="opacity:0.5;fill:#ffffff;stroke-width:1;stroke-linecap:round;stroke-miterlimit:10"
       d="M 397.89119 -23.713854 L 397.89119 -13.70388 L 420.94951 9.3544335 L 397.89119 32.412747 L 397.89119 42.415413 L 444.00782 88.532039 L 444.00782 74.504774 L 439.65983 70.156789 L 439.65947 60.802721 L 444.00782 56.454371 L 444.00782 47.099938 L 434.98225 56.125505 L 425.62818 56.125139 L 411.59653 42.093489 L 411.59617 32.739421 L 425.62599 18.709598 L 434.97969 18.710329 L 444.00782 27.738453 L 444.00782 18.378173 L 439.65983 14.030189 L 439.65947 4.6761205 L 439.66641 4.6691778 L 444.00782 0.32777058 L 444.00782 -9.0266629 L 434.98225 -0.0010962227 L 425.62818 -0.0014616302 L 411.59653 -14.033112 L 411.59617 -23.38718 L 425.62599 -37.417003 L 434.97969 -37.416272 L 444.00782 -28.388148 L 444.00782 -69.83048 L 397.89119 -23.713854 z M 472.72666 -98.549322 L 472.72666 -84.517672 L 481.75259 -93.543604 L 483.62567 -93.543604 L 483.62567 -109.44833 L 472.72666 -98.549322 z M 510.89713 -136.7198 L 510.89677 -121.6069 L 516.15023 -121.60654 L 516.15023 -141.97289 L 510.89713 -136.7198 z M 522.12245 -147.94512 L 522.12245 -118.65331 L 525.57409 -115.20168 L 525.57409 -124.56196 L 523.84974 -126.28631 L 523.84937 -135.64038 L 525.57409 -137.36511 L 525.57409 -151.39676 L 522.12245 -147.94512 z M 556.91656 -154.02038 L 556.91656 -139.98581 L 561.26455 -135.63782 L 561.26528 -126.28412 L 556.91656 -121.93541 L 556.91656 -83.851899 L 561.26089 -79.507569 L 561.26162 -70.153866 L 556.91656 -65.808805 L 556.91656 -56.454371 L 565.93884 -65.476649 L 575.29254 -65.475919 L 589.32419 -51.444268 L 589.32492 -42.090566 L 575.2951 -28.060743 L 565.94103 -28.061108 L 556.91656 -37.085578 L 556.91656 -0.32777058 L 565.94249 -9.3537026 L 575.2962 -9.3529718 L 589.32785 4.6786784 L 589.32858 14.032381 L 575.29839 28.06257 L 565.94469 28.061839 L 556.91656 19.033714 L 556.91656 28.386686 L 561.2682 32.738325 L 561.26857 42.092393 L 561.26528 42.095681 L 556.91656 46.444397 L 556.91656 55.79883 L 565.94249 46.772898 L 565.94578 46.769609 L 575.29985 46.769975 L 589.3315 60.801625 L 589.33187 70.155693 L 589.32858 70.158982 L 575.30204 84.185516 L 575.29875 84.188805 L 565.94469 84.18844 L 556.91656 75.160315 L 556.91656 84.520595 L 561.26455 88.868579 L 561.26528 98.222282 L 556.91656 102.571 L 556.91656 116.60265 L 603.03319 70.486022 L 603.03319 56.125505 L 594.00799 56.125139 L 579.97634 42.093489 L 579.97561 32.739786 L 594.00579 18.709598 L 603.03319 18.709963 L 603.03319 0.0025578529 L 594.00433 0.0021924453 L 579.97268 -14.029458 L 579.97232 -23.383526 L 594.00214 -37.413349 L 603.03319 -37.412984 L 603.03319 -56.120389 L 594.00104 -56.12112 L 579.96939 -70.15277 L 579.96866 -79.506472 L 579.97597 -79.513781 L 593.99849 -93.536296 L 594.00579 -93.543604 L 603.03319 -93.543238 L 603.03319 -112.2543 L 594.00799 -112.25466 L 579.97634 -126.28631 L 579.97597 -135.64038 L 594.00579 -149.6702 L 603.03319 -149.66984 L 603.03319 -164.02305 L 601.0187 -166.03754 C 599.72312 -167.33311 597.63727 -167.33333 596.34184 -166.03791 L 570.62044 -140.3165 L 556.91656 -154.02038 z M 472.72666 -65.156187 L 472.72666 -28.391071 L 481.75588 -37.420292 L 483.62567 -37.419926 L 483.62567 -56.128062 L 481.75478 -56.128062 L 472.72666 -65.156187 z M 510.89677 -84.187709 L 510.89677 -65.480303 L 516.15023 -65.479938 L 516.15023 -84.187343 L 510.89677 -84.187709 z M 522.12245 -87.141298 L 522.12245 -62.526714 L 525.57409 -59.075074 L 525.57409 -68.428046 L 523.84608 -70.156059 L 523.84572 -79.510127 L 525.57409 -81.238504 L 525.57409 -90.592938 L 522.12245 -87.141298 z M 472.72666 -9.0368943 L 472.72666 0.31680835 L 477.08159 4.6717356 L 477.08232 14.025438 L 477.07538 14.032381 L 472.72666 18.381096 L 472.72666 27.73553 L 481.75259 18.709598 L 481.75954 18.702655 L 483.62567 18.70302 L 483.62567 -0.0051157058 L 481.75844 -0.0051157058 L 472.72666 -9.0368943 z M 510.89677 -28.064762 L 510.89713 -9.3569913 L 516.14987 -9.3566259 L 516.15023 -28.064397 L 510.89677 -28.064762 z M 625.02122 -142.03501 L 625.02122 -121.60654 L 628.47286 -121.60654 L 628.47286 -138.58337 L 625.02122 -142.03501 z M 522.12245 -31.014697 L 522.12245 -6.4074215 L 525.57409 -2.9557817 L 525.57409 -34.466337 L 522.12245 -31.014697 z M 472.72666 47.097015 L 472.72666 56.457295 L 477.07464 60.805279 L 477.07538 70.158982 L 472.72666 74.507697 L 472.72666 83.862131 L 481.75259 74.836198 L 483.62567 74.836198 L 483.62567 56.125139 L 481.75478 56.125139 L 472.72666 47.097015 z M 510.89677 28.061839 L 510.89677 106.49584 L 514.49384 102.89877 L 516.14987 104.5548 L 516.15023 28.062204 L 510.89677 28.061839 z M 625.02122 -84.190997 L 625.02122 -65.479938 L 628.47286 -65.479938 L 628.47286 -84.190997 L 625.02122 -84.190997 z M 522.12245 25.111904 L 522.12245 110.52738 L 525.57409 113.97902 L 525.57409 99.944448 L 523.84974 98.22009 L 523.84937 88.866022 L 525.57409 87.141298 L 525.57409 43.817847 L 523.84974 42.093489 L 523.84937 32.739421 L 523.85266 32.736132 L 525.57409 31.014697 L 525.57409 21.660264 L 522.12245 25.111904 z M 658.71545 -108.34078 L 658.71545 -93.543238 L 659.4861 -93.542873 L 669.6141 -83.414872 L 669.6141 -97.442137 L 658.71545 -108.34078 z M 472.72666 103.22362 L 472.72666 117.25088 L 483.62567 128.14989 L 483.62567 112.25174 L 481.75478 112.25174 L 472.72666 103.22362 z M 625.02122 -28.057819 L 625.02122 48.497987 L 628.47286 45.046347 L 628.47286 -28.057088 L 625.02122 -28.057819 z M 658.71545 -56.127697 L 658.71545 -37.416638 L 659.4861 -37.416272 L 669.6141 -27.288271 L 669.6141 -41.322844 L 664.16478 -46.772167 L 669.6141 -52.22149 L 669.6141 -66.25314 L 659.48866 -56.127697 L 658.71545 -56.127697 z M 658.71545 -0.0010962227 L 658.71545 14.803756 L 669.6141 3.9051106 L 669.6141 -10.12654 L 659.48866 -0.0010962227 L 658.71545 -0.0010962227 z "
       transform="rotate(45)" />
    <path
       id="path9549"
       style="fill:#c8b7b7;fill-opacity:0.995427;stroke:none;stroke-width:0.79375;stroke-linecap:round;stroke-miterlimit:10;stroke-dasharray:none"
       d="m 294.34886,264.58335 c -1.83225,0 -3.30719,1.47505 -3.30719,3.30729 v 36.38021 h -36.38008 c -1.83224,0 -3.3072,1.47506 -3.3072,3.30729 v 125.67708 c 0,1.83223 1.47496,3.30729 3.3072,3.30729 h 36.38008 v 36.38021 c 0,1.83224 1.47494,3.30729 3.30719,3.30729 l 205.0523,0 c 1.83224,0 3.30719,-1.47505 3.30719,-3.30729 v -36.38021 h 36.38008 c 1.83224,0 3.30771,-1.47506 3.30771,-3.30729 V 307.57814 c 0,-1.83223 -1.47547,-3.30729 -3.30771,-3.30729 h -36.38008 v -36.38021 c 0,-1.83224 -1.47495,-3.30729 -3.30719,-3.30729 z m 3.17539,3.175 198.70152,0 c 1.83223,0 3.30719,1.47505 3.30719,3.30729 v 36.38021 h 36.38008 c 1.83223,0 3.30771,1.47506 3.30771,3.30729 v 119.32708 c 0,1.83223 -1.47548,3.30729 -3.30771,3.30729 h -36.38008 v 36.38021 c 0,1.83224 -1.47496,3.30729 -3.30719,3.30729 l -198.70152,0 c -1.83225,0 -3.30718,-1.47505 -3.30718,-3.30729 v -36.38021 h -36.38009 c -1.83224,0 -3.30719,-1.47506 -3.30719,-3.30729 V 310.75314 c 0,-1.83223 1.47495,-3.30729 3.30719,-3.30729 h 36.38009 v -36.38021 c 0,-1.83224 1.47493,-3.30729 3.30718,-3.30729 z"
       sodipodi:nodetypes="sscsssscsssscsssscsssssscsssscsssscsssscss" />
  </g>
</svg>
