<?xml version="1.0" encoding="UTF-8" standalone="no"?>
<!-- Created with Inkscape (http://www.inkscape.org/) -->

<svg
   xmlns:dc="http://purl.org/dc/elements/1.1/"
   xmlns:cc="http://creativecommons.org/ns#"
   xmlns:rdf="http://www.w3.org/1999/02/22-rdf-syntax-ns#"
   xmlns:svg="http://www.w3.org/2000/svg"
   xmlns="http://www.w3.org/2000/svg"
   xmlns:xlink="http://www.w3.org/1999/xlink"
   xmlns:sodipodi="http://sodipodi.sourceforge.net/DTD/sodipodi-0.dtd"
   xmlns:inkscape="http://www.inkscape.org/namespaces/inkscape"
   width="210mm"
   height="297mm"
   viewBox="0 0 210 297"
   version="1.1"
   id="svg8"
   inkscape:version="0.92.3 (unknown)"
   sodipodi:docname="ships.svg">
  <defs
     id="defs2">
    <filter
       inkscape:collect="always"
       style="color-interpolation-filters:sRGB"
       id="filter1447"
       x="-0.34941487"
       width="1.6988297"
       y="-0.3712465"
       height="1.742493">
      <feGaussianBlur
         inkscape:collect="always"
         stdDeviation="2.1282216"
         id="feGaussianBlur1449" />
    </filter>
    <filter
       inkscape:collect="always"
       style="color-interpolation-filters:sRGB"
       id="filter1451"
       x="-0.38999979"
       width="1.7799996"
       y="-0.33428587"
       height="1.6685717">
      <feGaussianBlur
         inkscape:collect="always"
         stdDeviation="2.06375"
         id="feGaussianBlur1453" />
    </filter>
    <filter
       inkscape:collect="always"
       style="color-interpolation-filters:sRGB"
       id="filter1459"
       x="-0.40829407"
       width="1.8165881"
       y="-0.32192221"
       height="1.6438444">
      <feGaussianBlur
         inkscape:collect="always"
         stdDeviation="1.8454633"
         id="feGaussianBlur1461" />
    </filter>
    <filter
       inkscape:collect="always"
       style="color-interpolation-filters:sRGB"
       id="filter2436"
       x="-0.11017687"
       width="1.2203537"
       y="-0.085055579"
       height="1.1701112">
      <feGaussianBlur
         inkscape:collect="always"
         stdDeviation="1.9404686"
         id="feGaussianBlur2438" />
    </filter>
    <filter
       inkscape:collect="always"
       style="color-interpolation-filters:sRGB"
       id="filter2485"
       x="-0.10897373"
       width="1.2179475"
       y="-0.085786767"
       height="1.1715735">
      <feGaussianBlur
         inkscape:collect="always"
         stdDeviation="1.8229688"
         id="feGaussianBlur2487" />
    </filter>
    <filter
       inkscape:collect="always"
       style="color-interpolation-filters:sRGB"
       id="filter2515"
       x="-0.092687088"
       width="1.1853742"
       y="-0.099558517"
       height="1.199117">
      <feGaussianBlur
         inkscape:collect="always"
         stdDeviation="2.0796447"
         id="feGaussianBlur2517" />
    </filter>
    <filter
       inkscape:collect="always"
       style="color-interpolation-filters:sRGB"
       id="filter3430"
       x="-0.64999964"
       width="2.2999993"
       y="-0.55714312"
       height="2.1142862">
      <feGaussianBlur
         inkscape:collect="always"
         stdDeviation="3.4395834"
         id="feGaussianBlur3432" />
    </filter>
    <filter
       inkscape:collect="always"
       style="color-interpolation-filters:sRGB"
       id="filter3444"
       x="-0.68049012"
       width="2.3609802"
       y="-0.53653702"
       height="2.073074">
      <feGaussianBlur
         inkscape:collect="always"
         stdDeviation="3.0757722"
         id="feGaussianBlur3446" />
    </filter>
    <filter
       inkscape:collect="always"
       style="color-interpolation-filters:sRGB"
       id="filter3462"
       x="-0.58235811"
       width="2.1647162"
       y="-0.61874416"
       height="2.2374883">
      <feGaussianBlur
         inkscape:collect="always"
         stdDeviation="3.547036"
         id="feGaussianBlur3464" />
    </filter>
  </defs>
  <sodipodi:namedview
     id="base"
     pagecolor="#000000"
     bordercolor="#666666"
     borderopacity="1.0"
     inkscape:pageopacity="0"
     inkscape:pageshadow="2"
     inkscape:zoom="1.4142136"
     inkscape:cx="253.20576"
     inkscape:cy="158.30481"
     inkscape:document-units="mm"
     inkscape:current-layer="layer1"
     showgrid="true"
     inkscape:snap-grids="true"
     inkscape:measure-start="0,0"
     inkscape:measure-end="0,0"
     inkscape:window-width="1853"
     inkscape:window-height="1025"
     inkscape:window-x="67"
     inkscape:window-y="27"
     inkscape:window-maximized="1"
     inkscape:pagecheckerboard="false">
    <inkscape:grid
       type="xygrid"
       id="grid3699"
       empspacing="16"
       color="#afafff"
       opacity="0.50588235"
       empcolor="#ffffff"
       empopacity="0.57647059" />
  </sodipodi:namedview>
  <metadata
     id="metadata5">
    <rdf:RDF>
      <cc:Work
         rdf:about="">
        <dc:format>image/svg+xml</dc:format>
        <dc:type
           rdf:resource="http://purl.org/dc/dcmitype/StillImage" />
        <dc:title />
      </cc:Work>
    </rdf:RDF>
  </metadata>
  <g
     inkscape:label="Layer 1"
     inkscape:groupmode="layer"
     id="layer1">
    <g
       id="g2542">
      <g
         transform="translate(8.466667,-8.4666593)"
         id="g2592"
         style="filter:url(#filter3430)">
        <path
           style="opacity:1;fill:#00ff00;fill-opacity:1;stroke:none;stroke-width:0.27399999;stroke-linecap:round;stroke-linejoin:round;stroke-miterlimit:4;stroke-dasharray:none;stroke-opacity:0.58947365"
           d="m 10.133277,292.42146 -3.2541106,-3.35897 -2.6116756,-0.0289 c 0.1567921,1.32436 0.9284758,2.49741 2.0825618,3.1657 1.1556471,0.66592 2.5575683,0.74826 3.7832244,0.22221 z"
           id="path2574"
           inkscape:connector-curvature="0"
           sodipodi:nodetypes="ccccc" />
        <path
           style="opacity:1;fill:#00ff00;fill-opacity:1;stroke:none;stroke-width:0.27399999;stroke-linecap:round;stroke-linejoin:round;stroke-miterlimit:4;stroke-dasharray:none;stroke-opacity:0.58947365"
           d="m 10.133779,284.64571 c -1.2257347,-0.52638 -2.6278676,-0.44423 -3.7837264,0.22169 -1.1542183,0.6684 -1.9259285,1.84167 -2.0825618,3.16622 l 2.6116756,0.0289 z"
           id="path2576"
           inkscape:connector-curvature="0"
           sodipodi:nodetypes="ccccc" />
        <path
           style="fill:#00ff00;stroke:none;stroke-width:0.26458332px;stroke-linecap:butt;stroke-linejoin:miter;stroke-opacity:1"
           d="m 14.552083,288.53333 -3.555815,-3.38016 -2.5296017,3.38016 2.5296017,3.37964 z"
           id="path2578"
           inkscape:connector-curvature="0"
           sodipodi:nodetypes="ccccc" />
        <path
           style="fill:#00ff00;fill-opacity:1;stroke:none;stroke-width:0.26458332px;stroke-linecap:butt;stroke-linejoin:miter;stroke-opacity:1"
           d="m 4.7624868,292.2375 1.05834,0.79375 -1.32292,1.32291 -1.85208,-1.85208 1.85208,0.79375 z"
           id="path2580"
           inkscape:connector-curvature="0" />
        <path
           inkscape:connector-curvature="0"
           id="path2582"
           d="m 4.7624868,284.82916 1.05834,-0.79375 -1.32292,-1.32291 -1.85208,1.85208 1.85208,-0.79375 z"
           style="fill:#00ff00;fill-opacity:1;stroke:none;stroke-width:0.26458332px;stroke-linecap:butt;stroke-linejoin:miter;stroke-opacity:1" />
        <path
           style="fill:#00ff00;fill-opacity:1;stroke:none;stroke-width:0.26458332px;stroke-linecap:butt;stroke-linejoin:miter;stroke-opacity:1"
           d="m 8.2020768,283.50625 h 1.32292 l -0.26458,-2.38125 -2.11667,0.52916 1.5875,0.26459 z"
           id="path2584"
           inkscape:connector-curvature="0"
           sodipodi:nodetypes="cccccc" />
        <path
           sodipodi:nodetypes="cccccc"
           inkscape:connector-curvature="0"
           id="path2586"
           d="m 8.2020768,293.56041 h 1.32292 l -0.26458,2.38125 -2.11667,-0.52916 1.5875,-0.26459 z"
           style="fill:#00ff00;fill-opacity:1;stroke:none;stroke-width:0.26458332px;stroke-linecap:butt;stroke-linejoin:miter;stroke-opacity:1" />
        <path
           style="fill:#00ff00;fill-opacity:1;stroke:none;stroke-width:0.26458332px;stroke-linecap:butt;stroke-linejoin:miter;stroke-opacity:1"
           d="m 11.377077,292.76666 1.05833,-1.05833 0.52917,1.32292 2.38125,-1.05834 -2.38125,1.85209 z"
           id="path2588"
           inkscape:connector-curvature="0"
           sodipodi:nodetypes="cccccc" />
        <path
           style="fill:#00ff00;fill-opacity:1;stroke:none;stroke-width:0.26458332px;stroke-linecap:butt;stroke-linejoin:miter;stroke-opacity:1"
           d="m 11.377084,284.3 1.05833,1.05833 0.52917,-1.32292 2.38125,1.05834 -2.38125,-1.85209 z"
           id="path2590"
           inkscape:connector-curvature="0"
           sodipodi:nodetypes="cccccc" />
      </g>
      <g
         style="filter:url(#filter1451)"
         id="g885"
         transform="translate(8.466667,-8.4666593)">
        <path
           sodipodi:nodetypes="ccccc"
           inkscape:connector-curvature="0"
           id="path867"
           d="m 10.133277,292.42146 -3.2541106,-3.35897 -2.6116756,-0.0289 c 0.1567921,1.32436 0.9284758,2.49741 2.0825618,3.1657 1.1556471,0.66592 2.5575683,0.74826 3.7832244,0.22221 z"
           style="opacity:1;fill:#00ff00;fill-opacity:1;stroke:none;stroke-width:0.27399999;stroke-linecap:round;stroke-linejoin:round;stroke-miterlimit:4;stroke-dasharray:none;stroke-opacity:0.58947365" />
        <path
           sodipodi:nodetypes="ccccc"
           inkscape:connector-curvature="0"
           id="path869"
           d="m 10.133779,284.64571 c -1.2257347,-0.52638 -2.6278676,-0.44423 -3.7837264,0.22169 -1.1542183,0.6684 -1.9259285,1.84167 -2.0825618,3.16622 l 2.6116756,0.0289 z"
           style="opacity:1;fill:#00ff00;fill-opacity:1;stroke:none;stroke-width:0.27399999;stroke-linecap:round;stroke-linejoin:round;stroke-miterlimit:4;stroke-dasharray:none;stroke-opacity:0.58947365" />
        <path
           sodipodi:nodetypes="ccccc"
           inkscape:connector-curvature="0"
           id="path871"
           d="m 14.552083,288.53333 -3.555815,-3.38016 -2.5296017,3.38016 2.5296017,3.37964 z"
           style="fill:#00ff00;stroke:none;stroke-width:0.26458332px;stroke-linecap:butt;stroke-linejoin:miter;stroke-opacity:1" />
        <path
           inkscape:connector-curvature="0"
           id="path873"
           d="m 4.7624868,292.2375 1.05834,0.79375 -1.32292,1.32291 -1.85208,-1.85208 1.85208,0.79375 z"
           style="fill:#00ff00;fill-opacity:1;stroke:none;stroke-width:0.26458332px;stroke-linecap:butt;stroke-linejoin:miter;stroke-opacity:1" />
        <path
           style="fill:#00ff00;fill-opacity:1;stroke:none;stroke-width:0.26458332px;stroke-linecap:butt;stroke-linejoin:miter;stroke-opacity:1"
           d="m 4.7624868,284.82916 1.05834,-0.79375 -1.32292,-1.32291 -1.85208,1.85208 1.85208,-0.79375 z"
           id="path875"
           inkscape:connector-curvature="0" />
        <path
           sodipodi:nodetypes="cccccc"
           inkscape:connector-curvature="0"
           id="path877"
           d="m 8.2020768,283.50625 h 1.32292 l -0.26458,-2.38125 -2.11667,0.52916 1.5875,0.26459 z"
           style="fill:#00ff00;fill-opacity:1;stroke:none;stroke-width:0.26458332px;stroke-linecap:butt;stroke-linejoin:miter;stroke-opacity:1" />
        <path
           style="fill:#00ff00;fill-opacity:1;stroke:none;stroke-width:0.26458332px;stroke-linecap:butt;stroke-linejoin:miter;stroke-opacity:1"
           d="m 8.2020768,293.56041 h 1.32292 l -0.26458,2.38125 -2.11667,-0.52916 1.5875,-0.26459 z"
           id="path879"
           inkscape:connector-curvature="0"
           sodipodi:nodetypes="cccccc" />
        <path
           sodipodi:nodetypes="cccccc"
           inkscape:connector-curvature="0"
           id="path881"
           d="m 11.377077,292.76666 1.05833,-1.05833 0.52917,1.32292 2.38125,-1.05834 -2.38125,1.85209 z"
           style="fill:#00ff00;fill-opacity:1;stroke:none;stroke-width:0.26458332px;stroke-linecap:butt;stroke-linejoin:miter;stroke-opacity:1" />
        <path
           sodipodi:nodetypes="cccccc"
           inkscape:connector-curvature="0"
           id="use883"
           d="m 11.377084,284.3 1.05833,1.05833 0.52917,-1.32292 2.38125,1.05834 -2.38125,-1.85209 z"
           style="fill:#00ff00;fill-opacity:1;stroke:none;stroke-width:0.26458332px;stroke-linecap:butt;stroke-linejoin:miter;stroke-opacity:1" />
      </g>
      <g
         style="fill:#00ff00;opacity:1;stroke:none"
         transform="translate(8.4666671,-8.4666595)"
         id="g4648">
        <path
           style="opacity:1;fill:#00ff00;fill-opacity:1;stroke:none;stroke-width:0.27399999;stroke-linecap:round;stroke-linejoin:round;stroke-miterlimit:4;stroke-dasharray:none;stroke-opacity:0.58947365"
           d="m 10.133277,292.42146 -3.2541106,-3.35897 -2.6116756,-0.0289 c 0.1567921,1.32436 0.9284758,2.49741 2.0825618,3.1657 1.1556471,0.66592 2.5575683,0.74826 3.7832244,0.22221 z"
           id="circle3703"
           inkscape:connector-curvature="0"
           sodipodi:nodetypes="ccccc" />
        <path
           style="opacity:1;fill:#00ff00;fill-opacity:1;stroke:none;stroke-width:0.27399999;stroke-linecap:round;stroke-linejoin:round;stroke-miterlimit:4;stroke-dasharray:none;stroke-opacity:0.58947365"
           d="m 10.133779,284.64571 c -1.2257347,-0.52638 -2.6278676,-0.44423 -3.7837264,0.22169 -1.1542183,0.6684 -1.9259285,1.84167 -2.0825618,3.16622 l 2.6116756,0.0289 z"
           id="path3705"
           inkscape:connector-curvature="0"
           sodipodi:nodetypes="ccccc" />
        <path
           style="fill:#00ff00;stroke:none;stroke-width:0.26458332px;stroke-linecap:butt;stroke-linejoin:miter;stroke-opacity:1"
           d="m 14.552083,288.53333 -3.555815,-3.38016 -2.5296017,3.38016 2.5296017,3.37964 z"
           id="path3707"
           inkscape:connector-curvature="0"
           sodipodi:nodetypes="ccccc" />
        <path
           style="fill:#00ff00;fill-opacity:1;stroke:none;stroke-width:0.26458332px;stroke-linecap:butt;stroke-linejoin:miter;stroke-opacity:1"
           d="m 4.7624868,292.2375 1.05834,0.79375 -1.32292,1.32291 -1.85208,-1.85208 1.85208,0.79375 z"
           id="path4534"
           inkscape:connector-curvature="0" />
        <path
           inkscape:connector-curvature="0"
           id="path4536"
           d="m 4.7624868,284.82916 1.05834,-0.79375 -1.32292,-1.32291 -1.85208,1.85208 1.85208,-0.79375 z"
           style="fill:#00ff00;fill-opacity:1;stroke:none;stroke-width:0.26458332px;stroke-linecap:butt;stroke-linejoin:miter;stroke-opacity:1" />
        <path
           style="fill:#00ff00;fill-opacity:1;stroke:none;stroke-width:0.26458332px;stroke-linecap:butt;stroke-linejoin:miter;stroke-opacity:1"
           d="m 8.2020768,283.50625 h 1.32292 l -0.26458,-2.38125 -2.11667,0.52916 1.5875,0.26459 z"
           id="path4538"
           inkscape:connector-curvature="0"
           sodipodi:nodetypes="cccccc" />
        <path
           sodipodi:nodetypes="cccccc"
           inkscape:connector-curvature="0"
           id="path4540"
           d="m 8.2020768,293.56041 h 1.32292 l -0.26458,2.38125 -2.11667,-0.52916 1.5875,-0.26459 z"
           style="fill:#00ff00;fill-opacity:1;stroke:none;stroke-width:0.26458332px;stroke-linecap:butt;stroke-linejoin:miter;stroke-opacity:1" />
        <path
           style="fill:#00ff00;fill-opacity:1;stroke:none;stroke-width:0.26458332px;stroke-linecap:butt;stroke-linejoin:miter;stroke-opacity:1"
           d="m 11.377077,292.76666 1.05833,-1.05833 0.52917,1.32292 2.38125,-1.05834 -2.38125,1.85209 z"
           id="path4546"
           inkscape:connector-curvature="0"
           sodipodi:nodetypes="cccccc" />
        <use
           style="fill:#00ff00;stroke:none"
           x="0"
           y="0"
           xlink:href="#path4546"
           id="use4550"
           transform="matrix(1,0,0,-1,6.7999999e-6,577.06666)"
           width="100%"
           height="100%" />
      </g>
      <path
         id="path1073"
         transform="scale(0.26458333)"
         d="M 66.566406 1031.1426 L 61.453125 1032.4219 L 65.660156 1033.123 L 63.693359 1039.0195 L 67.441406 1039.0195 L 66.566406 1031.1426 z M 49 1037.2266 L 44.189453 1042.0371 L 49.341797 1039.8281 L 50.300781 1043.668 L 53.238281 1041.4648 L 49 1037.2266 z M 80.978516 1039.1348 L 75.785156 1042.5977 L 78.816406 1045.6289 L 80.728516 1040.8516 L 86.458984 1043.3984 L 80.978516 1039.1348 z M 63.970703 1043.0273 C 61.294979 1043.0302 58.630826 1043.7258 56.25 1045.0977 C 52.189253 1047.4492 49.477253 1051.5224 48.757812 1056.1387 L 57.787109 1056.2383 L 69.386719 1044.0605 C 67.631718 1043.4063 65.804897 1043.0255 63.970703 1043.0273 z M 73.623047 1046.4941 L 64.625 1058.5195 L 73.623047 1070.543 L 86.273438 1058.5195 L 73.623047 1046.4941 z M 48.759766 1060.918 C 49.483587 1065.5269 52.194389 1069.593 56.25 1071.9414 C 60.25797 1074.251 65.057947 1074.5743 69.369141 1072.9727 L 57.785156 1061.0176 L 48.759766 1060.918 z M 78.816406 1071.4102 L 75.785156 1074.4414 L 80.976562 1077.9043 L 86.458984 1073.6406 L 80.728516 1076.1875 L 78.816406 1071.4102 z M 50.300781 1073.3711 L 49.341797 1077.2109 L 44.189453 1075.002 L 49 1079.8125 L 53.238281 1075.5742 L 50.300781 1073.3711 z M 63.693359 1078.0195 L 65.660156 1083.916 L 61.453125 1084.6172 L 66.566406 1085.8965 L 67.441406 1078.0195 L 63.693359 1078.0195 z "
         style="opacity:1;fill:#ffffff;fill-opacity:1;stroke:none;stroke-width:1.03559053;stroke-linecap:round;stroke-linejoin:round;stroke-miterlimit:4;stroke-dasharray:none;stroke-opacity:0.58947365;filter:url(#filter2436)" />
    </g>
    <g
       id="g2555">
      <g
         id="g3442"
         style="filter:url(#filter3444)">
        <path
           inkscape:connector-curvature="0"
           id="path3434"
           d="m 48.947918,275.83329 v 1.05833 h -2.38125 v 1.43145 l -5.17e-4,5e-4 5.17e-4,0.15555 0.0021,0.79375 h 3.172933 v 1.5875 h -3.175 v 2.38125 h 2.38125 v 1.05833 h 0.79375 v -0.002 l 2.38125,-0.005 v 0.006 h 2.910417 v -8.46666 h -2.910417 v 10e-4 l -2.910417,0.006 v -0.007 z"
           style="opacity:1;fill:#ff0000;fill-opacity:1;stroke:none;stroke-width:1;stroke-linecap:round;stroke-linejoin:round;stroke-miterlimit:4;stroke-dasharray:none;stroke-opacity:1" />
        <rect
           style="opacity:1;fill:#ff0000;fill-opacity:1;stroke:none;stroke-width:1.22474456;stroke-linecap:round;stroke-linejoin:round;stroke-miterlimit:4;stroke-dasharray:none;stroke-opacity:1"
           id="rect3436"
           width="1.5874988"
           height="1.5875002"
           x="279.27295"
           y="-57.413826"
           transform="rotate(90)" />
        <path
           sodipodi:nodetypes="ccccccccc"
           inkscape:connector-curvature="0"
           style="opacity:1;fill:#ff0000;fill-opacity:1;stroke:none;stroke-width:1.09544623;stroke-linecap:round;stroke-linejoin:round;stroke-miterlimit:4;stroke-dasharray:none;stroke-opacity:1"
           d="m 51.858335,273.18751 h -5.291667 v 1.05833 0.52917 l -6.9e-4,1.05833 h 1.322917 l 6.9e-4,-1.05833 h 3.96875 z"
           id="path3438" />
        <path
           sodipodi:nodetypes="ccccccccc"
           inkscape:connector-curvature="0"
           style="opacity:1;fill:#ff0000;fill-opacity:1;stroke:none;stroke-width:1.09544516;stroke-linecap:round;stroke-linejoin:round;stroke-miterlimit:4;stroke-dasharray:none;stroke-opacity:1"
           d="m 51.858335,285.35834 h -3.96875 L 47.888895,284.3 h -1.322917 l 6.9e-4,1.05834 v 0.52917 1.05833 h 5.291667 z"
           id="path3440" />
      </g>
      <g
         style="filter:url(#filter1459)"
         id="g903">
        <path
           style="opacity:1;fill:#ff0000;fill-opacity:1;stroke:none;stroke-width:1;stroke-linecap:round;stroke-linejoin:round;stroke-miterlimit:4;stroke-dasharray:none;stroke-opacity:1"
           d="m 48.947918,275.83329 v 1.05833 h -2.38125 v 1.43145 l -5.17e-4,5e-4 5.17e-4,0.15555 0.0021,0.79375 h 3.172933 v 1.5875 h -3.175 v 2.38125 h 2.38125 v 1.05833 h 0.79375 v -0.002 l 2.38125,-0.005 v 0.006 h 2.910417 v -8.46666 h -2.910417 v 10e-4 l -2.910417,0.006 v -0.007 z"
           id="path895"
           inkscape:connector-curvature="0" />
        <rect
           transform="rotate(90)"
           y="-57.413826"
           x="279.27295"
           height="1.5875002"
           width="1.5874988"
           id="rect897"
           style="opacity:1;fill:#ff0000;fill-opacity:1;stroke:none;stroke-width:1.22474456;stroke-linecap:round;stroke-linejoin:round;stroke-miterlimit:4;stroke-dasharray:none;stroke-opacity:1" />
        <path
           id="path899"
           d="m 51.858335,273.18751 h -5.291667 v 1.05833 0.52917 l -6.9e-4,1.05833 h 1.322917 l 6.9e-4,-1.05833 h 3.96875 z"
           style="opacity:1;fill:#ff0000;fill-opacity:1;stroke:none;stroke-width:1.09544623;stroke-linecap:round;stroke-linejoin:round;stroke-miterlimit:4;stroke-dasharray:none;stroke-opacity:1"
           inkscape:connector-curvature="0"
           sodipodi:nodetypes="ccccccccc" />
        <path
           id="path901"
           d="m 51.858335,285.35834 h -3.96875 L 47.888895,284.3 h -1.322917 l 6.9e-4,1.05834 v 0.52917 1.05833 h 5.291667 z"
           style="opacity:1;fill:#ff0000;fill-opacity:1;stroke:none;stroke-width:1.09544516;stroke-linecap:round;stroke-linejoin:round;stroke-miterlimit:4;stroke-dasharray:none;stroke-opacity:1"
           inkscape:connector-curvature="0"
           sodipodi:nodetypes="ccccccccc" />
      </g>
      <g
         id="g857">
        <path
           inkscape:connector-curvature="0"
           id="rect4617"
           d="m 48.947918,275.83329 v 1.05833 h -2.38125 v 1.43145 l -5.17e-4,5e-4 5.17e-4,0.15555 0.0021,0.79375 h 3.172933 v 1.5875 h -3.175 v 2.38125 h 2.38125 v 1.05833 h 0.79375 v -0.002 l 2.38125,-0.005 v 0.006 h 2.910417 v -8.46666 h -2.910417 v 10e-4 l -2.910417,0.006 v -0.007 z"
           style="opacity:1;fill:#ff0000;fill-opacity:1;stroke:none;stroke-width:1;stroke-linecap:round;stroke-linejoin:round;stroke-miterlimit:4;stroke-dasharray:none;stroke-opacity:1" />
        <rect
           style="opacity:1;fill:#ff0000;fill-opacity:1;stroke:none;stroke-width:1.22474456;stroke-linecap:round;stroke-linejoin:round;stroke-miterlimit:4;stroke-dasharray:none;stroke-opacity:1"
           id="rect4554"
           width="1.5874988"
           height="1.5875002"
           x="279.27295"
           y="-57.413826"
           transform="rotate(90)" />
        <path
           sodipodi:nodetypes="ccccccccc"
           inkscape:connector-curvature="0"
           style="opacity:1;fill:#ff0000;fill-opacity:1;stroke:none;stroke-width:1.09544623;stroke-linecap:round;stroke-linejoin:round;stroke-miterlimit:4;stroke-dasharray:none;stroke-opacity:1"
           d="m 51.858335,273.18751 h -5.291667 v 1.05833 0.52917 l -6.9e-4,1.05833 h 1.322917 l 6.9e-4,-1.05833 h 3.96875 z"
           id="rect4556" />
        <path
           sodipodi:nodetypes="ccccccccc"
           inkscape:connector-curvature="0"
           style="opacity:1;fill:#ff0000;fill-opacity:1;stroke:none;stroke-width:1.09544516;stroke-linecap:round;stroke-linejoin:round;stroke-miterlimit:4;stroke-dasharray:none;stroke-opacity:1"
           d="m 51.858335,285.35834 h -3.96875 L 47.888895,284.3 h -1.322917 l 6.9e-4,1.05834 v 0.52917 1.05833 h 5.291667 z"
           id="rect4561" />
      </g>
      <path
         id="path2440"
         transform="scale(0.26458333)"
         d="M 176.5 1033.0195 L 176.5 1036.5195 L 176.5 1038.5195 L 176.49805 1042.0195 L 180.49805 1042.0195 L 180.5 1038.5195 A 0.50004998 0.50004998 0 0 1 181 1038.0195 L 195.5 1038.0195 L 195.5 1033.0195 L 176.5 1033.0195 z M 185.83789 1043.0156 L 185.5 1043.0176 L 185.5 1046.5195 A 0.50004998 0.50004998 0 0 1 185 1047.0195 L 176.5 1047.0195 L 176.5 1051.9297 A 0.50004998 0.50004998 0 0 1 176.34961 1052.2871 L 176.49805 1052.1426 L 176.5 1052.5176 L 176.50586 1055.0195 L 188 1055.0195 A 0.50004998 0.50004998 0 0 1 188.5 1055.5195 L 188.5 1061.5195 A 0.50004998 0.50004998 0 0 1 188 1062.0195 L 176.5 1062.0195 L 176.5 1070.0195 L 185 1070.0195 A 0.50004998 0.50004998 0 0 1 185.5 1070.5195 L 185.5 1074.0195 L 187.91211 1074.0195 A 0.50004998 0.50004998 0 0 1 187.99805 1074.0117 L 196.99805 1073.9922 A 0.50004998 0.50004998 0 0 1 197.15039 1074.0156 L 207.5 1074.0156 L 207.5 1043.0156 L 197.0625 1043.0156 A 0.50004998 0.50004998 0 0 1 197.00195 1043.0195 L 186.00195 1043.043 A 0.50004998 0.50004998 0 0 1 185.83789 1043.0156 z M 211.49805 1056.0195 L 211.49805 1061.0195 L 216.49805 1061.0195 L 216.49805 1056.0195 L 211.49805 1056.0195 z M 176.49805 1075.0195 L 176.5 1078.5195 L 176.5 1080.5195 L 176.5 1084.0195 L 195.5 1084.0195 L 195.5 1079.0195 L 181 1079.0195 A 0.50004998 0.50004998 0 0 1 180.5 1078.5195 L 180.49805 1075.0195 L 176.49805 1075.0195 z "
         style="opacity:1;fill:#ffffff;fill-opacity:1;stroke:none;stroke-width:3.77952766;stroke-linecap:round;stroke-linejoin:round;stroke-miterlimit:4;stroke-dasharray:none;stroke-opacity:1;filter:url(#filter2485)" />
    </g>
    <g
       id="g2572">
      <g
         id="g3460"
         style="filter:url(#filter3462)">
        <path
           inkscape:export-ydpi="192.00003"
           inkscape:export-xdpi="192.00003"
           inkscape:connector-curvature="0"
           style="fill:#ffe801;fill-opacity:1;stroke:none;stroke-width:0.26458332px;stroke-linecap:butt;stroke-linejoin:miter;stroke-opacity:1"
           d="m 83.60834,279.53754 v -4.23333 l -3.175,-2.11667 v 2.0283 l 0.52916,0.35295 v 2.20504 z"
           id="path3448" />
        <path
           inkscape:export-ydpi="192.00003"
           inkscape:export-xdpi="192.00003"
           inkscape:connector-curvature="0"
           id="path3450"
           d="m 91.01667,280.0667 -6.35,-4.23333 v 8.46667 z"
           style="fill:#ffe801;fill-opacity:1;stroke:none;stroke-width:0.26458332px;stroke-linecap:butt;stroke-linejoin:miter;stroke-opacity:1" />
        <path
           inkscape:export-ydpi="192.00003"
           inkscape:export-xdpi="192.00003"
           inkscape:connector-curvature="0"
           id="path3452"
           d="m 83.60834,280.59587 v 4.23333 l -3.175,2.11667 v -2.0283 l 0.52916,-0.35295 v -2.20504 z"
           style="fill:#ffe801;fill-opacity:1;stroke:none;stroke-width:0.26458332px;stroke-linecap:butt;stroke-linejoin:miter;stroke-opacity:1" />
        <path
           inkscape:connector-curvature="0"
           inkscape:export-ydpi="192.00003"
           inkscape:export-xdpi="192.00003"
           id="path3454"
           d="m 78.31667,277.42031 c -3.43958,1.85241 -1.46991,4.10763 -0.11369,4.16873 1.43681,0.0648 2.23036,-1.78748 3.81786,-0.99373 l 0.52916,-0.52866 -0.52916,-0.52917 v -5e-4 c -1.19063,-1.05801 -2.73214,-0.03 -3.69125,0.26768 -0.86273,0.26776 -1.60042,-1.06093 -0.0129,-2.38384 z"
           style="fill:#ffe801;fill-opacity:1;stroke:none;stroke-width:0.26458332px;stroke-linecap:butt;stroke-linejoin:miter;stroke-opacity:1" />
        <path
           inkscape:export-ydpi="192.00003"
           inkscape:export-xdpi="192.00003"
           inkscape:connector-curvature="0"
           id="path3456"
           d="m 83.34375,274.24587 2.91042,1.85209 h 0.79375 v -1.05834 h -0.79375 v -0.79375 z"
           style="fill:#ffe801;fill-opacity:1;stroke:none;stroke-width:0.26458332px;stroke-linecap:butt;stroke-linejoin:miter;stroke-opacity:1" />
        <path
           inkscape:export-ydpi="192.00003"
           inkscape:export-xdpi="192.00003"
           style="fill:#ffe801;fill-opacity:1;stroke:none;stroke-width:0.26458332px;stroke-linecap:butt;stroke-linejoin:miter;stroke-opacity:1"
           d="m 83.34375,285.88754 2.91042,-1.85209 h 0.79375 v 1.05834 h -0.79375 v 0.79375 z"
           id="path3458"
           inkscape:connector-curvature="0" />
      </g>
      <g
         style="filter:url(#filter1447)"
         id="g929">
        <path
           id="path917"
           d="m 83.60834,279.53754 v -4.23333 l -3.175,-2.11667 v 2.0283 l 0.52916,0.35295 v 2.20504 z"
           style="fill:#ffe801;fill-opacity:1;stroke:none;stroke-width:0.26458332px;stroke-linecap:butt;stroke-linejoin:miter;stroke-opacity:1"
           inkscape:connector-curvature="0"
           inkscape:export-xdpi="192.00003"
           inkscape:export-ydpi="192.00003" />
        <path
           style="fill:#ffe801;fill-opacity:1;stroke:none;stroke-width:0.26458332px;stroke-linecap:butt;stroke-linejoin:miter;stroke-opacity:1"
           d="m 91.01667,280.0667 -6.35,-4.23333 v 8.46667 z"
           id="path919"
           inkscape:connector-curvature="0"
           inkscape:export-xdpi="192.00003"
           inkscape:export-ydpi="192.00003" />
        <path
           style="fill:#ffe801;fill-opacity:1;stroke:none;stroke-width:0.26458332px;stroke-linecap:butt;stroke-linejoin:miter;stroke-opacity:1"
           d="m 83.60834,280.59587 v 4.23333 l -3.175,2.11667 v -2.0283 l 0.52916,-0.35295 v -2.20504 z"
           id="path921"
           inkscape:connector-curvature="0"
           inkscape:export-xdpi="192.00003"
           inkscape:export-ydpi="192.00003" />
        <path
           style="fill:#ffe801;fill-opacity:1;stroke:none;stroke-width:0.26458332px;stroke-linecap:butt;stroke-linejoin:miter;stroke-opacity:1"
           d="m 78.31667,277.42031 c -3.43958,1.85241 -1.46991,4.10763 -0.11369,4.16873 1.43681,0.0648 2.23036,-1.78748 3.81786,-0.99373 l 0.52916,-0.52866 -0.52916,-0.52917 v -5e-4 c -1.19063,-1.05801 -2.73214,-0.03 -3.69125,0.26768 -0.86273,0.26776 -1.60042,-1.06093 -0.0129,-2.38384 z"
           id="path923"
           inkscape:export-xdpi="192.00003"
           inkscape:export-ydpi="192.00003"
           inkscape:connector-curvature="0" />
        <path
           style="fill:#ffe801;fill-opacity:1;stroke:none;stroke-width:0.26458332px;stroke-linecap:butt;stroke-linejoin:miter;stroke-opacity:1"
           d="m 83.34375,274.24587 2.91042,1.85209 h 0.79375 v -1.05834 h -0.79375 v -0.79375 z"
           id="path925"
           inkscape:connector-curvature="0"
           inkscape:export-xdpi="192.00003"
           inkscape:export-ydpi="192.00003" />
        <path
           inkscape:connector-curvature="0"
           id="path927"
           d="m 83.34375,285.88754 2.91042,-1.85209 h 0.79375 v 1.05834 h -0.79375 v 0.79375 z"
           style="fill:#ffe801;fill-opacity:1;stroke:none;stroke-width:0.26458332px;stroke-linecap:butt;stroke-linejoin:miter;stroke-opacity:1"
           inkscape:export-xdpi="192.00003"
           inkscape:export-ydpi="192.00003" />
      </g>
      <g
         id="g865">
        <path
           inkscape:export-ydpi="192.00003"
           inkscape:export-xdpi="192.00003"
           inkscape:connector-curvature="0"
           style="fill:#ffe801;fill-opacity:1;stroke:none;stroke-width:0.26458332px;stroke-linecap:butt;stroke-linejoin:miter;stroke-opacity:1"
           d="m 83.60834,279.53754 v -4.23333 l -3.175,-2.11667 v 2.0283 l 0.52916,0.35295 v 2.20504 z"
           id="path855" />
        <path
           inkscape:export-ydpi="192.00003"
           inkscape:export-xdpi="192.00003"
           inkscape:connector-curvature="0"
           id="path833"
           d="m 91.01667,280.0667 -6.35,-4.23333 v 8.46667 z"
           style="fill:#ffe801;fill-opacity:1;stroke:none;stroke-width:0.26458332px;stroke-linecap:butt;stroke-linejoin:miter;stroke-opacity:1" />
        <path
           inkscape:export-ydpi="192.00003"
           inkscape:export-xdpi="192.00003"
           inkscape:connector-curvature="0"
           id="path835"
           d="m 83.60834,280.59587 v 4.23333 l -3.175,2.11667 v -2.0283 l 0.52916,-0.35295 v -2.20504 z"
           style="fill:#ffe801;fill-opacity:1;stroke:none;stroke-width:0.26458332px;stroke-linecap:butt;stroke-linejoin:miter;stroke-opacity:1" />
        <path
           inkscape:connector-curvature="0"
           inkscape:export-ydpi="192.00003"
           inkscape:export-xdpi="192.00003"
           id="path839"
           d="m 78.31667,277.42031 c -3.43958,1.85241 -1.46991,4.10763 -0.11369,4.16873 1.43681,0.0648 2.23036,-1.78748 3.81786,-0.99373 l 0.52916,-0.52866 -0.52916,-0.52917 v -5e-4 c -1.19063,-1.05801 -2.73214,-0.03 -3.69125,0.26768 -0.86273,0.26776 -1.60042,-1.06093 -0.0129,-2.38384 z"
           style="fill:#ffe801;fill-opacity:1;stroke:none;stroke-width:0.26458332px;stroke-linecap:butt;stroke-linejoin:miter;stroke-opacity:1" />
        <path
           inkscape:export-ydpi="192.00003"
           inkscape:export-xdpi="192.00003"
           inkscape:connector-curvature="0"
           id="path846"
           d="m 83.34375,274.24587 2.91042,1.85209 h 0.79375 v -1.05834 h -0.79375 v -0.79375 z"
           style="fill:#ffe801;fill-opacity:1;stroke:none;stroke-width:0.26458332px;stroke-linecap:butt;stroke-linejoin:miter;stroke-opacity:1" />
        <path
           inkscape:export-ydpi="192.00003"
           inkscape:export-xdpi="192.00003"
           style="fill:#ffe801;fill-opacity:1;stroke:none;stroke-width:0.26458332px;stroke-linecap:butt;stroke-linejoin:miter;stroke-opacity:1"
           d="m 83.34375,285.88754 2.91042,-1.85209 h 0.79375 v 1.05834 h -0.79375 v 0.79375 z"
           id="path848"
           inkscape:connector-curvature="0" />
      </g>
      <path
         id="path2489"
         transform="scale(0.26458333)"
         d="M 304.5 1033.4531 L 304.5 1039.918 L 306.5 1041.252 L 306.5 1049.5859 L 315.5 1055.5859 L 315.5 1040.7871 L 304.5 1033.4531 z M 316.7168 1037.0195 L 326.14648 1043.0195 L 328.5 1043.0195 L 328.5 1040.0195 L 325.5 1040.0195 L 325.5 1037.0195 L 316.7168 1037.0195 z M 320.5 1043.4531 L 320.5 1073.5859 L 343.09766 1058.5195 L 320.5 1043.4531 z M 293.14258 1051.0488 C 291.81247 1052.0983 290.75065 1053.146 290.1582 1054.1543 C 289.17047 1055.8354 289.06564 1057.3997 289.46875 1058.7949 C 290.27496 1061.5854 293.29625 1063.6699 295.59375 1063.7734 C 298.09064 1063.8861 300.09337 1062.3047 302.30859 1060.9375 C 303.41621 1060.2539 304.57701 1059.6323 305.88477 1059.3828 C 307.08754 1059.1535 308.42042 1059.3185 309.85742 1059.9531 L 311.29297 1058.5195 L 309.65625 1056.8828 C 307.54938 1055.0181 305.20193 1054.9972 302.81641 1055.5879 C 300.42656 1056.1796 298.09294 1057.4175 296.19727 1058.0059 C 294.30477 1058.5932 292.46451 1057.3672 292.0625 1055.3789 C 291.81248 1054.1423 292.16303 1052.6285 293.14258 1051.0488 z M 315.5 1061.4531 L 306.5 1067.4531 L 306.5 1075.7871 L 304.5 1077.1211 L 304.5 1083.5859 L 315.5 1076.252 L 315.5 1061.4531 z M 326.14453 1074.0195 L 316.7168 1080.0195 L 325.5 1080.0195 L 325.5 1077.0195 L 328.5 1077.0195 L 328.5 1074.0195 L 326.14453 1074.0195 z "
         style="fill:#ffffff;fill-opacity:1;stroke:none;stroke-width:0.99999994px;stroke-linecap:butt;stroke-linejoin:miter;stroke-opacity:1;filter:url(#filter2515)" />
    </g>
  </g>
</svg>
