<?xml version="1.0" encoding="UTF-8" standalone="no"?>
<svg
   xmlns:dc="http://purl.org/dc/elements/1.1/"
   xmlns:cc="http://creativecommons.org/ns#"
   xmlns:rdf="http://www.w3.org/1999/02/22-rdf-syntax-ns#"
   xmlns:svg="http://www.w3.org/2000/svg"
   xmlns="http://www.w3.org/2000/svg"
   xmlns:sodipodi="http://sodipodi.sourceforge.net/DTD/sodipodi-0.dtd"
   xmlns:inkscape="http://www.inkscape.org/namespaces/inkscape"
   width="16"
   height="16"
   version="1.1"
   viewBox="0 0 16 16"
   id="svg6"
   sodipodi:docname="GRoundedRect.svg"
   inkscape:version="0.92.2 (5c3e80d, 2017-08-06)">
  <metadata
     id="metadata12">
    <rdf:RDF>
      <cc:Work
         rdf:about="">
        <dc:format>image/svg+xml</dc:format>
        <dc:type
           rdf:resource="http://purl.org/dc/dcmitype/StillImage" />
      </cc:Work>
    </rdf:RDF>
  </metadata>
  <defs
     id="defs10" />
  <sodipodi:namedview
     pagecolor="#ffffff"
     bordercolor="#666666"
     borderopacity="1"
     objecttolerance="10"
     gridtolerance="10"
     guidetolerance="10"
     inkscape:pageopacity="0"
     inkscape:pageshadow="2"
     inkscape:window-width="3750"
     inkscape:window-height="2049"
     id="namedview8"
     showgrid="false"
     inkscape:zoom="14.75"
     inkscape:cx="-11.728814"
     inkscape:cy="8"
     inkscape:window-x="90"
     inkscape:window-y="55"
     inkscape:window-maximized="1"
     inkscape:current-layer="svg6" />
  <g
     transform="rotate(90,526.2,526.2)"
     id="g4">
    <path
       transform="translate(0,1036.4)"
       d="M 8,1 C 5.23,1 3,3.23 3,6 v 4 c 0,2.77 2.23,5 5,5 2.77,0 5,-2.23 5,-5 V 6 C 13,3.23 10.77,1 8,1 Z m 0,2 c 1.662,0 3,1.338 3,3 v 4 C 11,11.662 9.662,13 8,13 6.338,13 5,11.662 5,10 V 6 C 5,4.338 6.338,3 8,3 Z"
       id="path2"
       style="fill:#ffd684;fill-opacity:1;stroke-width:0"
       inkscape:connector-curvature="0" />
  </g>
</svg>
