<?xml version="1.0" encoding="UTF-8" standalone="no"?>
<!-- Created with Inkscape (http://www.inkscape.org/) -->

<svg
   width="1280"
   height="720"
   viewBox="0 0 338.66663 190.49998"
   version="1.1"
   id="svg5"
   sodipodi:docname="pilot_selector.svg"
   inkscape:version="1.3.2 (091e20e, 2023-11-25, custom)"
   inkscape:export-filename="background.png"
   inkscape:export-xdpi="96"
   inkscape:export-ydpi="96"
   xmlns:inkscape="http://www.inkscape.org/namespaces/inkscape"
   xmlns:sodipodi="http://sodipodi.sourceforge.net/DTD/sodipodi-0.dtd"
   xmlns="http://www.w3.org/2000/svg"
   xmlns:svg="http://www.w3.org/2000/svg">
  <sodipodi:namedview
     id="namedview7"
     pagecolor="#505050"
     bordercolor="#eeeeee"
     borderopacity="1"
     inkscape:showpageshadow="0"
     inkscape:pageopacity="0"
     inkscape:pagecheckerboard="0"
     inkscape:deskcolor="#505050"
     inkscape:document-units="px"
     showgrid="false"
     inkscape:zoom="1.0708779"
     inkscape:cx="613.51532"
     inkscape:cy="291.34974"
     inkscape:window-width="1920"
     inkscape:window-height="1010"
     inkscape:window-x="-6"
     inkscape:window-y="-6"
     inkscape:window-maximized="1"
     inkscape:current-layer="layer1">
    <inkscape:grid
       type="xygrid"
       id="grid132"
       originx="0"
       originy="0"
       spacingy="1"
       spacingx="1"
       units="px"
       visible="false" />
  </sodipodi:namedview>
  <defs
     id="defs2">
    <linearGradient
       id="swatch1"
       inkscape:swatch="solid"
       gradientTransform="matrix(-0.9892229,-0.14641738,-0.14641738,0.9892229,478.01602,41.639875)">
      <stop
         style="stop-color:#ff9c33;stop-opacity:1;"
         offset="0"
         id="stop1" />
    </linearGradient>
  </defs>
  <g
     inkscape:groupmode="layer"
     id="layer2"
     inkscape:label="Layer 2" />
  <g
     inkscape:label="Layer 1"
     inkscape:groupmode="layer"
     id="layer1">
    <g
       id="g5245"
       inkscape:label="Settings"
       transform="matrix(0.36327382,-0.03314792,0.03320731,0.36262419,8.6378574,25.860623)"
       inkscape:export-filename="./buttons/graphics_Settings.png"
       inkscape:export-xdpi="96"
       inkscape:export-ydpi="96"
       style="stroke-width:1.3379">
      <path
         style="fill:#d48e00;fill-opacity:0.4;stroke:#ff9c33;stroke-width:5.19958;stroke-miterlimit:10;stroke-dasharray:none;stroke-opacity:1"
         d="M 215.66643,47.354586 352.61359,62.334809 349.27696,91.84356 220.6981,77.320359 Z"
         id="path1224"
         sodipodi:nodetypes="ccccc"
         inkscape:label="Settings" />
      <path
         id="path1368"
         style="opacity:0.5;fill:#e69f3f;fill-opacity:1;stroke:none;stroke-width:4.15467;stroke-miterlimit:10"
         d="m 224.65675,55.793893 a 16.100863,16.100863 0 0 0 -7.56893,1.90269 l 3.35263,19.564464 18.49277,2.053988 a 16.100863,16.100863 0 0 0 1.82417,-7.42049 16.100863,16.100863 0 0 0 -16.10064,-16.100652 z" />
      <path
         id="path4485"
         style="opacity:1;fill:#5c4e31;fill-opacity:0.941176;stroke:none;stroke-width:4.15467;stroke-miterlimit:10"
         d="m 225.84093,67.2929 a 4.3723212,4.3723212 0 0 0 -4.37274,4.372174 4.3723212,4.3723212 0 0 0 4.37274,4.372175 4.3723212,4.3723212 0 0 0 4.37217,-4.372175 4.3723212,4.3723212 0 0 0 -4.37217,-4.372174 z" />
      <path
         id="circle2044"
         style="opacity:1;fill:#f0ce99;fill-opacity:1;stroke:none;stroke-width:4.15467;stroke-miterlimit:10"
         d="m 225.25407,67.2929 a 4.3723212,4.3723212 0 0 0 -4.37274,4.372174 4.3723212,4.3723212 0 0 0 4.37274,4.372175 4.3723212,4.3723212 0 0 0 4.37217,-4.372175 4.3723212,4.3723212 0 0 0 -4.37217,-4.372174 z" />
      <path
         style="fill:none;stroke:url(#swatch1);stroke-width:0.707978;stroke-linecap:square;stroke-dasharray:none;stroke-opacity:1"
         d="m 334.1477,61.822427 2.04606,3.585914 15.26921,2.117481"
         id="path2498"
         sodipodi:nodetypes="ccc" />
      <path
         id="path4483"
         style="opacity:0.901635;fill:#584a33;fill-opacity:1;stroke:none;stroke-width:4.15467;stroke-miterlimit:10"
         d="m 226.42779,46.700295 c -1.10407,0.0041 -2.20665,0.08146 -3.30048,0.231533 l 0.44816,3.356069 -5.27787,1.510885 0.0767,0.457334 0.84361,4.924068 c 1.93728,-0.801936 5.1131,-1.609389 7.2098,-1.615761 8.89209,1.19e-4 16.10052,7.208557 16.10064,16.100651 -0.007,2.032437 -0.39775,4.045269 -1.15308,5.932151 l 5.44273,0.604047 0.98688,-3.682737 3.35607,0.448164 c 0.15012,-1.094208 0.22748,-2.197174 0.23154,-3.301625 -4e-4,-1.104592 -0.0741,-2.207941 -0.22065,-3.302771 l -3.36696,0.44931 -1.43733,-5.363637 3.14059,-1.294631 c -0.8429,-2.044599 -1.95373,-3.968134 -3.30335,-5.720105 l -2.6907,2.072328 -3.92688,-3.926877 2.07233,-2.690701 c -1.75198,-1.349614 -3.67551,-2.46045 -5.72011,-3.303344 l -1.29406,3.140584 -5.3642,-1.437333 0.4493,-3.366959 c -1.09483,-0.146534 -2.19817,-0.220243 -3.30276,-0.220643 z"
         sodipodi:nodetypes="ccccccccccccccccccccccccccc" />
      <path
         id="circle1370"
         style="opacity:0.901635;fill:#ffdca4;fill-opacity:1;stroke:none;stroke-width:4.15467;stroke-miterlimit:10"
         d="m 225.25407,46.700295 a 24.96485,24.96485 0 0 0 -3.30048,0.231533 l 0.44816,3.356069 -4.17731,1.119263 0.0767,0.457334 0.84361,4.924068 a 16.100863,16.100863 0 0 1 6.10924,-1.224139 16.100863,16.100863 0 0 1 16.10065,16.100651 16.100863,16.100863 0 0 1 -1.15308,5.932151 l 5.44272,0.604047 0.98688,-3.682737 3.35607,0.448164 a 24.96485,24.96485 0 0 0 0.23154,-3.301625 24.96485,24.96485 0 0 0 -0.22065,-3.302771 l -3.36696,0.44931 -1.43732,-5.363637 3.14058,-1.294631 a 24.96485,24.96485 0 0 0 -3.30334,-5.720105 l -2.69071,2.072328 -3.92687,-3.926877 2.07232,-2.690701 a 24.96485,24.96485 0 0 0 -5.72011,-3.303344 l -1.29405,3.140584 -5.36421,-1.437333 0.44931,-3.366959 a 24.96485,24.96485 0 0 0 -3.30277,-0.220643 z" />
      <path
         style="fill:#ffffff;fill-opacity:1;stroke:#ffffff;stroke-width:5.19958;stroke-miterlimit:10;stroke-dasharray:none;stroke-opacity:1"
         d="M 215.66643,47.354586 352.61359,62.334809 349.27696,91.84356 220.6981,77.320359 Z"
         id="path4130"
         sodipodi:nodetypes="ccccc"
         inkscape:label="Settings"
         inkscape:export-filename="./buttons/area_Settings.png"
         inkscape:export-xdpi="96"
         inkscape:export-ydpi="96" />
    </g>
    <g
       id="g2148"
       inkscape:label="Quit"
       transform="matrix(0.53262434,0,0,0.53167186,-22.549338,-13.526541)"
       inkscape:export-filename="./buttons/graphics_Go.png"
       inkscape:export-xdpi="96"
       inkscape:export-ydpi="96"
       style="stroke-width:1.3379">
      <path
         style="fill:#d48e00;fill-opacity:0.4;stroke:url(#swatch1);stroke-width:3.74617;stroke-miterlimit:10;stroke-opacity:1"
         d="m 213.79098,120.45196 78.54316,1.86154 11.68774,24.4584 -93.37808,-4.32113 z"
         id="path395"
         sodipodi:nodetypes="ccccc"
         inkscape:label="Quit" />
      <path
         style="fill:url(#swatch1);fill-opacity:1;stroke:none;stroke-width:2.83192;stroke-linecap:square;stroke-dasharray:none;stroke-opacity:1"
         d="m 308.84058,148.69551 -3.90103,-8.11548 2.57447,0.45457 3.98168,8.11521 z"
         id="path1735-3"
         sodipodi:nodetypes="ccccc" />
      <path
         style="fill:url(#swatch1);fill-opacity:1;stroke:none;stroke-width:2.83192;stroke-linecap:square;stroke-dasharray:none;stroke-opacity:1"
         d="m 313.79257,149.43067 -1.82892,-3.74287 2.57446,0.45457 1.74575,3.58843 z"
         id="path1902-6"
         sodipodi:nodetypes="ccccc" />
      <path
         style="fill:none;stroke:url(#swatch1);stroke-width:0.707978;stroke-linecap:square;stroke-dasharray:none;stroke-opacity:1"
         d="m 236.02083,122.46458 -2.72934,2.38476 -19.61098,-0.70066"
         id="path435"
         sodipodi:nodetypes="ccc" />
      <g
         id="g12537-6-3"
         transform="matrix(0.80227375,-0.30759448,0.34440443,0.83152357,218.23736,98.28514)"
         style="opacity:0.8;stroke-width:1.52169">
        <path
           style="fill:#000000;fill-opacity:0.5;stroke:none;stroke-width:0.402611px;stroke-linecap:butt;stroke-linejoin:miter;stroke-opacity:1"
           d="m 61.174562,58.84026 23.022971,8.770647 -23.022972,8.770649 6.577993,-8.770648 z"
           id="path14406-2-6"
           inkscape:connector-curvature="0"
           sodipodi:nodetypes="ccccc" />
        <path
           style="fill:#f0ce9a;fill-opacity:0.996078;stroke:none;stroke-width:0.402611px;stroke-linecap:butt;stroke-linejoin:miter;stroke-opacity:1"
           d="m 63.952877,56.499131 23.022971,8.770647 -23.022972,8.770649 6.577993,-8.770648 z"
           id="path12535-6-7"
           inkscape:connector-curvature="0"
           sodipodi:nodetypes="ccccc" />
        <path
           id="path12531-5-5"
           d="m 57.055344,54.984699 4.590717,6.461862 c -0.486357,0.01815 -0.968549,0.03898 -1.457299,0.05501 l -6.191617,-2.667439 3.484472,2.749025 c -0.645273,0.0184 -1.304331,0.03387 -1.952771,0.05087 l -15.979167,2.719755 17.178706,4.730483 -3.460747,2.194408 6.041817,-1.907827 c 0.585193,0.06094 1.171324,0.118935 1.75752,0.175462 l -5.17687,5.865413 7.657106,-5.63934 3.128167,-4.065455 -2.618946,-4.352167 z"
           style="color:#000000;font-style:normal;font-variant:normal;font-weight:normal;font-stretch:normal;font-size:medium;line-height:normal;font-family:sans-serif;font-variant-ligatures:normal;font-variant-position:normal;font-variant-caps:normal;font-variant-numeric:normal;font-variant-alternates:normal;font-feature-settings:normal;text-indent:0;text-align:start;text-decoration:none;text-decoration-line:none;text-decoration-style:solid;text-decoration-color:#000000;letter-spacing:normal;word-spacing:normal;text-transform:none;writing-mode:lr-tb;direction:ltr;text-orientation:mixed;dominant-baseline:auto;baseline-shift:baseline;text-anchor:start;white-space:normal;shape-padding:0;clip-rule:nonzero;display:inline;overflow:visible;visibility:visible;opacity:0.8;isolation:auto;mix-blend-mode:normal;color-interpolation:sRGB;color-interpolation-filters:linearRGB;solid-color:#000000;solid-opacity:1;vector-effect:none;fill:#e09a2e;fill-opacity:0.701961;fill-rule:nonzero;stroke:none;stroke-width:4.56506;stroke-linecap:butt;stroke-linejoin:miter;stroke-miterlimit:4;stroke-dasharray:none;stroke-dashoffset:0;stroke-opacity:1;color-rendering:auto;image-rendering:auto;shape-rendering:auto;text-rendering:auto;enable-background:accumulate"
           inkscape:connector-curvature="0" />
        <path
           style="opacity:0.8;fill:#f0ce9a;fill-opacity:0.996078;stroke:none;stroke-width:0.402611px;stroke-linecap:butt;stroke-linejoin:miter;stroke-opacity:1"
           d="m 63.739895,62.958043 -12.692842,1.889097 12.418262,3.140975 2.671754,-2.388163 z"
           id="path12533-6-3"
           inkscape:connector-curvature="0"
           sodipodi:nodetypes="ccccc" />
      </g>
      <path
         style="fill:#ffffff;fill-opacity:1;stroke:#ffffff;stroke-width:3.74617;stroke-miterlimit:10;stroke-opacity:1"
         d="m 213.79098,120.45196 78.54316,1.86154 11.68774,24.4584 -93.37808,-4.32113 z"
         id="path4132"
         sodipodi:nodetypes="ccccc"
         inkscape:label="Quit"
         inkscape:export-filename="./buttons/area_Go.png"
         inkscape:export-xdpi="96"
         inkscape:export-ydpi="96" />
    </g>
  </g>
</svg>
