<?xml version="1.0" encoding="UTF-8" standalone="no"?>
<!-- Created with Inkscape (http://www.inkscape.org/) -->

<svg
   width="1280"
   height="720"
   viewBox="0 0 338.66663 190.49998"
   version="1.1"
   id="svg5"
   sodipodi:docname="pilot_selector.svg"
   inkscape:version="1.4 (86a8ad7, 2024-10-11)"
   inkscape:export-filename="background.png"
   inkscape:export-xdpi="96"
   inkscape:export-ydpi="96"
   xmlns:inkscape="http://www.inkscape.org/namespaces/inkscape"
   xmlns:sodipodi="http://sodipodi.sourceforge.net/DTD/sodipodi-0.dtd"
   xmlns="http://www.w3.org/2000/svg"
   xmlns:svg="http://www.w3.org/2000/svg">
  <sodipodi:namedview
     id="namedview7"
     pagecolor="#505050"
     bordercolor="#eeeeee"
     borderopacity="1"
     inkscape:showpageshadow="0"
     inkscape:pageopacity="0"
     inkscape:pagecheckerboard="0"
     inkscape:deskcolor="#505050"
     inkscape:document-units="px"
     showgrid="false"
     inkscape:zoom="1.51445"
     inkscape:cx="827.69322"
     inkscape:cy="97.395094"
     inkscape:window-width="2560"
     inkscape:window-height="1351"
     inkscape:window-x="-9"
     inkscape:window-y="-9"
     inkscape:window-maximized="1"
     inkscape:current-layer="layer1">
    <inkscape:grid
       type="xygrid"
       id="grid132"
       originx="0"
       originy="0"
       spacingy="1"
       spacingx="1"
       units="px"
       visible="false" />
  </sodipodi:namedview>
  <defs
     id="defs2">
    <linearGradient
       id="swatch1"
       inkscape:swatch="solid"
       gradientTransform="matrix(0.09848702,-0.00581705,0.04535189,0.09847657,238.46834,-39.518675)">
      <stop
         style="stop-color:#ffffff;stop-opacity:1;"
         offset="0"
         id="stop1" />
    </linearGradient>
    <filter
       inkscape:collect="always"
       style="color-interpolation-filters:sRGB"
       id="filter1395"
       x="-0.071499062"
       y="-0.2297524"
       width="1.1505826"
       height="1.4603065">
      <feGaussianBlur
         inkscape:collect="always"
         stdDeviation="1.7199641"
         id="feGaussianBlur1397" />
    </filter>
    <filter
       inkscape:collect="always"
       style="color-interpolation-filters:sRGB"
       id="filter1410"
       x="-0.1344496"
       y="-0.092342022"
       width="1.2688992"
       height="1.184684">
      <feGaussianBlur
         inkscape:collect="always"
         stdDeviation="1.6279668"
         id="feGaussianBlur1412" />
    </filter>
    <filter
       inkscape:collect="always"
       style="color-interpolation-filters:sRGB"
       id="filter3043"
       x="-0.33027839"
       y="-0.34444753"
       width="1.7109515"
       height="1.727933">
      <feGaussianBlur
         inkscape:collect="always"
         stdDeviation="0.7281344"
         id="feGaussianBlur3045" />
    </filter>
    <filter
       inkscape:collect="always"
       style="color-interpolation-filters:sRGB"
       id="filter3049"
       x="-0.3814279"
       y="-0.34114273"
       width="1.7085891"
       height="1.7390577">
      <feGaussianBlur
         inkscape:collect="always"
         stdDeviation="0.7426942"
         id="feGaussianBlur3051" />
    </filter>
    <filter
       inkscape:collect="always"
       style="color-interpolation-filters:sRGB"
       id="filter3055"
       x="-0.075957564"
       y="-0.22120584"
       width="1.1583234"
       height="1.4409677">
      <feGaussianBlur
         inkscape:collect="always"
         stdDeviation="2.1505063"
         id="feGaussianBlur3057" />
    </filter>
    <filter
       inkscape:collect="always"
       style="color-interpolation-filters:sRGB"
       id="filter3061"
       x="-0.11916623"
       y="-0.4952162"
       width="1.2383325"
       height="1.9904324">
      <feGaussianBlur
         inkscape:collect="always"
         stdDeviation="1.261165"
         id="feGaussianBlur3063" />
    </filter>
    <filter
       inkscape:collect="always"
       style="color-interpolation-filters:sRGB"
       id="filter3067"
       x="-0.087133975"
       y="-0.30055099"
       width="1.1782321"
       height="1.5984269">
      <feGaussianBlur
         inkscape:collect="always"
         stdDeviation="3.9669261"
         id="feGaussianBlur3069" />
    </filter>
    <filter
       inkscape:collect="always"
       style="color-interpolation-filters:sRGB"
       id="filter3073"
       x="-0.10686799"
       y="-0.29600819"
       width="1.2162701"
       height="1.5885512">
      <feGaussianBlur
         inkscape:collect="always"
         stdDeviation="3.4785864"
         id="feGaussianBlur3075" />
    </filter>
    <filter
       inkscape:collect="always"
       style="color-interpolation-filters:sRGB"
       id="filter3079"
       x="-0.11907878"
       y="-0.48464763"
       width="1.2381576"
       height="1.9692953">
      <feGaussianBlur
         inkscape:collect="always"
         stdDeviation="1.82356"
         id="feGaussianBlur3081" />
    </filter>
  </defs>
  <g
     inkscape:groupmode="layer"
     id="layer2"
     inkscape:label="Layer 2" />
  <g
     inkscape:label="Layer 1"
     inkscape:groupmode="layer"
     id="layer1">
    <g
       id="g5245"
       inkscape:label="Settings"
       transform="matrix(0.36327382,-0.03314792,0.03320731,0.36262419,103.9553,57.89937)"
       inkscape:export-filename="./buttons/graphics_Settings.png"
       inkscape:export-xdpi="96"
       inkscape:export-ydpi="96"
       style="stroke-width:1.3379">
      <path
         style="fill:#ffffff;fill-opacity:0.4;stroke:#ffffff;stroke-width:5.19958;stroke-miterlimit:10;stroke-dasharray:none;stroke-opacity:1"
         d="M 210.22862,32.608056 352.64215,44.80993 343.52716,73.790474 213.2694,64.025803 Z"
         id="path1224"
         sodipodi:nodetypes="ccccc"
         inkscape:label="Settings" />
      <path
         style="fill:none;stroke:url(#swatch1);stroke-width:0.707978;stroke-linecap:square;stroke-dasharray:none;stroke-opacity:1"
         d="m 329.7102,45.34857 3.32439,4.408504 16.88006,1.558994"
         id="path2498"
         sodipodi:nodetypes="ccc" />
      <g
         id="g2911"
         transform="matrix(0.80785728,0,0,0.80785728,40.484569,11.201353)">
        <path
           id="path1368"
           style="opacity:0.5;fill:#ffffff;fill-opacity:1;stroke:none;stroke-width:4.15467;stroke-miterlimit:10"
           d="m 220.37654,42.787144 a 16.100863,16.100863 3.5184626 0 0 -7.56893,1.90269 l 3.35263,19.564464 18.49277,2.053988 a 16.100863,16.100863 3.5184626 0 0 1.82417,-7.42049 16.100863,16.100863 3.5184626 0 0 -16.10064,-16.100652 z" />
        <path
           id="path4485"
           style="opacity:1;fill:#000000;fill-opacity:0.941176;stroke:none;stroke-width:4.15467;stroke-miterlimit:10"
           d="m 221.56072,54.286151 a 4.3723212,4.3723212 2.9862182 0 0 -4.37274,4.372174 4.3723212,4.3723212 2.9862182 0 0 4.37274,4.372175 4.3723212,4.3723212 2.9862182 0 0 4.37217,-4.372175 4.3723212,4.3723212 2.9862182 0 0 -4.37217,-4.372174 z" />
        <path
           id="circle2044"
           style="opacity:1;fill:#ffffff;fill-opacity:1;stroke:none;stroke-width:4.15467;stroke-miterlimit:10"
           d="m 220.97386,54.286151 a 4.3723212,4.3723212 2.9862182 0 0 -4.37274,4.372174 4.3723212,4.3723212 2.9862182 0 0 4.37274,4.372175 4.3723212,4.3723212 2.9862182 0 0 4.37217,-4.372175 4.3723212,4.3723212 2.9862182 0 0 -4.37217,-4.372174 z" />
        <path
           id="path4483"
           style="opacity:0.901635;fill:#000000;fill-opacity:1;stroke:none;stroke-width:4.15467;stroke-miterlimit:10"
           d="m 222.68337,33.742525 c -1.10407,0.0041 -2.20665,0.08146 -3.30048,0.231533 l 0.44816,3.356069 -5.27787,1.510885 0.0767,0.457334 0.84361,4.924068 c 1.93728,-0.801936 5.1131,-1.609389 7.2098,-1.615761 8.89209,1.19e-4 16.10052,7.208557 16.10064,16.100651 -0.007,2.032437 -0.39775,4.045269 -1.15308,5.932151 l 5.44273,0.604047 0.98688,-3.682737 3.35607,0.448164 c 0.15012,-1.094208 0.22748,-2.197174 0.23154,-3.301625 -4e-4,-1.104592 -0.0741,-2.207941 -0.22065,-3.302771 l -3.36696,0.44931 -1.43733,-5.363637 3.14059,-1.294631 c -0.8429,-2.044599 -1.95373,-3.968134 -3.30335,-5.720105 l -2.6907,2.072328 -3.92688,-3.926877 2.07233,-2.690701 c -1.75198,-1.349614 -3.67551,-2.46045 -5.72011,-3.303344 l -1.29406,3.140584 -5.3642,-1.437333 0.4493,-3.366959 c -1.09483,-0.146534 -2.19817,-0.220243 -3.30276,-0.220643 z"
           sodipodi:nodetypes="ccccccccccccccccccccccccccc" />
        <path
           id="circle1370"
           style="opacity:0.901635;fill:#ffffff;fill-opacity:1;stroke:none;stroke-width:4.15467;stroke-miterlimit:10"
           d="m 220.97386,33.693546 a 24.96485,24.96485 2.931535 0 0 -3.30048,0.231533 l 0.44816,3.356069 -4.17731,1.119263 0.0767,0.457334 0.84361,4.924068 a 16.100863,16.100863 3.5184626 0 1 6.10924,-1.224139 16.100863,16.100863 3.5184626 0 1 16.10065,16.100651 16.100863,16.100863 3.5184626 0 1 -1.15308,5.932151 l 5.44272,0.604047 0.98688,-3.682737 3.35607,0.448164 a 24.96485,24.96485 2.931535 0 0 0.23154,-3.301625 24.96485,24.96485 2.931535 0 0 -0.22065,-3.302771 l -3.36696,0.44931 -1.43732,-5.363637 3.14058,-1.294631 a 24.96485,24.96485 2.931535 0 0 -3.30334,-5.720105 l -2.69071,2.072328 -3.92687,-3.926877 2.07232,-2.690701 a 24.96485,24.96485 2.931535 0 0 -5.72011,-3.303344 l -1.29405,3.140584 -5.36421,-1.437333 0.44931,-3.366959 a 24.96485,24.96485 2.931535 0 0 -3.30277,-0.220643 z" />
      </g>
      <path
         style="fill:none;fill-opacity:0.4;stroke:#ffffff;stroke-width:5.19958;stroke-miterlimit:10;stroke-dasharray:none;stroke-opacity:1;filter:url(#filter3067)"
         d="M 210.22862,32.608056 352.64215,44.80993 343.52716,73.790474 213.2694,64.025803 Z"
         id="path3065"
         sodipodi:nodetypes="ccccc"
         inkscape:label="Settings" />
    </g>
    <g
       id="g2148"
       inkscape:label="Quit"
       transform="matrix(0.53262434,0,0,0.53167186,-22.549338,-13.526541)"
       inkscape:export-filename="./buttons/graphics_Ready.png"
       inkscape:export-xdpi="96"
       inkscape:export-ydpi="96"
       style="stroke-width:1.3379">
      <path
         style="fill:#ffffff;fill-opacity:0.4;stroke:url(#swatch1);stroke-width:3.37955;stroke-miterlimit:10;stroke-opacity:1"
         d="m 218.56151,121.82999 71.35094,0.83622 10.04953,22.90792 -84.62676,1.65375 z"
         id="path395"
         sodipodi:nodetypes="ccccc"
         inkscape:label="Quit" />
      <path
         style="fill:none;stroke:url(#swatch1);stroke-width:0.638692;stroke-linecap:square;stroke-dasharray:none;stroke-opacity:1"
         d="m 236.39028,145.53839 -2.41182,-2.20795 -17.70163,0.22133"
         id="path435"
         sodipodi:nodetypes="ccc" />
      <path
         id="path507"
         style="fill:#ffffff;fill-opacity:1;stroke:none;stroke-width:5.00182"
         d="m 247.68685,113.30193 0.0417,1.83603 11.57282,0.104 -0.47929,-1.88852 z m -4.59594,3.48837 0.0873,1.83603 25.36453,0.34505 -0.99448,-1.88852 z m 29.06011,32.84255 -24.9648,0.65608 -0.0873,1.837 24.05764,-0.60456 z m -9.24137,3.72942 -11.17309,0.41502 -0.0427,1.83604 10.73552,-0.36254 z"
         sodipodi:nodetypes="cccccccccccccccccccc" />
      <path
         style="fill:none;fill-opacity:0.4;stroke:url(#swatch1);stroke-width:3.37955;stroke-miterlimit:10;stroke-opacity:1;filter:url(#filter1395)"
         d="m 218.56151,121.82999 71.35094,0.83622 10.04953,22.90792 -84.62676,1.65375 z"
         id="path1393"
         sodipodi:nodetypes="ccccc"
         inkscape:label="Quit" />
      <path
         id="path1408"
         style="fill:#ffffff;fill-opacity:1;stroke:none;stroke-width:5.00182;filter:url(#filter1410)"
         d="m 247.68685,113.30193 0.0417,1.83603 11.57282,0.104 -0.47929,-1.88852 z m -4.59594,3.48837 0.0873,1.83603 25.36453,0.34505 -0.99448,-1.88852 z m 29.06011,32.84255 -24.9648,0.65608 -0.0873,1.837 24.05764,-0.60456 z m -9.24137,3.72942 -11.17309,0.41502 -0.0427,1.83604 10.73552,-0.36254 z"
         sodipodi:nodetypes="cccccccccccccccccccc" />
    </g>
    <g
       id="g1120"
       inkscape:label="Settings"
       transform="matrix(0.36327382,-0.03314792,0.03320731,0.36262419,102.80825,89.924981)"
       inkscape:export-filename="./buttons/graphics_Disconnect.png"
       inkscape:export-xdpi="96"
       inkscape:export-ydpi="96"
       style="stroke-width:1.3379">
      <path
         style="fill:#ffffff;fill-opacity:0.4;stroke:#ffffff;stroke-width:5.19958;stroke-miterlimit:10;stroke-dasharray:none;stroke-opacity:1"
         d="m 232.84759,34.704766 106.51908,8.746027 -7.6752,29.112156 -94.26375,-5.827962 z"
         id="path1104"
         sodipodi:nodetypes="ccccc"
         inkscape:label="Settings" />
      <path
         style="fill:none;stroke:url(#swatch1);stroke-width:0.707978;stroke-linecap:square;stroke-dasharray:none;stroke-opacity:1"
         d="m 312.55231,68.944861 2.82475,-3.010454 15.34221,1.499094"
         id="path1112"
         sodipodi:nodetypes="ccc" />
      <path
         id="path507-6"
         style="fill:#ffffff;fill-opacity:1;stroke:none;stroke-width:7.30311"
         d="m 302.58433,76.999902 -36.40812,-2.008986 -0.34523,2.662931 35.08186,1.976269 z m -13.8915,4.330134 -16.30901,-0.722485 -0.28021,2.666827 15.66599,0.746901 z"
         sodipodi:nodetypes="cccccccccc" />
      <path
         style="fill:none;fill-opacity:0.4;stroke:#ffffff;stroke-width:5.19958;stroke-miterlimit:10;stroke-dasharray:none;stroke-opacity:1;filter:url(#filter3073)"
         d="m 232.84759,34.704766 106.51908,8.746027 -7.6752,29.112156 -94.26375,-5.827962 z"
         id="path3071"
         sodipodi:nodetypes="ccccc"
         inkscape:label="Settings" />
      <g
         id="g2806"
         transform="matrix(1.0038355,0,0,1.0038355,19.575238,18.165728)">
        <path
           id="rect2262"
           style="fill:#000000;fill-opacity:1;stroke:none;stroke-width:7.30311"
           d="m 208.0568,22.152088 -4.52416,3.771873 4.94932,5.956036 -5.94717,4.959975 3.76518,4.531033 5.94717,-4.959975 4.94932,5.956036 4.52429,-3.773282 -4.94932,-5.956037 5.94717,-4.959974 -3.76531,-4.529623 -5.94717,4.959974 z" />
        <path
           id="path2802"
           style="fill:#cccccc;fill-opacity:1;stroke:none;stroke-width:7.30311"
           d="m 206.18498,21.493624 -4.52416,3.771873 4.94932,5.956036 -5.94717,4.959975 3.76518,4.531032 5.94717,-4.959974 4.94932,5.956036 4.52429,-3.773283 -4.94932,-5.956036 5.94716,-4.959975 -3.7653,-4.529623 -5.94717,4.959975 z" />
      </g>
      <path
         id="path3077"
         style="fill:#ffffff;fill-opacity:1;stroke:none;stroke-width:7.30311;filter:url(#filter3079)"
         d="m 302.58433,76.999902 -36.40812,-2.008986 -0.34523,2.662931 35.08186,1.976269 z m -13.8915,4.330134 -16.30901,-0.722485 -0.28021,2.666827 15.66599,0.746901 z"
         sodipodi:nodetypes="cccccccccc" />
    </g>
    <g
       id="g1142"
       inkscape:label="Quit"
       transform="matrix(0.53262434,0,0,0.53167186,70.761268,-24.109873)"
       inkscape:export-filename="./buttons/graphics_Go.png"
       inkscape:export-xdpi="96"
       inkscape:export-ydpi="96"
       style="stroke-width:1.3379">
      <path
         style="fill:#ffffff;fill-opacity:0.4;stroke:url(#swatch1);stroke-width:3.74617;stroke-miterlimit:10;stroke-opacity:1"
         d="m 213.79098,120.45196 77.80834,2.69073 13.79012,29.06689 -98.57303,0.28137 z"
         id="path1122"
         sodipodi:nodetypes="ccccc"
         inkscape:label="Quit" />
      <path
         style="fill:none;stroke:url(#swatch1);stroke-width:0.707978;stroke-linecap:square;stroke-dasharray:none;stroke-opacity:1"
         d="m 236.02083,122.46458 -2.72934,2.38476 -19.61098,-0.70066"
         id="path1128"
         sodipodi:nodetypes="ccc" />
      <path
         id="path507-3"
         style="fill:#ffffff;fill-opacity:1;stroke:none;stroke-width:5.00182"
         d="m 245.36899,112.02043 0.003,1.8365 11.568,0.3503 -0.43913,-1.8983 z m -4.66889,3.38976 0.0483,1.83748 25.35148,0.88483 -0.9542,-1.90926 z"
         sodipodi:nodetypes="cccccccccc" />
      <path
         style="fill:none;fill-opacity:0.4;stroke:url(#swatch1);stroke-width:3.74617;stroke-miterlimit:10;stroke-opacity:1;filter:url(#filter3055)"
         d="m 213.79098,120.45196 77.80834,2.69073 13.79012,29.06689 -98.57303,0.28137 z"
         id="path3053"
         sodipodi:nodetypes="ccccc"
         inkscape:label="Quit" />
      <g
         id="g1138"
         transform="matrix(0.80227375,-0.30759448,0.34440443,0.83152357,218.86174,99.172102)"
         style="opacity:1;stroke-width:1.52169">
        <path
           style="fill:#000000;fill-opacity:0.726405;stroke:none;stroke-width:0.402611px;stroke-linecap:butt;stroke-linejoin:miter;stroke-opacity:1"
           d="m 61.174562,58.84026 23.022971,8.770647 -23.022972,8.770649 6.577993,-8.770648 z"
           id="path1130"
           inkscape:connector-curvature="0"
           sodipodi:nodetypes="ccccc" />
        <path
           style="fill:#c2c2c2;fill-opacity:0.996078;stroke:none;stroke-width:0.402611px;stroke-linecap:butt;stroke-linejoin:miter;stroke-opacity:1"
           d="m 63.952877,56.499131 23.022971,8.770647 -23.022972,8.770649 6.577993,-8.770648 z"
           id="path1132"
           inkscape:connector-curvature="0"
           sodipodi:nodetypes="ccccc" />
        <path
           id="path1134"
           d="m 57.055344,54.984699 4.590717,6.461862 c -0.486357,0.01815 -0.968549,0.03898 -1.457299,0.05501 l -6.191617,-2.667439 3.484472,2.749025 c -0.645273,0.0184 -1.304331,0.03387 -1.952771,0.05087 l -15.979167,2.719755 17.178706,4.730483 -3.460747,2.194408 6.041817,-1.907827 c 0.585193,0.06094 1.171324,0.118935 1.75752,0.175462 l -5.17687,5.865413 7.657106,-5.63934 3.128167,-4.065455 -2.618946,-4.352167 z"
           style="color:#000000;font-style:normal;font-variant:normal;font-weight:normal;font-stretch:normal;font-size:medium;line-height:normal;font-family:sans-serif;font-variant-ligatures:normal;font-variant-position:normal;font-variant-caps:normal;font-variant-numeric:normal;font-variant-alternates:normal;font-feature-settings:normal;text-indent:0;text-align:start;text-decoration:none;text-decoration-line:none;text-decoration-style:solid;text-decoration-color:#000000;letter-spacing:normal;word-spacing:normal;text-transform:none;writing-mode:lr-tb;direction:ltr;text-orientation:mixed;dominant-baseline:auto;baseline-shift:baseline;text-anchor:start;white-space:normal;shape-padding:0;clip-rule:nonzero;display:inline;overflow:visible;visibility:visible;opacity:0.8;isolation:auto;mix-blend-mode:normal;color-interpolation:sRGB;color-interpolation-filters:linearRGB;solid-color:#000000;solid-opacity:1;vector-effect:none;fill:#bcbcbc;fill-opacity:0.701961;fill-rule:nonzero;stroke:none;stroke-width:4.56506;stroke-linecap:butt;stroke-linejoin:miter;stroke-miterlimit:4;stroke-dasharray:none;stroke-dashoffset:0;stroke-opacity:1;color-rendering:auto;image-rendering:auto;shape-rendering:auto;text-rendering:auto;enable-background:accumulate"
           inkscape:connector-curvature="0" />
        <path
           style="opacity:1;fill:#dbdbdb;fill-opacity:0.996078;stroke:none;stroke-width:0.402611px;stroke-linecap:butt;stroke-linejoin:miter;stroke-opacity:1"
           d="m 63.739895,62.958043 -12.692842,1.889097 12.418262,3.140975 2.671754,-2.388163 z"
           id="path1136"
           inkscape:connector-curvature="0"
           sodipodi:nodetypes="ccccc" />
      </g>
      <path
         id="path3059"
         style="fill:#ffffff;fill-opacity:1;stroke:none;stroke-width:5.00182;filter:url(#filter3061)"
         d="m 245.36899,112.02043 0.003,1.8365 11.568,0.3503 -0.43913,-1.8983 z m -4.66889,3.38976 0.0483,1.83748 25.35148,0.88483 -0.9542,-1.90926 z"
         sodipodi:nodetypes="cccccccccc" />
    </g>
    <g
       id="g9"
       inkscape:export-filename="./buttons/arrow_left.png"
       inkscape:export-xdpi="96"
       inkscape:export-ydpi="96"
       transform="translate(0,-26.45833)">
      <path
         style="fill:#ffffff;fill-opacity:0.4;stroke:url(#swatch1);stroke-width:1.79842;stroke-miterlimit:10;stroke-opacity:1"
         d="m 55.150446,44.621619 0.285368,2.800441 1.872869,1.742109 -1.302131,1.212941 0.285368,3.329608 -8.465493,-5.88983 z"
         id="path395-7"
         sodipodi:nodetypes="ccccccc"
         inkscape:label="Quit"
         inkscape:export-filename="./buttons/arrow_left.png"
         inkscape:export-xdpi="96"
         inkscape:export-ydpi="96" />
      <path
         style="fill:none;fill-opacity:0.4;stroke:url(#swatch1);stroke-width:1.79842;stroke-miterlimit:10;stroke-opacity:1;filter:url(#filter3049)"
         d="m 55.150446,44.621619 0.285368,2.800441 1.872869,1.742109 -1.302131,1.212941 0.285368,3.329608 -8.465493,-5.88983 z"
         id="path3047"
         sodipodi:nodetypes="ccccccc"
         inkscape:label="Quit"
         inkscape:export-filename="./buttons/arrow_left.png"
         inkscape:export-xdpi="96"
         inkscape:export-ydpi="96" />
    </g>
    <g
       id="g11"
       inkscape:export-filename="./buttons/arrow_right.png"
       inkscape:export-xdpi="96"
       inkscape:export-ydpi="96"
       transform="translate(11.472238,-25.45889)">
      <path
         style="fill:#ffffff;fill-opacity:0.4;stroke:url(#swatch1);stroke-width:1.79842;stroke-miterlimit:10;stroke-opacity:1"
         d="m 63.872432,44.621619 0.328262,2.800441 -1.259237,1.742109 1.736007,1.212941 0.508017,3.329608 6.874237,-5.88983 z"
         id="path3793"
         sodipodi:nodetypes="ccccccc"
         inkscape:label="Quit"
         inkscape:export-filename="./buttons/arrow_right.png"
         inkscape:export-xdpi="96"
         inkscape:export-ydpi="96" />
      <path
         style="mix-blend-mode:normal;fill:none;fill-opacity:0.4;stroke:url(#swatch1);stroke-width:1.79842;stroke-miterlimit:10;stroke-opacity:1;filter:url(#filter3043)"
         d="m 63.872432,44.621619 0.328262,2.800441 -1.259237,1.742109 1.736007,1.212941 0.508017,3.329608 6.874237,-5.88983 z"
         id="path3041"
         sodipodi:nodetypes="ccccccc"
         inkscape:label="Quit"
         inkscape:export-filename="./buttons/arrow_right.png"
         inkscape:export-xdpi="96"
         inkscape:export-ydpi="96" />
    </g>
    <path
       style="fill:#ffffff;fill-opacity:1;stroke:url(#swatch1);stroke-width:1.99352;stroke-miterlimit:10;stroke-opacity:1"
       d="m 29.942544,51.506784 38.003251,0.444594 5.35262,12.179493 -45.074272,0.87926 z"
       id="path983"
       sodipodi:nodetypes="ccccc"
       inkscape:label="Quit"
       inkscape:export-filename="./buttons/area_Ready.png"
       inkscape:export-xdpi="96"
       inkscape:export-ydpi="96" />
    <path
       style="fill:#ffffff;fill-opacity:1;stroke:url(#swatch1);stroke-width:1.99352;stroke-miterlimit:10;stroke-opacity:1"
       d="m 265.67097,36.224974 41.44261,1.430585 7.34496,15.454048 -52.5024,0.149596 z"
       id="path1140"
       sodipodi:nodetypes="ccccc"
       inkscape:label="Quit"
       inkscape:export-filename="./buttons/area_Go.png"
       inkscape:export-xdpi="96"
       inkscape:export-ydpi="96" />
    <path
       style="fill:#ffffff;fill-opacity:1;stroke:#ffffff;stroke-width:1.89505;stroke-miterlimit:10;stroke-dasharray:none;stroke-opacity:1"
       d="m 262.64071,59.086375 52.1403,-0.296017 -2.34887,10.811189 -47.6435,0.776868 z"
       id="path981"
       sodipodi:nodetypes="ccccc"
       inkscape:label="Settings"
       inkscape:export-filename="./buttons/area_Settings.png"
       inkscape:export-xdpi="96"
       inkscape:export-ydpi="96" />
    <path
       style="fill:#ffffff;fill-opacity:1;stroke:#ffffff;stroke-width:1.89505;stroke-miterlimit:10;stroke-dasharray:none;stroke-opacity:1"
       d="m 266.48322,78.948233 45.5831,-0.359365 -2.06854,10.811189 -40.78708,1.011288 z"
       id="path1118"
       sodipodi:nodetypes="ccccc"
       inkscape:label="Settings"
       inkscape:export-filename="./buttons/area_Back.png"
       inkscape:export-xdpi="96"
       inkscape:export-ydpi="96" />
    <g
       id="g7"
       inkscape:label="Settings"
       transform="matrix(0.36327382,-0.03314792,0.03320731,0.36262419,98.978645,73.946816)"
       inkscape:export-filename="./buttons/graphics_Back.png"
       inkscape:export-xdpi="96"
       inkscape:export-ydpi="96"
       style="stroke-width:1.3379">
      <path
         style="fill:#ffffff;fill-opacity:0.4;stroke:#ffffff;stroke-width:5.19958;stroke-miterlimit:10;stroke-dasharray:none;stroke-opacity:1"
         d="M 232.84759,34.704766 357.37624,45.097068 349.02655,74.147569 237.42772,66.734987 Z"
         id="path1"
         sodipodi:nodetypes="ccccc"
         inkscape:label="Settings" />
      <path
         style="fill:none;stroke:url(#swatch1);stroke-width:0.707978;stroke-linecap:square;stroke-dasharray:none;stroke-opacity:1"
         d="m 351.19274,67.321584 -5.19769,-6.469451 4.70074,-16.261221"
         id="path2"
         sodipodi:nodetypes="ccc" />
      <path
         style="fill:none;fill-opacity:0.4;stroke:#ffffff;stroke-width:5.19958;stroke-miterlimit:10;stroke-dasharray:none;stroke-opacity:1;filter:url(#filter3073)"
         d="M 232.84759,34.704766 357.37624,45.097068 349.02655,74.147569 237.42772,66.734987 Z"
         id="path4"
         sodipodi:nodetypes="ccccc"
         inkscape:label="Settings" />
      <path
         style="fill:none;stroke:#ffffff;stroke-width:0.7078067;stroke-miterlimit:40000;stroke-dasharray:none"
         d="m 272.56634,38.011916 4.64345,5.183916 35.47241,2.561235 4.0494,-3.377222"
         id="path7" />
      <path
         id="path439"
         style="fill:#000000;fill-opacity:1;stroke:none;stroke-width:7.68282;stroke-miterlimit:10"
         d="m 238.72412,40.34543 -16.75781,5.449074 8.58142,7.765363 2.72546,-4.404813 20.73209,1.895145 c 4.60712,0.421142 4.33239,7.080642 -0.63285,6.923076 l -2.30356,-0.210572 -2.72547,4.404813 4.60713,0.421143 c 11.51781,1.052856 12.99445,-15.100988 1.47665,-16.153844 l -18.42853,-1.684574 z m 0.82692,16.364415 -2.72546,4.404812 2.30356,0.210572 2.72546,-4.404813 z m 4.60713,0.421143 -2.72546,4.404813 4.60713,0.421143 2.72546,-4.404813 z" />
      <path
         id="path8"
         style="fill:#cccccc;fill-opacity:1;stroke:none;stroke-width:7.68282;stroke-miterlimit:10"
         d="m 237.35006,39.441897 -16.75781,5.449074 8.58142,7.765363 2.72546,-4.404813 20.73209,1.895145 c 4.60712,0.421142 4.33239,7.080642 -0.63285,6.923076 l -2.30356,-0.210572 -2.72547,4.404813 4.60713,0.421143 c 11.51781,1.052856 12.99445,-15.100988 1.47665,-16.153844 l -18.42853,-1.684574 z m 0.82692,16.364415 -2.72546,4.404812 2.30356,0.210572 2.72546,-4.404813 z m 4.60713,0.421143 -2.72546,4.404813 4.60713,0.421143 2.72546,-4.404813 z" />
    </g>
    <path
       style="fill:#ffffff;fill-opacity:1;stroke:#ffffff;stroke-width:1.89505;stroke-miterlimit:10;stroke-dasharray:none;stroke-opacity:1"
       d="m 273.10578,92.694885 38.98602,-0.359365 -1.82146,10.81119 -34.43709,1.01129 z"
       id="path9"
       sodipodi:nodetypes="ccccc"
       inkscape:label="Settings"
       inkscape:export-filename="./buttons/area_Disconnect.png"
       inkscape:export-xdpi="96"
       inkscape:export-ydpi="96" />
    <rect
       style="fill:#ff0000;stroke-width:0.5"
       id="rect1"
       width="40.531765"
       height="69.707649"
       x="185.88705"
       y="-43.676464" />
    <rect
       style="fill:#00ffff;stroke-width:0.506682"
       id="rect2"
       width="39.658234"
       height="46.107613"
       x="191.75354"
       y="-48.081093"
       transform="matrix(1,0,0.22742349,0.97379595,0,0)" />
    <path
       style="fill:#00ffff;stroke-width:0.499999"
       d="m 215.78702,-4.0182352 -2.97001,11.0064702 8.7353,-11.1811759 z"
       id="path3" />
  </g>
</svg>
