<?xml version="1.0" encoding="UTF-8" standalone="no"?>
<svg
   viewBox="0 0 648.37671 648.34851"
   version="1.1"
   id="svg8"
   sodipodi:docname="heart-drop.svg"
   inkscape:version="1.1 (1:1.1+202105261517+ce6663b3b7)"
   width="648.37671"
   height="648.34851"
   xmlns:inkscape="http://www.inkscape.org/namespaces/inkscape"
   xmlns:sodipodi="http://sodipodi.sourceforge.net/DTD/sodipodi-0.dtd"
   xmlns="http://www.w3.org/2000/svg"
   xmlns:svg="http://www.w3.org/2000/svg">
  <defs
     id="defs12" />
  <sodipodi:namedview
     id="namedview10"
     pagecolor="#505050"
     bordercolor="#eeeeee"
     borderopacity="1"
     inkscape:pageshadow="0"
     inkscape:pageopacity="0"
     inkscape:pagecheckerboard="0"
     showgrid="false"
     inkscape:zoom="0.58281067"
     inkscape:cx="582.52194"
     inkscape:cy="265.09467"
     inkscape:window-width="1864"
     inkscape:window-height="1016"
     inkscape:window-x="56"
     inkscape:window-y="27"
     inkscape:window-maximized="1"
     inkscape:current-layer="svg8"
     fit-margin-top="0"
     fit-margin-left="0"
     fit-margin-right="0"
     fit-margin-bottom="0" />
  <path
     id="path1862"
     style="opacity:0.7;fill:#ffffff;stroke:none;stroke-width:11.3386;stroke-linecap:square;stroke-linejoin:bevel"
     d="m 88.681471,101.34172 a 324.2533,324.2533 0 0 0 0.01795,445.64714 l 17.039619,-17.03961 a 300.16129,300.16129 0 0 1 -0.0166,-411.56653 z m 12.660249,-12.660248 17.04099,17.040998 a 300.16129,300.16129 0 0 1 411.56654,0.0166 l 17.03961,-17.03962 a 324.2533,324.2533 0 0 0 -445.64714,-0.01795 z m 0.0166,470.969018 a 324.2533,324.2533 0 0 0 445.64714,0.0152 l -17.041,-17.04099 a 300.16129,300.16129 0 0 1 -411.56377,-0.0166 z M 542.61088,118.39791 a 300.16129,300.16129 0 0 1 0.0414,411.59415 l 17.04376,17.04376 a 324.2533,324.2533 0 0 0 -0.047,-445.67615 z" />
  <path
     id="path1432"
     style="opacity:0.7;fill:#ffffff;stroke:none;stroke-width:14.2326;stroke-linecap:square;stroke-linejoin:bevel"
     d="m 343.65558,306.04854 c 10.25696,9.87663 16.66935,23.73405 16.66935,39.09916 0,29.97913 -24.32237,54.26652 -54.30389,54.26652 -4.85579,0 -9.57404,-0.63664 -14.05309,-1.82906 6.8603,-4.96343 11.4742,-14.06314 11.4742,-24.44807 0,-15.70358 -10.54663,-28.40518 -23.51136,-28.40518 -12.96472,0 -23.47165,12.7016 -23.47165,28.40518 0,4.90842 1.03335,9.54019 2.84052,13.56954 7.61618,28.25449 33.284,48.92186 64.02379,48.92186 36.78919,0 66.37842,-29.58923 66.37842,-66.37842 0,-29.68491 -19.27964,-54.66204 -46.04629,-63.20153 z" />
  <path
     id="path932"
     style="opacity:0.7;fill:#ffffff;stroke:none;stroke-width:11.3386;stroke-linecap:square;stroke-linejoin:bevel"
     d="M 43.309171,333.12109 A 281.27029,281.27029 0 0 0 323.99277,605.43945 281.27029,281.27029 0 0 0 604.67832,333.12109 H 530.95175 A 207.59938,207.59938 0 0 1 323.99277,531.76758 207.59938,207.59938 0 0 1 117.03378,333.12109 Z m 0,-17.90429 H 116.61972 A 207.59938,207.59938 0 0 1 323.99277,116.56836 207.59938,207.59938 0 0 1 531.36582,315.2168 h 73.70312 A 281.27029,281.27029 0 0 0 323.99277,42.898443 281.27029,281.27029 0 0 0 43.309171,315.2168 Z" />
  <path
     id="circle1193"
     style="opacity:0.7;fill:#ffffff;stroke:none;stroke-width:7.55412;stroke-linecap:square;stroke-linejoin:bevel"
     d="m 333.1412,136.81641 v 36.5625 c 0.23417,2.49329 0.57617,4.81989 1.09571,6.75781 25.88639,96.61111 77.21484,123.2341 77.21484,200.18164 0,40.56828 -36.99256,70.63982 -78.31055,74.55078 v 55.78907 A 187.3907,187.3907 0 0 0 511.58066,323.97266 187.3907,187.3907 0 0 0 333.1412,136.81641 Z m -17.90429,0.4707 a 187.3907,187.3907 0 0 0 -178.4375,186.68555 187.3907,187.3907 0 0 0 178.4375,186.68555 v -55.79883 c -40.9033,-4.11297 -80.38282,-36.28054 -80.38282,-79.06445 0,-80.20188 52.28184,-95.75474 79.16211,-196.07227 0.69425,-2.59036 0.98184,-5.94948 0.88086,-9.79492 l 0.33985,0.0469 z" />
</svg>
