<?xml version="1.0" encoding="UTF-8" standalone="no"?>
<svg
   xmlns:dc="http://purl.org/dc/elements/1.1/"
   xmlns:cc="http://creativecommons.org/ns#"
   xmlns:rdf="http://www.w3.org/1999/02/22-rdf-syntax-ns#"
   xmlns:svg="http://www.w3.org/2000/svg"
   xmlns="http://www.w3.org/2000/svg"
   xmlns:sodipodi="http://sodipodi.sourceforge.net/DTD/sodipodi-0.dtd"
   xmlns:inkscape="http://www.inkscape.org/namespaces/inkscape"
   width="210mm"
   height="297mm"
   viewBox="0 0 210 297"
   version="1.1"
   id="svg8"
   inkscape:version="1.0.1 (1.0.1+r73)"
   sodipodi:docname="signs.svg">
  <defs
     id="defs2" />
  <sodipodi:namedview
     id="base"
     pagecolor="#222222"
     bordercolor="#666666"
     borderopacity="1.0"
     inkscape:pageopacity="0"
     inkscape:pageshadow="2"
     inkscape:zoom="0.175"
     inkscape:cx="696.26372"
     inkscape:cy="1253.1391"
     inkscape:document-units="mm"
     inkscape:current-layer="layer1"
     inkscape:document-rotation="0"
     showgrid="true"
     showborder="false"
     inkscape:snap-global="true"
     inkscape:window-width="1224"
     inkscape:window-height="656"
     inkscape:window-x="56"
     inkscape:window-y="27"
     inkscape:window-maximized="1">
    <inkscape:grid
       type="xygrid"
       id="grid10"
       spacingx="13.229167"
       spacingy="13.229167"
       empspacing="2" />
  </sodipodi:namedview>
  <metadata
     id="metadata5">
    <rdf:RDF>
      <cc:Work
         rdf:about="">
        <dc:format>image/svg+xml</dc:format>
        <dc:type
           rdf:resource="http://purl.org/dc/dcmitype/StillImage" />
        <dc:title></dc:title>
      </cc:Work>
    </rdf:RDF>
  </metadata>
  <g
     inkscape:label="Layer 1"
     inkscape:groupmode="layer"
     id="layer1">
    <path
       id="path12"
       style="fill:#ffffff;stroke:none;stroke-width:0.999999px;stroke-linecap:butt;stroke-linejoin:miter;stroke-opacity:1"
       d="M -100 300 L -100 350 L 50 500 L -100 650 L -100 700 L -50 700 L 100 550 L 250 700 L 300 700 L 300 650 L 150 500 L 300 350 L 300 300 L 250 300 L 100 450 L -50 300 L -100 300 z "
       transform="scale(0.26458333)"
       inkscape:export-filename="/home/nitaku/repos/superstarfighter/godot/assets/sprites/signs/X.png"
       inkscape:export-xdpi="48"
       inkscape:export-ydpi="48" />
    <path
       id="path17"
       style="fill:#ffffff;stroke:none;stroke-width:2;stroke-linejoin:round"
       d="M 699.79102 300 A 199.99999 199.99999 0 0 0 500 500 A 199.99999 199.99999 0 0 0 700 700 A 199.99999 199.99999 0 0 0 900 500 A 199.99999 199.99999 0 0 0 700 300 A 199.99999 199.99999 0 0 0 699.79102 300 z M 699.44336 361.8457 A 138.15476 138.15476 0 0 1 700 361.8457 A 138.15476 138.15476 0 0 1 838.1543 500 A 138.15476 138.15476 0 0 1 700 638.1543 A 138.15476 138.15476 0 0 1 561.8457 500 A 138.15476 138.15476 0 0 1 699.44336 361.8457 z "
       transform="scale(0.26458333)"
       inkscape:export-filename="/home/nitaku/repos/superstarfighter/godot/assets/sprites/signs/O.png"
       inkscape:export-xdpi="48"
       inkscape:export-ydpi="48" />
    <path
       style="fill:#ffffff;stroke:none;stroke-width:0.264583px;stroke-linecap:butt;stroke-linejoin:miter;stroke-opacity:1"
       d="m -52.916668,317.50002 v 52.91666 l 105.833337,-2e-5 V 396.875 L 119.0625,343.95834 52.916669,291.04166 V 317.5 Z"
       id="path27"
       sodipodi:nodetypes="cccccccc"
       inkscape:export-filename="/home/nitaku/repos/superstarfighter/godot/assets/sprites/signs/arrow.png"
       inkscape:export-xdpi="48"
       inkscape:export-ydpi="48" />
  </g>
</svg>
