<?xml version="1.0" encoding="UTF-8" standalone="no"?>
<svg
   xmlns:dc="http://purl.org/dc/elements/1.1/"
   xmlns:cc="http://creativecommons.org/ns#"
   xmlns:rdf="http://www.w3.org/1999/02/22-rdf-syntax-ns#"
   xmlns:svg="http://www.w3.org/2000/svg"
   xmlns="http://www.w3.org/2000/svg"
   xmlns:sodipodi="http://sodipodi.sourceforge.net/DTD/sodipodi-0.dtd"
   xmlns:inkscape="http://www.inkscape.org/namespaces/inkscape"
   width="210mm"
   height="297mm"
   viewBox="0 0 210 297"
   version="1.1"
   id="svg8"
   inkscape:version="1.0.1 (0767f8302a, 2020-10-17)"
   sodipodi:docname="signs.svg">
  <defs
     id="defs2" />
  <sodipodi:namedview
     id="base"
     pagecolor="#222222"
     bordercolor="#666666"
     borderopacity="1.0"
     inkscape:pageopacity="0"
     inkscape:pageshadow="2"
     inkscape:zoom="0.49497475"
     inkscape:cx="814.18883"
     inkscape:cy="778.51059"
     inkscape:document-units="mm"
     inkscape:current-layer="layer1"
     inkscape:document-rotation="0"
     showgrid="false"
     showborder="false"
     inkscape:snap-global="true"
     inkscape:window-width="1848"
     inkscape:window-height="1016"
     inkscape:window-x="72"
     inkscape:window-y="27"
     inkscape:window-maximized="1">
    <inkscape:grid
       type="xygrid"
       id="grid10"
       spacingx="13.229167"
       spacingy="13.229167"
       empspacing="2" />
  </sodipodi:namedview>
  <metadata
     id="metadata5">
    <rdf:RDF>
      <cc:Work
         rdf:about="">
        <dc:format>image/svg+xml</dc:format>
        <dc:type
           rdf:resource="http://purl.org/dc/dcmitype/StillImage" />
        <dc:title />
      </cc:Work>
    </rdf:RDF>
  </metadata>
  <g
     inkscape:label="Layer 1"
     inkscape:groupmode="layer"
     id="layer1">
    <path
       id="path12"
       style="fill:#ffffff;stroke:none;stroke-width:0.264583px;stroke-linecap:butt;stroke-linejoin:miter;stroke-opacity:1"
       d="m -23.021284,82.812047 v 12.369904 l 37.109713,37.109709 -37.109713,37.10971 v 12.36991 h 12.369905 l 37.109712,-37.10971 37.109713,37.10971 H 75.93795 V 169.40137 L 38.828237,132.29166 75.93795,95.181951 V 82.812047 H 63.568046 L 26.458333,119.92176 -10.651379,82.812047 Z"
       inkscape:export-filename="/home/nitaku/repos/superstarfighter/godot/assets/sprites/signs/X.png"
       inkscape:export-xdpi="48"
       inkscape:export-ydpi="48" />
    <path
       id="path17"
       style="fill:#ffffff;stroke:none;stroke-width:2;stroke-linejoin:round"
       d="M 699.79102 300 A 199.99999 199.99999 0 0 0 500 500 A 199.99999 199.99999 0 0 0 700 700 A 199.99999 199.99999 0 0 0 900 500 A 199.99999 199.99999 0 0 0 700 300 A 199.99999 199.99999 0 0 0 699.79102 300 z M 699.44336 361.8457 A 138.15476 138.15476 0 0 1 700 361.8457 A 138.15476 138.15476 0 0 1 838.1543 500 A 138.15476 138.15476 0 0 1 700 638.1543 A 138.15476 138.15476 0 0 1 561.8457 500 A 138.15476 138.15476 0 0 1 699.44336 361.8457 z "
       transform="scale(0.26458333)"
       inkscape:export-filename="/home/nitaku/repos/superstarfighter/godot/assets/sprites/signs/O.png"
       inkscape:export-xdpi="48"
       inkscape:export-ydpi="48" />
    <path
       style="fill:#ffffff;stroke:none;stroke-width:0.264583px;stroke-linecap:butt;stroke-linejoin:miter;stroke-opacity:1"
       d="m -52.916668,317.50002 v 52.91666 l 105.833337,-2e-5 V 396.875 L 119.0625,343.95834 52.916669,291.04166 V 317.5 Z"
       id="path27"
       sodipodi:nodetypes="cccccccc"
       inkscape:export-filename="/home/nitaku/repos/superstarfighter/godot/assets/sprites/signs/arrow.png"
       inkscape:export-xdpi="48"
       inkscape:export-ydpi="48" />
    <g
       class=""
       id="g838"
       transform="matrix(0.26458333,0,0,0.26458333,331.40735,80.045864)"
       inkscape:export-xdpi="40.522396"
       inkscape:export-ydpi="40.522396">
      <path
         d="M 253.78,17.188 C 123.052,17.188 16.875,123.365 16.875,254.094 16.875,384.824 123.052,491 253.78,491 384.51,491 490.687,384.82 490.687,254.094 490.687,123.364 384.51,17.188 253.781,17.188 Z m 0,18.687 c 120.63,0 218.22,97.59 218.22,218.22 0,120.626 -97.59,218.218 -218.22,218.218 -120.628,0 -218.218,-97.59 -218.218,-218.22 0,-120.63 97.59,-218.218 218.22,-218.218 z m 101.19,46.313 -76.41,132.875 c 15.916,9.635 25.177,26.33 26.125,43.78 h 148.407 c 1.644,-70.01 -33.49,-138.867 -98.125,-176.656 z m -205.126,2.468 c -27.1,16.725 -50.68,40.147 -67.72,69.656 -19.01,32.928 -26.926,69.12 -26,104.532 H 196 c 0.41,-8.353 2.737,-16.73 7.188,-24.438 5.21,-9.024 12.64,-16 21.218,-20.625 L 149.844,84.657 Z m 100.594,141.156 c -0.864,-0.002 -1.736,0.035 -2.594,0.094 -11.446,0.793 -22.288,7.084 -28.5,17.844 -9.94,17.216 -4.09,38.967 13.125,48.906 17.213,9.94 38.935,4.12 48.874,-13.094 9.94,-17.215 4.12,-38.967 -13.094,-48.906 -5.648,-3.26 -11.768,-4.824 -17.813,-4.844 z m 28.218,82.375 c -16.127,9.75 -36.864,10.846 -54.406,1.25 l -68.03,117.22 c 29.454,16.785 61.044,25.177 92.75,26 34.567,0.898 68.72,-7.786 99.124,-24.032 z"
         fill="#ffffff"
         fill-opacity="1"
         id="path836" />
    </g>
    <path
       id="rect957"
       style="fill:#ffffff;stroke-width:2.11667;stroke-linecap:round"
       d="M 132.29167,211.66667 V 317.5 H 238.125 V 211.66667 Z m 15.875,15.875 h 74.08334 v 74.08334 h -74.08334 z"
       sodipodi:nodetypes="cccccccccc"
       inkscape:export-xdpi="57"
       inkscape:export-ydpi="57" />
  </g>
</svg>
