<?xml version="1.0" encoding="UTF-8" standalone="no"?>
<svg
   xmlns:dc="http://purl.org/dc/elements/1.1/"
   xmlns:cc="http://creativecommons.org/ns#"
   xmlns:rdf="http://www.w3.org/1999/02/22-rdf-syntax-ns#"
   xmlns:svg="http://www.w3.org/2000/svg"
   xmlns="http://www.w3.org/2000/svg"
   xmlns:sodipodi="http://sodipodi.sourceforge.net/DTD/sodipodi-0.dtd"
   xmlns:inkscape="http://www.inkscape.org/namespaces/inkscape"
   width="210mm"
   height="297mm"
   viewBox="0 0 210 297"
   version="1.1"
   id="svg8"
   inkscape:version="1.0.1 (0767f8302a, 2020-10-17)"
   sodipodi:docname="signs.svg">
  <defs
     id="defs2" />
  <sodipodi:namedview
     id="base"
     pagecolor="#222222"
     bordercolor="#666666"
     borderopacity="1.0"
     inkscape:pageopacity="0"
     inkscape:pageshadow="2"
     inkscape:zoom="0.35355339"
     inkscape:cx="3273.3702"
     inkscape:cy="1602.2898"
     inkscape:document-units="mm"
     inkscape:current-layer="layer1"
     inkscape:document-rotation="0"
     showgrid="false"
     showborder="false"
     inkscape:snap-global="true"
     inkscape:window-width="1848"
     inkscape:window-height="1016"
     inkscape:window-x="72"
     inkscape:window-y="27"
     inkscape:window-maximized="1"
     inkscape:snap-object-midpoints="false"
     inkscape:snap-bbox="true"
     inkscape:snap-bbox-midpoints="true"
     inkscape:snap-nodes="true"
     inkscape:snap-grids="true">
    <inkscape:grid
       type="xygrid"
       id="grid10"
       spacingx="13.229167"
       spacingy="13.229167"
       empspacing="2" />
  </sodipodi:namedview>
  <metadata
     id="metadata5">
    <rdf:RDF>
      <cc:Work
         rdf:about="">
        <dc:format>image/svg+xml</dc:format>
        <dc:type
           rdf:resource="http://purl.org/dc/dcmitype/StillImage" />
        <dc:title />
      </cc:Work>
    </rdf:RDF>
  </metadata>
  <g
     inkscape:label="Layer 1"
     inkscape:groupmode="layer"
     id="layer1">
    <path
       id="path12"
       style="fill:#ffffff;stroke:none;stroke-width:0.264583px;stroke-linecap:butt;stroke-linejoin:miter;stroke-opacity:1"
       d="m -23.021284,82.812047 v 12.369904 l 37.109713,37.109709 -37.109713,37.10971 v 12.36991 h 12.369905 l 37.109712,-37.10971 37.109713,37.10971 H 75.93795 V 169.40137 L 38.828237,132.29166 75.93795,95.181951 V 82.812047 H 63.568046 L 26.458333,119.92176 -10.651379,82.812047 Z"
       inkscape:export-filename="/home/nitaku/repos/superstarfighter/godot/assets/sprites/signs/X.png"
       inkscape:export-xdpi="48"
       inkscape:export-ydpi="48" />
    <path
       id="path17"
       style="fill:#ffffff;stroke:none;stroke-width:2;stroke-linejoin:round"
       d="M 699.79102 300 A 199.99999 199.99999 0 0 0 500 500 A 199.99999 199.99999 0 0 0 700 700 A 199.99999 199.99999 0 0 0 900 500 A 199.99999 199.99999 0 0 0 700 300 A 199.99999 199.99999 0 0 0 699.79102 300 z M 699.44336 361.8457 A 138.15476 138.15476 0 0 1 700 361.8457 A 138.15476 138.15476 0 0 1 838.1543 500 A 138.15476 138.15476 0 0 1 700 638.1543 A 138.15476 138.15476 0 0 1 561.8457 500 A 138.15476 138.15476 0 0 1 699.44336 361.8457 z "
       transform="scale(0.26458333)"
       inkscape:export-filename="/home/nitaku/repos/superstarfighter/godot/assets/sprites/signs/O.png"
       inkscape:export-xdpi="48"
       inkscape:export-ydpi="48" />
    <path
       style="fill:#ffffff;stroke:none;stroke-width:0.264583px;stroke-linecap:butt;stroke-linejoin:miter;stroke-opacity:1"
       d="m -52.916668,317.50002 v 52.91666 l 105.833337,-2e-5 V 396.875 L 119.0625,343.95834 52.916669,291.04166 V 317.5 Z"
       id="path27"
       sodipodi:nodetypes="cccccccc"
       inkscape:export-filename="/home/nitaku/repos/superstarfighter/godot/assets/sprites/signs/arrow.png"
       inkscape:export-xdpi="48"
       inkscape:export-ydpi="48" />
    <g
       class=""
       id="g838"
       transform="matrix(0.26458333,0,0,0.26458333,331.40735,80.045864)"
       inkscape:export-xdpi="40.522396"
       inkscape:export-ydpi="40.522396">
      <path
         d="M 253.78,17.188 C 123.052,17.188 16.875,123.365 16.875,254.094 16.875,384.824 123.052,491 253.78,491 384.51,491 490.687,384.82 490.687,254.094 490.687,123.364 384.51,17.188 253.781,17.188 Z m 0,18.687 c 120.63,0 218.22,97.59 218.22,218.22 0,120.626 -97.59,218.218 -218.22,218.218 -120.628,0 -218.218,-97.59 -218.218,-218.22 0,-120.63 97.59,-218.218 218.22,-218.218 z m 101.19,46.313 -76.41,132.875 c 15.916,9.635 25.177,26.33 26.125,43.78 h 148.407 c 1.644,-70.01 -33.49,-138.867 -98.125,-176.656 z m -205.126,2.468 c -27.1,16.725 -50.68,40.147 -67.72,69.656 -19.01,32.928 -26.926,69.12 -26,104.532 H 196 c 0.41,-8.353 2.737,-16.73 7.188,-24.438 5.21,-9.024 12.64,-16 21.218,-20.625 L 149.844,84.657 Z m 100.594,141.156 c -0.864,-0.002 -1.736,0.035 -2.594,0.094 -11.446,0.793 -22.288,7.084 -28.5,17.844 -9.94,17.216 -4.09,38.967 13.125,48.906 17.213,9.94 38.935,4.12 48.874,-13.094 9.94,-17.215 4.12,-38.967 -13.094,-48.906 -5.648,-3.26 -11.768,-4.824 -17.813,-4.844 z m 28.218,82.375 c -16.127,9.75 -36.864,10.846 -54.406,1.25 l -68.03,117.22 c 29.454,16.785 61.044,25.177 92.75,26 34.567,0.898 68.72,-7.786 99.124,-24.032 z"
         fill="#ffffff"
         fill-opacity="1"
         id="path836" />
    </g>
    <path
       id="rect957"
       style="fill:#ffffff;stroke-width:2.11667;stroke-linecap:round"
       d="M 132.29167,211.66667 V 317.5 H 238.125 V 211.66667 Z m 15.875,15.875 h 74.08334 v 74.08334 h -74.08334 z"
       sodipodi:nodetypes="cccccccccc"
       inkscape:export-xdpi="57"
       inkscape:export-ydpi="57" />
    <path
       style="fill:#ffffff;stroke:none;stroke-width:0.264583px;stroke-linecap:butt;stroke-linejoin:miter;stroke-opacity:1"
       d="m 304.7375,213.46976 -42.67658,57.04404 25.55678,6.84792 -10.27188,38.33519 42.6766,-57.04404 -25.5568,-6.84793 z"
       id="path845"
       sodipodi:nodetypes="ccccccc"
       inkscape:export-xdpi="48"
       inkscape:export-ydpi="48" />
    <g
       id="g857"
       transform="matrix(1.2502606,0,0,1.2502606,-89.403737,-62.395364)"
       style="stroke-width:0.799833">
      <rect
         style="fill:none;stroke-width:0.799834;stroke-linecap:round"
         id="rect859"
         width="84.649017"
         height="84.649017"
         x="367.77966"
         y="303.85294" />
      <g
         id="g888"
         transform="matrix(0.95508262,0,0,0.95508262,18.420806,15.549385)"
         style="stroke-width:0.837449">
        <path
           id="path846"
           style="fill:#ffffff;stroke-width:3.77952;stroke-linecap:round"
           inkscape:transform-center-y="-20.597727"
           d="M 1599.6055 1262.6934 A 67.587114 67.587114 0 0 0 1532.4121 1330.2793 A 67.587114 67.587114 0 0 0 1589.2129 1396.998 A 28.900042 28.900042 0 0 1 1571.0996 1370.1875 A 28.900042 28.900042 0 0 1 1600 1341.2871 A 28.900042 28.900042 0 0 1 1628.9004 1370.1875 A 28.900042 28.900042 0 0 1 1610.7793 1397.002 A 67.587114 67.587114 0 0 0 1667.5879 1330.2793 A 67.587114 67.587114 0 0 0 1600 1262.6934 A 67.587114 67.587114 0 0 0 1599.6055 1262.6934 z "
           transform="matrix(0.22157512,0,0,0.22157512,55.583962,35.972283)" />
        <path
           id="path1126"
           style="fill:#ffffff;stroke-width:0.837448;stroke-linecap:round"
           inkscape:transform-center-y="10.241708"
           d="m 379.34061,369.18908 a 14.975623,14.975623 0 0 0 20.41324,5.40604 14.975623,14.975623 0 0 0 6.5098,-18.29109 6.4035303,6.4035303 0 0 1 -3.13793,6.44603 6.4035303,6.4035303 0 0 1 -8.74749,-2.34389 6.4035303,6.4035303 0 0 1 2.34388,-8.74749 6.4035303,6.4035303 0 0 1 7.15301,0.50653 14.975623,14.975623 0 0 0 -19.09707,-3.50894 14.975623,14.975623 0 0 0 -5.48114,20.45711 14.975623,14.975623 0 0 0 0.0437,0.0757 z"
           inkscape:transform-center-x="17.73934" />
        <path
           id="path1128"
           style="fill:#ffffff;stroke-width:0.837448;stroke-linecap:round"
           inkscape:transform-center-y="10.241708"
           d="m 440.86765,369.18908 a 14.975623,14.975623 0 0 1 -20.41324,5.40604 14.975623,14.975623 0 0 1 -6.5098,-18.29109 6.4035303,6.4035303 0 0 0 3.13793,6.44603 6.4035303,6.4035303 0 0 0 8.74749,-2.34389 6.4035303,6.4035303 0 0 0 -2.34388,-8.74749 6.4035303,6.4035303 0 0 0 -7.15301,0.50653 14.975623,14.975623 0 0 1 19.09707,-3.50894 14.975623,14.975623 0 0 1 5.48114,20.45711 14.975623,14.975623 0 0 1 -0.0437,0.0757 z"
           inkscape:transform-center-x="-17.739346" />
      </g>
    </g>
    <g
       id="g869"
       transform="matrix(1.1433437,0,0,1.1433437,60.276658,-25.383123)"
       style="stroke-width:0.874627">
      <rect
         style="fill:none;stroke-width:0.874628;stroke-linecap:round"
         id="rect861"
         width="84.649017"
         height="84.649017"
         x="367.77966"
         y="303.85294" />
      <g
         id="g883"
         transform="matrix(0.94511487,0,0,1.260153,22.508626,-82.248326)"
         style="stroke-width:0.801437">
        <path
           id="rect871"
           style="fill:#ffffff;stroke-width:3.78711;stroke-linecap:round"
           d="m 1973.2891,1444 -44,44 70.7109,70.7109 70.7109,-70.7109 -44,-44 -26.7109,26.7109 z"
           transform="matrix(0.21162255,0,0,0.21162255,-13.140941,43.707584)" />
        <path
           id="rect873"
           style="fill:#ffffff;stroke-width:3.78711;stroke-linecap:round"
           d="M 1912,1329.2891 1841.2891,1400 1912,1470.7109 l 44,-44 L 1929.2891,1400 1956,1373.2891 Z"
           transform="matrix(0.21162255,0,0,0.21162255,-13.140941,43.707584)" />
        <path
           id="rect875"
           style="fill:#ffffff;stroke-width:3.78711;stroke-linecap:round"
           d="m 2000,1241.2891 -70.7109,70.7109 44,44 26.7109,-26.7109 26.7109,26.7109 44,-44 z"
           transform="matrix(0.21162255,0,0,0.21162255,-13.140941,43.707584)" />
        <path
           id="rect877"
           style="fill:#ffffff;stroke-width:3.78711;stroke-linecap:round"
           d="m 2088,1329.2891 -44,44 26.7109,26.7109 -26.7109,26.7109 44,44 70.7109,-70.7109 z"
           transform="matrix(0.21162255,0,0,0.21162255,-13.140941,43.707584)" />
      </g>
    </g>
    <g
       id="g900"
       transform="matrix(1.2502606,0,0,1.2502606,-89.403744,43.437993)"
       style="stroke-width:0.799833">
      <path
         id="path902"
         style="fill:#ffffff;stroke:none;stroke-width:0.211623px;stroke-linecap:butt;stroke-linejoin:miter;stroke-opacity:1"
         d="m 410.10417,313.58756 c 0,0 -10.58113,8.4649 -21.16225,19.04603 -3.42905,3.42905 -6.02663,6.26564 -7.87302,9.23493 -2.90348,5.55558 -2.76377,12.21024 0.37034,17.63906 4.26513,6.98479 19.65969,13.94635 24.77472,1.94016 -6.80405,3.23996 -14.9556,0.70597 -18.72365,-5.82045 -4.5106,-10.0181 5.19149,-20.35487 15.54021,-11.53053 3.03363,2.58677 6.64332,8.53527 6.50904,15.66172 -0.18637,9.89405 -10.01652,19.00883 -10.01652,19.00883 h 10.58113 10.58113 c 0,0 -9.83012,-9.11478 -10.01652,-19.00883 -0.13425,-7.12645 3.47541,-13.07495 6.50904,-15.66172 10.34873,-8.82434 20.05084,1.51243 15.54021,11.53053 -3.76804,6.52642 -11.9196,9.06041 -18.72364,5.82045 5.11502,12.00619 20.50959,5.04463 24.77471,-1.94016 3.13411,-5.42882 3.27382,-12.08348 0.37034,-17.63906 -1.84638,-2.96929 -4.44397,-5.80588 -7.87301,-9.23493 -10.58113,-10.58113 -21.16226,-19.04603 -21.16226,-19.04603 z" />
      <rect
         style="fill:none;stroke-width:0.799834;stroke-linecap:round"
         id="rect890"
         width="84.649017"
         height="84.649017"
         x="367.77966"
         y="303.85294" />
    </g>
    <g
       id="g933">
      <path
         id="path911"
         style="fill:#ffffff;stroke:none;stroke-width:0.999999px;stroke-linecap:butt;stroke-linejoin:miter;stroke-opacity:1"
         d="m 1939.7266,1679.7246 c -2.3695,-0 -4.7326,0.1059 -7.086,0.2949 -0.9014,0.071 -1.7997,0.1566 -2.6953,0.2559 -0.3832,0.043 -0.766,0.087 -1.1484,0.1348 -1.1711,0.1457 -2.3385,0.3073 -3.4981,0.5 -0.036,0.01 -0.072,0.012 -0.1074,0.017 -1.236,0.207 -2.4621,0.4495 -3.6836,0.709 -0.2687,0.057 -0.5366,0.1161 -0.8047,0.1758 -1.171,0.2605 -2.3362,0.5395 -3.4922,0.8477 -0.049,0.013 -0.098,0.024 -0.1464,0.037 -1.2198,0.3274 -2.4296,0.6849 -3.6309,1.0644 -0.2561,0.081 -0.5103,0.1668 -0.7656,0.25 -1.0091,0.3292 -2.0112,0.6736 -3.0059,1.0391 -0.2158,0.079 -0.4332,0.1535 -0.6484,0.2344 -1.0875,0.4094 -2.1657,0.8446 -3.2344,1.2968 -0.3899,0.1646 -0.7764,0.3375 -1.1641,0.5078 -0.7238,0.319 -1.4418,0.6479 -2.1562,0.9864 -13.6927,6.4693 -25.8203,16.569 -34.7676,29.8965 -0.082,0.1216 -0.161,0.2451 -0.2422,0.3671 -0.4032,0.6072 -0.7995,1.2215 -1.1894,1.8418 -0.1148,0.1823 -0.2303,0.3636 -0.3438,0.5469 -0.4651,0.7522 -0.9239,1.5101 -1.3691,2.2813 -0.9256,1.6033 -1.7963,3.2291 -2.6114,4.875 -0.4074,0.8228 -0.7998,1.6499 -1.1796,2.4824 l -0,0 c -0.651,1.4271 -1.2526,2.8696 -1.8223,4.3223 -0.095,0.2419 -0.1964,0.482 -0.289,0.7246 v 0 c -0.3242,0.8491 -0.6351,1.7018 -0.9317,2.5586 v 0 c -0.2965,0.8568 -0.5807,1.7164 -0.8496,2.5801 v 0 c -0.2688,0.8638 -0.5245,1.7316 -0.7656,2.6016 v 0 c -0.2411,0.87 -0.4683,1.7416 -0.6816,2.6171 -3e-4,0 3e-4,0 0,0 -0.2132,0.8749 -0.4122,1.7529 -0.5977,2.6328 -0.3113,1.4768 -0.5753,2.961 -0.8086,4.4492 -0.045,0.2879 -0.098,0.575 -0.1406,0.8633 -2e-4,0 2e-4,0 0,0 -0.034,0.2314 -0.06,0.4637 -0.092,0.6953 -0.1806,1.3076 -0.3287,2.6184 -0.4492,3.9316 -0.022,0.2399 -0.052,0.4787 -0.072,0.7188 -2e-4,0 2e-4,0 0,0.01 -0.074,0.8923 -0.135,1.7859 -0.1816,2.6797 -10e-5,0 10e-5,0 0,0.01 -0.047,0.8939 -0.081,1.7888 -0.1,2.6836 -10e-5,0 0,0 0,0.01 -0.036,1.703 -0.018,3.4066 0.047,5.1094 0,0.089 0,0.1771 0.01,0.2656 2e-4,0 -10e-5,0.01 0,0.01 0.037,0.8938 0.088,1.7887 0.1524,2.6816 10e-5,0 -2e-4,0 0,0.01 0.065,0.8936 0.1439,1.786 0.2363,2.6778 0.038,0.3635 0.087,0.7267 0.1289,1.0898 0.062,0.5295 0.118,1.0594 0.1895,1.5879 3e-4,0 0,0.01 0,0.01 0.1203,0.8887 0.2543,1.7766 0.4024,2.6621 3e-4,0 0,0 0,0.01 0.1482,0.8862 0.3084,1.7699 0.4844,2.6523 5e-4,0 0,0.01 0,0.01 0.1759,0.8817 0.3665,1.7613 0.5703,2.6386 6e-4,0 0,0.01 0,0.01 0.3821,1.6444 0.8171,3.2808 1.2969,4.9063 0.033,0.1117 0.062,0.2243 0.096,0.3359 0.07,0.2339 0.1486,0.4658 0.2207,0.6992 0.1967,0.6368 0.3937,1.2731 0.6055,1.9063 0.2875,0.8599 0.5889,1.7155 0.9043,2.5684 0,0 0,0.01 0,0.01 0.3157,0.8536 0.6446,1.703 0.9883,2.5489 7e-4,0 0,0 0,0.01 0.3432,0.8445 0.7012,1.6854 1.0723,2.5215 0.1179,0.2658 0.2464,0.528 0.3672,0.793 0.2605,0.5715 0.5173,1.1437 0.791,1.7109 0,0 0,0.01 0.01,0.01 0.399,0.8267 0.8115,1.6498 1.2383,2.4668 0,0 0,0 0,0.01 7e-4,0 0,0 0,0 0.3059,0.492 0.6384,0.9801 0.9531,1.4707 0.5333,0.8314 1.0566,1.6637 1.6152,2.4922 0,0 0,0.01 0.01,0.01 0.8887,1.318 1.8103,2.6338 2.7637,3.9492 0.9553,1.3183 1.9421,2.6374 2.9629,3.959 0.4947,0.6406 1.021,1.2854 1.5312,1.9278 0.5424,0.6829 1.069,1.3631 1.6289,2.0488 0,0 0,0 0,0 1.0856,1.3293 2.2055,2.6636 3.3574,4.0078 0,0 0,0 0,0 1.1523,1.3446 2.3373,2.6973 3.5566,4.0625 0.5495,0.6153 1.1302,1.243 1.6934,1.8633 1.9382,2.1349 3.9335,4.2915 6.0351,6.5 l 22.6172,22.6777 C 1957.398,1905.8982 2000,1940 2000,1940 c 0,0 0.6654,-0.5332 1.9199,-1.5527 8.7815,-7.1366 46.4164,-38.1194 86.5567,-77.1114 l 22.6172,-22.6777 c 2.1015,-2.2085 4.0969,-4.3651 6.0351,-6.5 0.5621,-0.6191 1.143,-1.2453 1.6914,-1.8594 0,-10e-4 0,-0 0,-0 1.2193,-1.3652 2.4043,-2.7179 3.5566,-4.0625 9e-4,-0 10e-4,-0 0,-0 0.778,-0.9079 1.5198,-1.8063 2.2675,-2.707 0.3605,-0.4343 0.7403,-0.8718 1.0938,-1.3047 1.0851,-1.3289 2.1369,-2.651 3.1562,-3.9707 0,-0 0,-0 0,-0.01 1.0208,-1.3216 2.0076,-2.6407 2.9629,-3.959 0.762,-1.0513 1.4884,-2.1036 2.209,-3.1562 0.1829,-0.2671 0.3803,-0.5335 0.5606,-0.8008 0.8883,-1.3174 1.744,-2.6373 2.5683,-3.9629 0,-0 0,-0.01 0.01,-0.01 0.4268,-0.817 0.8393,-1.6401 1.2383,-2.4668 0,-0 0,-0.01 0.01,-0.01 0.399,-0.827 0.7832,-1.6581 1.1543,-2.4941 0,-0 0,-0.01 0,-0.01 0.3711,-0.8361 0.7291,-1.677 1.0723,-2.5215 0,-0 0,-0.01 0,-0.01 0.3431,-0.8444 0.6711,-1.6927 0.9863,-2.5449 0,-0 0,-0.01 0,-0.01 0.3154,-0.8529 0.6168,-1.7085 0.9043,-2.5684 0.2118,-0.6332 0.4088,-1.2695 0.6055,-1.9063 0.1065,-0.3448 0.2143,-0.6893 0.3164,-1.0351 0.4798,-1.6255 0.9148,-3.2619 1.2969,-4.9063 6e-4,-0 0,-0.01 0,-0.01 0.4084,-1.758 0.7599,-3.5244 1.0567,-5.2988 0.2371,-1.4173 0.4297,-2.839 0.5957,-4.2637 0.2606,-2.2372 0.4399,-4.4817 0.5254,-6.7285 0.065,-1.7028 0.083,-3.4064 0.047,-5.1094 -0.081,-3.8795 -0.4329,-7.7522 -1.0351,-11.5937 -0.2333,-1.4882 -0.4973,-2.9724 -0.8086,-4.4492 -0.1013,-0.4804 -0.2166,-0.9585 -0.3262,-1.4375 -0.1743,-0.7623 -0.3575,-1.523 -0.5527,-2.2813 -0.2908,-1.1297 -0.6042,-2.2553 -0.9414,-3.375 -0.6729,-2.2346 -1.4376,-4.4467 -2.2949,-6.6328 -0.4686,-1.1949 -0.9667,-2.3809 -1.4903,-3.5586 -0.113,-0.2541 -0.2184,-0.5104 -0.334,-0.7637 v -0 c -0.3796,-0.8321 -0.7724,-1.66 -1.1796,-2.4824 -0.815,-1.6457 -1.6859,-3.2719 -2.6114,-4.875 -0.4837,-0.8378 -0.9792,-1.6631 -1.4863,-2.4786 -0.01,-0.011 -0.015,-0.022 -0.022,-0.033 -0.5014,-0.8054 -1.0154,-1.5994 -1.5391,-2.3828 -0.5329,-0.7974 -1.0793,-1.581 -1.6347,-2.3554 -0.5564,-0.7758 -1.125,-1.5386 -1.7031,-2.291 -8.2195,-10.6984 -18.6007,-19.0324 -30.1582,-24.7422 -0.014,-0.01 -0.029,-0.014 -0.043,-0.022 -0.01,-0 -0.016,-0.01 -0.023,-0.012 -0.7023,-0.3462 -1.4104,-0.6791 -2.1211,-1.0059 -0.197,-0.091 -0.3923,-0.1841 -0.5899,-0.2734 -0.5879,-0.265 -1.1801,-0.5198 -1.7734,-0.7715 -0.2889,-0.1229 -0.5769,-0.2475 -0.8672,-0.3672 -0.5412,-0.2227 -1.0855,-0.4368 -1.6309,-0.6484 -0.3393,-0.132 -0.6784,-0.2649 -1.0195,-0.3926 -0.4746,-0.1774 -0.9522,-0.3468 -1.4297,-0.5156 -0.4402,-0.1561 -0.8793,-0.3139 -1.3223,-0.4629 -0.3691,-0.124 -0.7405,-0.2404 -1.1113,-0.3594 -0.5429,-0.1745 -1.0859,-0.3478 -1.6328,-0.5117 -0.3117,-0.093 -0.6248,-0.1817 -0.9375,-0.2715 -0.5777,-0.1661 -1.1565,-0.3302 -1.7383,-0.4844 -0.346,-0.092 -0.6939,-0.1763 -1.041,-0.2637 -0.5579,-0.1404 -1.1163,-0.2787 -1.6777,-0.4082 -0.356,-0.082 -0.7133,-0.1586 -1.0703,-0.2363 -0.5448,-0.1184 -1.089,-0.2358 -1.6368,-0.3437 -0.4456,-0.088 -0.8927,-0.167 -1.3398,-0.2481 -0.4502,-0.081 -0.8995,-0.1659 -1.3516,-0.2402 -0.5708,-0.094 -1.1439,-0.1769 -1.7168,-0.2598 -0.3347,-0.048 -0.6683,-0.1003 -1.0039,-0.1445 -0.8019,-0.1065 -1.6049,-0.1992 -2.4101,-0.2832 -0.093,-0.01 -0.186,-0.022 -0.2793,-0.031 -2.9406,-0.2974 -5.9009,-0.4505 -8.8692,-0.4453 -12.8485,0.023 -25.8427,2.9131 -38.0156,8.9258 -0.8403,0.4151 -1.6776,0.8441 -2.5098,1.2891 -0.8433,0.4502 -1.6801,0.9135 -2.5097,1.3925 -1.5685,0.9057 -3.107,1.8606 -4.6133,2.8614 -1.5048,0.9997 -2.9774,2.0452 -4.416,3.1367 -0.1563,0.1185 -0.3075,0.2436 -0.4629,0.3633 -2.7088,2.084 -5.2981,4.3223 -7.7461,6.7168 -1.2937,-1.2656 -2.6257,-2.4897 -3.9941,-3.67 h -0 c -0.684,-0.5899 -1.3762,-1.1702 -2.0781,-1.7382 h -0 c -0.5498,-0.445 -1.1094,-0.8774 -1.6699,-1.3086 -0.1555,-0.1197 -0.3066,-0.2447 -0.4629,-0.3633 -1.4386,-1.0915 -2.9112,-2.137 -4.416,-3.1367 l -0,-0 c -0.752,-0.4996 -1.5134,-0.9868 -2.2812,-1.4629 l -0,-0 c -0.7678,-0.4761 -1.5431,-0.9404 -2.3261,-1.3926 l -0,-0 c -0.059,-0.034 -0.1188,-0.066 -0.1777,-0.1 -0.6919,-0.3973 -1.3878,-0.782 -2.086,-1.1582 -0.2114,-0.1138 -0.4244,-0.2239 -0.6367,-0.3359 -0.6208,-0.328 -1.2437,-0.6476 -1.8691,-0.959 -0.1445,-0.072 -0.2888,-0.1439 -0.4336,-0.2148 -12.1202,-5.9514 -25.0478,-8.8174 -37.832,-8.8399 z m -28.0743,132.0274 c 0,0 58.8985,0 88.3477,0 29.4492,0 88.3477,0 88.3477,0 L 2000,1900 Z"
         transform="scale(0.26458333)"
         sodipodi:nodetypes="scscssssscssscsccscscssccsccccccssscssscssscscscsscscssscscscscssssscscssscsscsscsssscscsscccsccsscscssscsssscscscscscsssscsssssssssssccssscssssssscssssssssssssssssscscsscsssccccccsscccccccssscsczccc" />
      <path
         id="rect913"
         style="fill:none;stroke-width:1;stroke-linecap:round"
         d="M 476.25001,529.16667 H 582.08334 V 423.33335 H 476.25001 Z" />
    </g>
    <g
       id="g1179"
       transform="matrix(-0.25049878,0.08517454,-0.08517454,-0.25049878,1228.6225,351.99707)"
       style="stroke-width:0.999999">
      <path
         d="M 0,0 H 512 V 512 H 0 Z"
         fill="#000000"
         fill-opacity="1"
         id="path1162"
         style="fill:none;stroke-width:0.011639" />
      <g
         class=""
         id="g1166"
         style="stroke-width:1.22869"
         transform="matrix(-0.78614352,0.21064652,-0.21064652,-0.78614352,514.75294,401.6499)">
        <path
           d="m 225.438,18.156 c -15.105,0.14 -32.56,2.526 -52.407,7.844 -35.26,9.45 -65.035,28.973 -88.374,54.844 -17.668,13.755 -36.98,46.39 -51.437,85.97 -16.415,55.046 -16.447,120.304 -2.157,188.155 3.777,17.941 13.077,30.111 26.437,37.124 13.36,7.01 31.353,8.776 52.688,3.062 13.473,-3.608 23.028,-12.44 28.812,-22.75 5.784,-10.31 7.226,-22.05 5.313,-29.187 -4.335,-16.17 -19.078,-25.202 -32.313,-21.658 -9.02,2.417 -13.433,10.27 -13.5,16.97 -0.034,3.35 0.976,6.065 2.75,7.968 1.774,1.903 4.493,3.497 10,3.594 l -0.344,18.687 c -9.57,-0.168 -17.87,-3.693 -23.312,-9.53 -5.442,-5.837 -7.856,-13.482 -7.78,-20.906 0.148,-14.85 10.064,-30.185 27.342,-34.813 24.03,-6.434 48.515,9.84 55.22,34.845 3.605,13.45 0.802,29.11 -7.095,43.188 -7.896,14.077 -21.48,26.63 -40.25,31.656 -4.174,1.117 -8.282,1.972 -12.343,2.624 98.875,90.13 248.893,110.83 349.344,9.72 18.164,-18.283 31.29,-40.735 38.595,-65.127 0.02,-0.063 0.044,-0.124 0.063,-0.187 9.94,-40.298 4.91,-84.342 -17.5,-123.156 -44.153,-76.474 -142.198,-106.276 -193.094,-78.28 -57.27,23.11 -71.688,56.892 -76.625,81.874 -21.635,61.008 4.65,135.55 67.686,156.375 43.724,14.443 97.45,-5.348 111.656,-51.25 9.364,-30.262 -4.29,-66.992 -35.437,-75.532 -9.543,-2.616 -20.58,-1.58 -29.438,2.658 -8.858,4.237 -15.41,11.2 -17.78,21.093 -1.297,5.42 -0.55,11.935 1.906,16.814 2.455,4.88 5.99,8.01 11.25,8.97 1.883,0.342 4.31,-0.074 6.28,-0.845 -2.017,-0.512 -3.482,-1.562 -4.343,-2.345 -1.39,-1.288 -3.168,-3.693 -3.656,-6.563 -0.78,-4.998 2.214,-9.82 5.03,-11.906 2.818,-2.086 5.51,-2.925 8.845,-2.906 6.21,0.034 11.453,3.97 14.03,8.125 2.577,4.154 3.51,8.625 2.97,13.28 v 0.033 c -0.982,8.283 -6.386,14.75 -12.533,18.187 -6.146,3.438 -13.153,4.556 -19.968,3.313 -11.435,-2.087 -20.017,-9.842 -24.595,-18.938 -4.578,-9.096 -5.78,-19.644 -3.406,-29.563 3.774,-15.756 14.824,-27.336 27.905,-33.593 13.08,-6.257 28.324,-7.683 42.438,-3.813 42.675,11.702 60.497,59.787 48.343,99.064 -17.637,56.99 -82.493,80.936 -135.375,63.47 -68.184,-22.526 -99.163,-97.1 -84.28,-163.44 -18.918,-16.436 -34.28,-39.526 -40.47,-62.624 -14.74,-55.014 32.67,-114.382 82.19,-130.563 42.26,-13.775 79.575,5.404 60.124,39.094 33.446,-28.243 15.37,-79.8 -57.406,-79.124 z"
           fill="#ffffff"
           fill-opacity="1"
           id="path1164"
           style="stroke-width:0.0143007" />
      </g>
    </g>
    <g
       id="g1198"
       transform="matrix(0.24804329,0,0,0.24804329,1079.1911,378.46664)"
       style="stroke-width:1.06668">
      <path
         d="M 0,0 H 512 V 512 H 0 Z"
         fill="#000000"
         fill-opacity="1"
         id="path1181"
         style="fill:none;stroke-width:1.13781" />
      <g
         class=""
         id="g1185"
         transform="matrix(0.94626711,0,0,0.94626711,13.755679,13.755621)"
         style="stroke-width:1.12725">
        <path
           d="m 166,121 c 0,90 90,105 90,180 0,30 -30,75 -75,75 -45,0 -75,-45 -45,-120 -45,30 -60,60 -60,90 0,75 75,150 180,150 105,0 180,-45 180,-135 C 436.67,227.875 282.6,183.404 241,121 211,76 226,46 256,16 196,31 166,73 166,121 Z"
           fill="#ffffff"
           fill-opacity="1"
           id="path1183"
           style="stroke-width:1.19126" />
      </g>
    </g>
    <g
       id="g1217"
       transform="matrix(0.26458333,0,0,0.26458333,942.66515,241.94074)">
      <path
         d="M 0,0 H 512 V 512 H 0 Z"
         fill="#000000"
         fill-opacity="1"
         id="path1200"
         style="fill:none" />
      <g
         class=""
         id="g1204">
        <path
           d="M 263.844,40.344 C 234.1,213.202 145.594,248.03 145.594,369.22 c 0,60.804 60.106,105.5 118.25,105.5 59.45,0 115.937,-41.803 115.937,-99.533 0,-116.332 -85.2,-162.312 -115.936,-334.843 z m -58.28,217.094 c -27.963,75.53 -5.105,154.567 54.25,179.375 15.185,6.348 31.724,7.714 47.905,6.28 C 191.585,492.88 121.883,363.277 205.561,257.437 Z"
           fill="#ffffff"
           fill-opacity="1"
           id="path1202" />
      </g>
    </g>
    <g
       id="g1236"
       transform="matrix(0.24116995,0,0,0.24116995,948.65898,380.22622)"
       style="stroke-width:1.09708">
      <path
         d="M 0,0 H 512 V 512 H 0 Z"
         fill="#000000"
         fill-opacity="1"
         id="path1219"
         style="fill:none;stroke-width:1.20359" />
      <g
         class=""
         id="g1223"
         transform="matrix(0.89170941,0,0,0.89170941,28.025226,27.87454)"
         style="stroke-width:1.23031">
        <path
           d="M 228.813,23 68.75,72.28 39.5,182.095 l 47.53,-21.22 10.44,-4.655 2.5,11.155 8.75,39.125 6.405,28.53 -21.75,-19.53 -15.72,-14.125 -28.218,32.344 140.657,136 9.656,-40.69 7.53,-31.874 10.407,31.063 54.72,163.592 L 432.343,465.5 478.093,262.562 393.53,113.844 228.814,23 Z m -57.688,49.875 -27.813,39.906 -3.25,73.44 -27.187,-88.94 58.25,-24.405 z m 17.844,93.406 113.124,155.25 104.907,33.876 -107.375,-0.844 -110.656,-128 v -60.28 z M 79.312,330.25 219.437,483.375 213.874,417.5 79.311,330.25 Z"
           fill="#ffffff"
           fill-opacity="1"
           id="path1221"
           style="stroke-width:1.37972" />
      </g>
    </g>
    <g
       id="g1136"
       transform="translate(3.8888112e-5,1.1876465e-5)"
       inkscape:export-filename="/home/nitaku/repos/superstarfighter/godot/assets/sprites/alchemy/square.png"
       inkscape:export-xdpi="48"
       inkscape:export-ydpi="48">
      <path
         id="rect1130"
         style="opacity:1;fill:#ffffff;fill-opacity:1;stroke:none;stroke-width:22.6772;stroke-linecap:round;stroke-miterlimit:4;stroke-dasharray:none"
         d="M 2284.4805 1284.4805 L 2284.4805 1515.5215 L 2515.5215 1515.5215 L 2515.5215 1284.4805 L 2284.4805 1284.4805 z M 2342.7305 1316 L 2457.2695 1316 L 2400 1373.2715 L 2342.7305 1316 z M 2316 1342.7266 L 2373.2734 1400 L 2316 1457.2754 L 2316 1342.7266 z M 2484 1342.7266 L 2484 1457.2734 L 2426.7285 1400 L 2484 1342.7266 z M 2400 1426.7266 L 2457.2734 1484 L 2342.7285 1484 L 2400 1426.7266 z "
         transform="matrix(0.26458333,0,0,0.26458333,-3.8888112e-5,-1.1876465e-5)" />
      <rect
         style="opacity:1;fill:none;fill-opacity:1;stroke:none;stroke-width:6.00001;stroke-linecap:round;stroke-miterlimit:4;stroke-dasharray:none"
         id="rect1132"
         width="105.83333"
         height="105.83333"
         x="582.08331"
         y="317.5" />
    </g>
    <g
       id="g1142"
       transform="translate(105.8334,1.1876465e-5)"
       inkscape:export-filename="/home/nitaku/repos/superstarfighter/godot/assets/sprites/alchemy/cross.png"
       inkscape:export-xdpi="48"
       inkscape:export-ydpi="48">
      <path
         style="fill:#ffffff;stroke:none;stroke-width:0.264583px;stroke-linecap:butt;stroke-linejoin:miter;stroke-opacity:1"
         d="m 627.84359,333.07248 h 14.31278 v 30.18778 h 30.18777 v 14.31278 h -30.18777 v 30.18778 h -14.31278 v -30.18778 h -30.18778 v -14.31278 h 30.18778 z"
         id="path1144"
         sodipodi:nodetypes="ccccccccccccc" />
      <rect
         style="opacity:1;fill:none;fill-opacity:1;stroke:none;stroke-width:6.00001;stroke-linecap:round;stroke-miterlimit:4;stroke-dasharray:none"
         id="rect1140"
         width="105.83333"
         height="105.83333"
         x="582.08331"
         y="317.5" />
      <circle
         style="opacity:1;fill:#ffffff;fill-opacity:1;stroke:none;stroke-width:10;stroke-linecap:round;stroke-miterlimit:4;stroke-dasharray:none"
         id="path1407"
         cx="615.15619"
         cy="390.26041"
         r="6.614583" />
      <circle
         style="opacity:1;fill:#ffffff;fill-opacity:1;stroke:none;stroke-width:10;stroke-linecap:round;stroke-miterlimit:4;stroke-dasharray:none"
         id="path1409"
         cx="654.84369"
         cy="390.26041"
         r="6.614583" />
      <circle
         style="opacity:1;fill:#ffffff;fill-opacity:1;stroke:none;stroke-width:10;stroke-linecap:round;stroke-miterlimit:4;stroke-dasharray:none"
         id="path1411"
         cx="654.84369"
         cy="350.57291"
         r="6.614583" />
      <circle
         style="opacity:1;fill:#ffffff;fill-opacity:1;stroke:none;stroke-width:10;stroke-linecap:round;stroke-miterlimit:4;stroke-dasharray:none"
         id="path1413"
         cx="615.15619"
         cy="350.57291"
         r="6.614583" />
    </g>
    <g
       id="g1150"
       transform="translate(6.8888112e-5,105.83336)"
       inkscape:export-filename="/home/nitaku/repos/superstarfighter/godot/assets/sprites/alchemy/triangle.png"
       inkscape:export-xdpi="48"
       inkscape:export-ydpi="48">
      <rect
         style="opacity:1;fill:none;fill-opacity:1;stroke:none;stroke-width:6.00001;stroke-linecap:round;stroke-miterlimit:4;stroke-dasharray:none"
         id="rect1148"
         width="105.83333"
         height="105.83333"
         x="582.08331"
         y="317.5" />
      <path
         id="path1154"
         style="opacity:1;fill:#ffffff;fill-opacity:1;stroke:none;stroke-width:22.6772;stroke-linecap:round;stroke-miterlimit:4;stroke-dasharray:none"
         inkscape:transform-center-x="3.8046438e-05"
         inkscape:transform-center-y="10.183038"
         d="M 2258.75 1700.6484 L 2333.6543 1823.1035 L 2466.3457 1823.1035 L 2541.25 1700.6484 L 2258.75 1700.6484 z M 2357.043 1861.3418 L 2400 1931.5703 L 2442.957 1861.3418 L 2357.043 1861.3418 z "
         transform="matrix(0.26458333,0,0,0.26458333,-6.8888112e-5,-105.83336)" />
    </g>
    <g
       id="g1160"
       transform="translate(105.8334,105.83336)"
       inkscape:export-filename="/home/nitaku/repos/superstarfighter/godot/assets/sprites/alchemy/circle.png"
       inkscape:export-xdpi="48"
       inkscape:export-ydpi="48">
      <rect
         style="opacity:1;fill:none;fill-opacity:1;stroke:none;stroke-width:6.00001;stroke-linecap:round;stroke-miterlimit:4;stroke-dasharray:none"
         id="rect1158"
         width="105.83333"
         height="105.83333"
         x="582.08331"
         y="317.5" />
      <path
         id="path1377"
         style="opacity:1;fill:#f9f9f9;fill-opacity:1;stroke:none;stroke-width:10;stroke-linecap:round;stroke-miterlimit:4;stroke-dasharray:none"
         d="m 634.99993,334.44202 a 35.974612,35.974612 0 0 0 -35.97462,35.97462 35.974612,35.974612 0 0 0 35.97462,35.97461 35.974612,35.974612 0 0 0 35.97461,-35.97461 35.974612,35.974612 0 0 0 -35.97461,-35.97462 z m 0,11.99154 a 23.983074,23.983074 0 0 1 23.98307,23.98308 23.983074,23.983074 0 0 1 -23.98307,23.98307 23.983074,23.983074 0 0 1 -23.98308,-23.98307 23.983074,23.983074 0 0 1 23.98308,-23.98308 z" />
      <circle
         style="opacity:1;fill:#ffffff;fill-opacity:1;stroke:none;stroke-width:10;stroke-linecap:round;stroke-miterlimit:4;stroke-dasharray:none"
         id="path1405"
         cx="634.99994"
         cy="370.41666"
         r="6.614583" />
    </g>
    <g
       id="g1375"
       transform="translate(-2.2075329e-8,209.39689)">
      <rect
         style="opacity:1;fill:#ffffff;fill-opacity:1;stroke:none;stroke-width:6.00001;stroke-linecap:round;stroke-miterlimit:4;stroke-dasharray:none"
         id="rect1371"
         width="52.916664"
         height="52.916664"
         x="160.63034"
         y="684.47864"
         transform="rotate(-45)" />
      <rect
         style="opacity:1;fill:none;fill-opacity:1;stroke:none;stroke-width:6.00001;stroke-linecap:round;stroke-miterlimit:4;stroke-dasharray:none"
         id="rect1373"
         width="105.83333"
         height="105.83333"
         x="582.08331"
         y="317.5" />
    </g>
  </g>
</svg>
