<?xml version="1.0" encoding="UTF-8" standalone="no"?>
<svg
   xmlns:dc="http://purl.org/dc/elements/1.1/"
   xmlns:cc="http://creativecommons.org/ns#"
   xmlns:rdf="http://www.w3.org/1999/02/22-rdf-syntax-ns#"
   xmlns:svg="http://www.w3.org/2000/svg"
   xmlns="http://www.w3.org/2000/svg"
   xmlns:sodipodi="http://sodipodi.sourceforge.net/DTD/sodipodi-0.dtd"
   xmlns:inkscape="http://www.inkscape.org/namespaces/inkscape"
   width="16"
   height="16"
   version="1.1"
   viewBox="0 0 16 16"
   id="svg6"
   sodipodi:docname="Component.svg"
   inkscape:export-filename="/repos/superstarfighter/godot/addons/ECM/icons/Component.png"
   inkscape:export-xdpi="96"
   inkscape:export-ydpi="96"
   inkscape:version="0.92.3 (unknown)">
  <metadata
     id="metadata12">
    <rdf:RDF>
      <cc:Work
         rdf:about="">
        <dc:format>image/svg+xml</dc:format>
        <dc:type
           rdf:resource="http://purl.org/dc/dcmitype/StillImage" />
        <dc:title></dc:title>
      </cc:Work>
    </rdf:RDF>
  </metadata>
  <defs
     id="defs10" />
  <sodipodi:namedview
     pagecolor="#ffffff"
     bordercolor="#666666"
     borderopacity="1"
     objecttolerance="10"
     gridtolerance="10"
     guidetolerance="10"
     inkscape:pageopacity="0"
     inkscape:pageshadow="2"
     inkscape:window-width="1853"
     inkscape:window-height="1025"
     id="namedview8"
     showgrid="false"
     inkscape:zoom="20.85965"
     inkscape:cx="5.3540818"
     inkscape:cy="10.550214"
     inkscape:window-x="67"
     inkscape:window-y="27"
     inkscape:window-maximized="1"
     inkscape:current-layer="svg6" />
  <rect
     style="opacity:1;fill:#e0e0e0;fill-opacity:1;stroke:none;stroke-width:3.77952766;stroke-linejoin:miter;stroke-miterlimit:4;stroke-dasharray:none;stroke-opacity:1"
     id="rect836"
     width="3.2598822"
     height="3.2598822"
     x="-2.9722455"
     y="-13.818334" />
  <rect
     y="-13.818334"
     x="0.28763676"
     height="3.2598822"
     width="3.2598822"
     id="rect838"
     style="opacity:1;fill:#a5b7f3;fill-opacity:1;stroke:none;stroke-width:3.77952766;stroke-linejoin:miter;stroke-miterlimit:4;stroke-dasharray:none;stroke-opacity:1" />
  <rect
     style="opacity:1;fill:#fc9c9c;fill-opacity:1;stroke:none;stroke-width:3.77952766;stroke-linejoin:miter;stroke-miterlimit:4;stroke-dasharray:none;stroke-opacity:1"
     id="rect840"
     width="3.2598822"
     height="3.2598822"
     x="3.547519"
     y="-13.818334" />
  <rect
     y="-13.818334"
     x="6.8074012"
     height="3.2598822"
     width="3.2598822"
     id="rect842"
     style="opacity:1;fill:#a5efac;fill-opacity:1;stroke:none;stroke-width:3.77952766;stroke-linejoin:miter;stroke-miterlimit:4;stroke-dasharray:none;stroke-opacity:1" />
  <path
     style="fill:#e0e0e0"
     d="M 8 2 A 6 6 0 0 0 2 8 A 6 6 0 0 0 8 14 A 6 6 0 0 0 12.474609 11.986328 A 4 4 0 0 1 10.396484 11.197266 A 4 4 0 0 1 8 12 A 4 4 0 0 1 4 8 A 4 4 0 0 1 8 4 A 4 4 0 0 1 10.396484 4.8046875 A 4 4 0 0 1 12.478516 4.015625 A 6 6 0 0 0 8 2 z "
     id="path2-3" />
</svg>
