<?xml version="1.0" encoding="UTF-8" standalone="no"?>
<!DOCTYPE svg PUBLIC "-//W3C//DTD SVG 1.1//EN" "http://www.w3.org/Graphics/SVG/1.1/DTD/svg11.dtd">
<svg width="16" height="16" viewBox="0 0 16 16" version="1.1" xmlns="http://www.w3.org/2000/svg" xmlns:xlink="http://www.w3.org/1999/xlink" xml:space="preserve" xmlns:serif="http://www.serif.com/" style="fill-rule:evenodd;clip-rule:evenodd;stroke-linejoin:round;stroke-miterlimit:2;">
    <path id="Curves" d="M9.464,1.569C8.49,1.349 7.478,1.349 6.504,1.569C6.694,2.409 6.486,3.134 5.879,3.744C5.023,3.838 4.327,3.549 3.789,2.877C3.009,3.502 2.379,4.292 1.943,5.191C2.718,5.566 3.155,6.181 3.254,7.036C2.794,7.763 2.133,8.128 1.273,8.13C1.275,9.128 1.5,10.114 1.931,11.015C2.707,10.643 3.46,10.685 4.19,11.141C4.472,11.954 4.346,12.697 3.811,13.371C4.593,13.992 5.504,14.431 6.477,14.655C6.67,13.817 7.173,13.254 7.984,12.968C8.795,13.254 9.298,13.817 9.491,14.655C10.464,14.431 11.375,13.992 12.157,13.371C11.622,12.697 11.496,11.954 11.778,11.141C12.508,10.685 13.261,10.643 14.037,11.015C14.468,10.114 14.693,9.128 14.695,8.13C13.835,8.128 13.174,7.763 12.714,7.036C12.813,6.181 13.25,5.566 14.025,5.191C13.589,4.292 12.959,3.502 12.179,2.877C11.641,3.549 10.945,3.838 10.089,3.744C9.483,3.134 9.274,2.409 9.464,1.569ZM7.984,4.784C9.823,4.784 11.316,6.277 11.316,8.116C11.316,9.954 9.823,11.447 7.984,11.447C6.145,11.447 4.652,9.954 4.652,8.116C4.652,6.277 6.145,4.784 7.984,4.784Z" style="fill:rgb(141,165,243);"/>
</svg>
