<?xml version="1.0" encoding="UTF-8" standalone="no"?>
<!DOCTYPE svg PUBLIC "-//W3C//DTD SVG 1.1//EN" "http://www.w3.org/Graphics/SVG/1.1/DTD/svg11.dtd">
<svg width="16" height="16" viewBox="0 0 16 16" version="1.1" xmlns="http://www.w3.org/2000/svg" xmlns:xlink="http://www.w3.org/1999/xlink" xml:space="preserve" xmlns:serif="http://www.serif.com/" style="fill-rule:evenodd;clip-rule:evenodd;stroke-linejoin:round;stroke-miterlimit:2;">
    <g transform="matrix(0.972237,0,0,0.972237,0.333161,0.333411)">
        <path d="M16,11.3L8,8.009L11.291,16.009L12.238,13.189L14.122,15.072L15.064,14.131L13.18,12.247L16,11.3Z" style="fill:rgb(141,165,243);fill-rule:nonzero;"/>
    </g>
    <g transform="matrix(5.30694,5.30694,-0.849559,0.849559,-16.296,-25.7485)">
        <path d="M6.348,5.608C6.348,5.262 6.303,4.982 6.248,4.982L4.85,4.982C4.795,4.982 4.75,5.262 4.75,5.608C4.75,5.953 4.795,6.234 4.85,6.234L6.248,6.234C6.303,6.234 6.348,5.953 6.348,5.608Z" style="fill:rgb(141,165,243);fill-opacity:0.47;"/>
    </g>
    <g transform="matrix(1.77453,0,0,1.77453,-2.34849,-4.25696)">
        <circle cx="3.654" cy="4.826" r="1.587" style="fill:rgb(141,165,243);"/>
    </g>
</svg>
