<?xml version="1.0" encoding="UTF-8" standalone="no"?>
<!DOCTYPE svg PUBLIC "-//W3C//DTD SVG 1.1//EN" "http://www.w3.org/Graphics/SVG/1.1/DTD/svg11.dtd">
<svg width="16" height="16" viewBox="0 0 16 16" version="1.1" xmlns="http://www.w3.org/2000/svg" xmlns:xlink="http://www.w3.org/1999/xlink" xml:space="preserve" xmlns:serif="http://www.serif.com/" style="fill-rule:evenodd;clip-rule:evenodd;stroke-linejoin:round;stroke-miterlimit:2;">
    <path d="M4.646,8.992L4.646,15.143C4.646,15.18 4.616,15.209 4.58,15.209L3.342,15.209C3.306,15.209 3.276,15.18 3.276,15.143L3.276,3.408C3.276,2.086 4.349,1.012 5.671,1.012L10.329,1.012C11.651,1.012 12.724,2.086 12.724,3.408L12.724,15.143C12.724,15.18 12.694,15.209 12.658,15.209L11.42,15.209C11.384,15.209 11.354,15.18 11.354,15.143C11.354,15.143 11.354,8.99 11.354,8.99C10.501,9.862 9.313,10.403 7.999,10.403C6.686,10.403 5.498,9.862 4.646,8.992ZM7.97,4.879C7.515,4.879 7.145,5.248 7.145,5.704C7.145,6.159 7.515,6.528 7.97,6.528C8.425,6.528 8.794,6.159 8.794,5.704C8.794,5.248 8.425,4.879 7.97,4.879Z" style="fill:rgb(141,165,243);"/>
</svg>
