<?xml version="1.0" encoding="UTF-8" standalone="no"?>
<!DOCTYPE svg PUBLIC "-//W3C//DTD SVG 1.1//EN" "http://www.w3.org/Graphics/SVG/1.1/DTD/svg11.dtd">
<svg width="16" height="16" viewBox="0 0 16 16" version="1.1" xmlns="http://www.w3.org/2000/svg" xmlns:xlink="http://www.w3.org/1999/xlink" xml:space="preserve" xmlns:serif="http://www.serif.com/" style="fill-rule:evenodd;clip-rule:evenodd;stroke-linejoin:round;stroke-miterlimit:2;">
    <g transform="matrix(0.850087,1.0683e-17,-4.48088e-18,1.52,3.8108,-2.06422)">
        <path d="M0.674,8.094L0.674,6.269L2.201,5.415L2.201,7.24L0.674,8.094ZM7.648,4.194C7.582,3.807 7,3.505 6.291,3.505L5.616,3.505L7.584,2.404C8.387,2.52 9.008,2.891 9.151,3.354L7.648,4.194ZM9.182,3.6L9.182,5.49L7.655,6.344L7.655,4.454L9.182,3.6ZM7.655,6.608L9.182,5.754L9.182,7.715L7.655,8.569L7.655,6.608ZM9.182,7.979L9.182,9.686C9.182,9.754 9.172,9.821 9.152,9.886L7.413,10.858C7.296,10.869 7.177,10.875 7.055,10.875L4.003,10.875L6.037,9.738L6.291,9.738C7.044,9.738 7.655,9.396 7.655,8.975L7.655,8.833L9.182,7.979ZM3.532,10.875L2.801,10.875C2.048,10.875 1.386,10.656 1.008,10.325L2.532,9.473C2.782,9.635 3.152,9.738 3.565,9.738L5.566,9.738L3.532,10.875ZM0.845,10.153C0.735,10.009 0.674,9.851 0.674,9.686L0.674,8.358L2.201,7.504L2.201,8.975C2.201,9.097 2.253,9.212 2.344,9.314L0.845,10.153ZM0.674,3.851L0.674,3.557C0.674,2.9 1.627,2.367 2.801,2.367L3.327,2.367L0.674,3.851ZM3.799,2.367L7.055,2.367C7.095,2.367 7.135,2.368 7.175,2.369L5.144,3.505L3.565,3.505C2.812,3.505 2.201,3.846 2.201,4.267L2.201,5.151L0.674,6.005L0.674,4.115L3.799,2.367Z" style="fill:rgb(141,165,243);"/>
    </g>
</svg>
