<?xml version="1.0" encoding="UTF-8" standalone="no"?>
<!DOCTYPE svg PUBLIC "-//W3C//DTD SVG 1.1//EN" "http://www.w3.org/Graphics/SVG/1.1/DTD/svg11.dtd">
<svg width="16" height="16" viewBox="0 0 16 16" version="1.1" xmlns="http://www.w3.org/2000/svg" xmlns:xlink="http://www.w3.org/1999/xlink" xml:space="preserve" xmlns:serif="http://www.serif.com/" style="fill-rule:evenodd;clip-rule:evenodd;stroke-linejoin:round;stroke-miterlimit:2;">
    <g transform="matrix(0.608202,-0.089299,0.159672,1.0875,0.171584,1.2849)">
        <path d="M9.182,3.557C9.182,2.9 8.229,2.367 7.055,2.367L2.801,2.367C1.627,2.367 0.674,2.9 0.674,3.557L0.674,9.686C0.674,10.342 1.627,10.875 2.801,10.875L7.055,10.875C8.229,10.875 9.182,10.342 9.182,9.686L9.182,3.557Z" style="fill:rgb(141,165,243);"/>
    </g>
    <g transform="matrix(0.608183,0.0894232,-0.159894,1.08747,10.3213,0.580464)">
        <path d="M9.182,3.557C9.182,2.9 8.229,2.367 7.055,2.367L2.801,2.367C1.627,2.367 0.674,2.9 0.674,3.557L0.674,9.686C0.674,10.342 1.627,10.875 2.801,10.875L7.055,10.875C8.229,10.875 9.182,10.342 9.182,9.686L9.182,3.557Z" style="fill:rgb(141,165,243);"/>
    </g>
    <g transform="matrix(6.12323e-17,1,-1.92119,1.17639e-16,16.0656,-0.698433)">
        <path d="M8.738,2.187C8.738,1.999 8.446,1.847 8.087,1.847C7.727,1.847 7.435,1.999 7.435,2.187L7.435,6.156C7.435,6.343 7.727,6.495 8.087,6.495C8.446,6.495 8.738,6.343 8.738,6.156L8.738,2.187Z" style="fill:rgb(141,165,243);fill-opacity:0.42;"/>
    </g>
</svg>
