<?xml version="1.0" encoding="UTF-8" standalone="no"?>
<!DOCTYPE svg PUBLIC "-//W3C//DTD SVG 1.1//EN" "http://www.w3.org/Graphics/SVG/1.1/DTD/svg11.dtd">
<svg width="16" height="16" viewBox="0 0 16 16" version="1.1" xmlns="http://www.w3.org/2000/svg" xmlns:xlink="http://www.w3.org/1999/xlink" xml:space="preserve" xmlns:serif="http://www.serif.com/" style="fill-rule:evenodd;clip-rule:evenodd;stroke-linejoin:round;stroke-miterlimit:2;">
    <g transform="matrix(0.660304,0,0,0.660304,4.79775,6.21214)">
        <path d="M4.85,-1.889C9.054,-1.889 12.468,1.525 12.468,5.729C12.468,9.933 9.054,13.347 4.85,13.347C0.645,13.347 -2.768,9.933 -2.768,5.729C-2.768,1.525 0.645,-1.889 4.85,-1.889ZM4.85,0.792C2.125,0.792 -0.087,3.004 -0.087,5.729C-0.087,8.454 2.125,10.666 4.85,10.666C7.574,10.666 9.787,8.454 9.787,5.729C9.787,3.004 7.574,0.792 4.85,0.792Z" style="fill:rgb(141,165,243);"/>
    </g>
    <g transform="matrix(0.588181,0,0,0.588181,1.0589,1.51021)">
        <path d="M14.573,6.552L15.389,6.89C15.652,6.999 15.777,7.3 15.668,7.564C15.668,7.564 13.57,12.629 13.57,12.629L18.636,10.531C18.899,10.422 19.2,10.547 19.309,10.81L19.647,11.626C19.756,11.889 19.631,12.191 19.368,12.3C19.368,12.3 14.302,14.398 14.302,14.398L19.368,16.496C19.631,16.605 19.756,16.907 19.647,17.17L19.309,17.986C19.2,18.249 18.899,18.374 18.636,18.265C18.636,18.265 13.57,16.167 13.57,16.167L15.668,21.233C15.777,21.496 15.652,21.797 15.389,21.906L14.573,22.244C14.31,22.353 14.008,22.228 13.899,21.965C13.899,21.965 11.801,16.899 11.801,16.899L9.703,21.965C9.594,22.228 9.292,22.353 9.029,22.244L8.213,21.906C7.95,21.797 7.825,21.496 7.934,21.233C7.934,21.233 10.032,16.167 10.032,16.167L4.966,18.265C4.703,18.374 4.402,18.249 4.293,17.986L3.955,17.17C3.846,16.907 3.971,16.605 4.234,16.496C4.234,16.496 9.3,14.398 9.3,14.398L4.234,12.3C3.971,12.191 3.846,11.889 3.955,11.626L4.293,10.81C4.402,10.547 4.703,10.422 4.966,10.531C4.966,10.531 10.032,12.629 10.032,12.629L7.934,7.564C7.825,7.3 7.95,6.999 8.213,6.89L9.029,6.552C9.292,6.443 9.594,6.568 9.703,6.831C9.703,6.831 11.801,11.897 11.801,11.897L13.899,6.831C14.008,6.568 14.31,6.443 14.573,6.552Z" style="fill:rgb(141,165,243);"/>
    </g>
    <g transform="matrix(1,0,0,1.92119,-0.086665,-2.35016)">
        <path d="M8.738,2.187C8.738,1.999 8.446,1.847 8.087,1.847C7.727,1.847 7.435,1.999 7.435,2.187L7.435,6.156C7.435,6.343 7.727,6.495 8.087,6.495C8.446,6.495 8.738,6.343 8.738,6.156L8.738,2.187Z" style="fill:rgb(141,165,243);fill-opacity:0.42;"/>
    </g>
</svg>
