<?xml version="1.0" encoding="UTF-8" standalone="no"?>
<svg
   xmlns:dc="http://purl.org/dc/elements/1.1/"
   xmlns:cc="http://creativecommons.org/ns#"
   xmlns:rdf="http://www.w3.org/1999/02/22-rdf-syntax-ns#"
   xmlns:svg="http://www.w3.org/2000/svg"
   xmlns="http://www.w3.org/2000/svg"
   xmlns:sodipodi="http://sodipodi.sourceforge.net/DTD/sodipodi-0.dtd"
   xmlns:inkscape="http://www.inkscape.org/namespaces/inkscape"
   width="210mm"
   height="297mm"
   viewBox="0 0 210 297"
   version="1.1"
   id="svg8"
   inkscape:version="1.0.1 (0767f8302a, 2020-10-17)"
   sodipodi:docname="monograms.svg">
  <defs
     id="defs2" />
  <sodipodi:namedview
     id="base"
     pagecolor="#181818"
     bordercolor="#666666"
     borderopacity="1.0"
     inkscape:pageopacity="0"
     inkscape:pageshadow="2"
     inkscape:zoom="2.8"
     inkscape:cx="-435.37159"
     inkscape:cy="492.34779"
     inkscape:document-units="mm"
     inkscape:current-layer="layer1"
     inkscape:document-rotation="0"
     showgrid="true"
     inkscape:snap-global="true"
     inkscape:snap-grids="true"
     inkscape:window-width="1428"
     inkscape:window-height="1016"
     inkscape:window-x="122"
     inkscape:window-y="27"
     inkscape:window-maximized="0">
    <inkscape:grid
       type="xygrid"
       id="grid837" />
  </sodipodi:namedview>
  <metadata
     id="metadata5">
    <rdf:RDF>
      <cc:Work
         rdf:about="">
        <dc:format>image/svg+xml</dc:format>
        <dc:type
           rdf:resource="http://purl.org/dc/dcmitype/StillImage" />
        <dc:title></dc:title>
      </cc:Work>
    </rdf:RDF>
  </metadata>
  <g
     inkscape:label="Layer 1"
     inkscape:groupmode="layer"
     id="layer1">
    <text
       xml:space="preserve"
       style="font-style:normal;font-weight:normal;font-size:10.5833px;line-height:1.25;font-family:sans-serif;fill:#000000;fill-opacity:1;stroke:none;stroke-width:0.264583"
       x="-56.89838"
       y="116.74029"
       id="text835"><tspan
         sodipodi:role="line"
         id="tspan833"
         x="-56.89838"
         y="116.74029"
         style="font-style:normal;font-variant:normal;font-weight:normal;font-stretch:normal;font-family:Montserrat;-inkscape-font-specification:Montserrat;stroke-width:0.264583" /></text>
    <path
       style="fill:#ffffff;stroke:none;stroke-width:0.264583px;stroke-linecap:butt;stroke-linejoin:miter;stroke-opacity:1"
       d="m -59.676459,115.09375 4.506529,-7.9375 2.253264,3.96875 2.253264,-3.96875 4.506529,7.9375 -1.997294,0 -2.509235,-3.96875 -2.253264,2.64583 -2.253264,-2.64583 -2.509237,3.96875 z"
       id="path839"
       sodipodi:nodetypes="ccccccccccc" />
    <path
       style="fill:#ffffff;stroke:none;stroke-width:0.264583px;stroke-linecap:butt;stroke-linejoin:miter;stroke-opacity:1"
       d="m -54.548116,106.89167 h 3.218949 l -1.609475,2.64583 z"
       id="path841"
       sodipodi:nodetypes="cccc" />
    <path
       style="fill:#ffffff;stroke:none;stroke-width:0.264583px;stroke-linecap:butt;stroke-linejoin:miter;stroke-opacity:1"
       d="m -59.411876,137.58333 c -0.119374,-3.96875 2.919029,-7.9375 2.919029,-7.9375 l 2.253264,3.96875 2.253264,-3.96875 v 3.96875 l -2.253264,2.64583 -2.253264,-2.64583 c 0,0 -1.450903,0.79375 -2.919029,3.96875 z"
       id="path839-5"
       sodipodi:nodetypes="cccccccc" />
    <path
       style="fill:#ffffff;stroke:none;stroke-width:0.264583px;stroke-linecap:butt;stroke-linejoin:miter;stroke-opacity:1"
       d="m -79.375,104.51042 c 0,0 1.733084,0.87781 2.669931,0.87781 0.936847,0 2.669937,-0.87781 2.669937,-0.87781 l -2.669935,4.38914 z"
       id="path841-5"
       sodipodi:nodetypes="czccc" />
    <path
       style="fill:#ffffff;stroke:none;stroke-width:0.264583px;stroke-linecap:butt;stroke-linejoin:miter;stroke-opacity:1"
       d="m -49.067289,137.58333 c 0.119374,-3.96875 -2.91903,-7.9375 -2.91903,-7.9375 l -2.253264,3.96875 -2.253264,-3.96875 v 3.96875 l 2.253264,2.64583 2.253264,-2.64583 c 0,0 1.450903,0.79375 2.91903,3.96875 z"
       id="path847"
       sodipodi:nodetypes="cccccccc" />
    <path
       style="fill:#ffffff;stroke:none;stroke-width:0.264583px;stroke-linecap:butt;stroke-linejoin:miter;stroke-opacity:1"
       d="m -56.885417,115.09375 h 3.96875 l -2.253263,-2.38124 z"
       id="path929"
       sodipodi:nodetypes="cccc" />
    <path
       style="fill:#ffffff;stroke:none;stroke-width:0.264583px;stroke-linecap:butt;stroke-linejoin:miter;stroke-opacity:1"
       d="m -52.916667,115.09375 h 3.96875 l -1.715485,-2.38124 z"
       id="path931"
       sodipodi:nodetypes="cccc" />
    <path
       id="path933"
       style="fill:#ffffff;stroke:none;stroke-width:0.999999px;stroke-linecap:butt;stroke-linejoin:miter;stroke-opacity:1"
       d="M -298.33398 405 L -315 435 L -301 440 L -306.87305 433.80469 L -298.33398 420 L -290 430 L -281.66602 420 L -273.12695 433.80469 L -279 440 L -265 435 L -281.66602 405 L -290 419.6582 L -298.33398 405 z "
       transform="scale(0.26458333)" />
    <path
       style="fill:#ffffff;stroke:none;stroke-width:0.264583px;stroke-linecap:butt;stroke-linejoin:miter;stroke-opacity:1"
       d="m -78.5625,89.268063 c 0,0 1.388379,-0.568535 2.13889,-0.568535 0.750511,0 2.138894,0.568535 2.138894,0.568535 l -2.138893,3.516153 z"
       id="path965"
       sodipodi:nodetypes="czccc" />
    <path
       id="path967"
       style="fill:#ffffff;stroke:none;stroke-width:0.264583px;stroke-linecap:butt;stroke-linejoin:miter;stroke-opacity:1"
       d="m -78.65274,91.040905 -4.409551,7.9375 3.704167,1.322915 -1.553912,-1.639174 2.259296,-3.652491 2.205032,2.645833 2.205032,-2.645833 2.259296,3.652491 -1.553911,1.639174 3.704166,-1.322915 -4.409551,-7.9375 -2.205032,3.878315 z" />
    <path
       id="path969"
       style="fill:#ffffff;stroke:#ffffff;stroke-width:0.3;stroke-linecap:butt;stroke-linejoin:miter;stroke-opacity:1;stroke-miterlimit:8.60000038;stroke-dasharray:none"
       d="m -100.11903,107.15625 -4.40955,7.9375 3.70417,1.32292 -1.55391,-1.63918 2.25929,-3.65249 2.205033,2.64583 2.205032,-2.64583 2.259296,3.65249 -1.553912,1.63918 3.704167,-1.32292 -4.409551,-7.9375 -2.205032,3.87831 z"
       inkscape:export-xdpi="185.90082"
       inkscape:export-ydpi="185.90082" />
    <path
       id="path971"
       style="fill:#ffffff;stroke:#ffffff;stroke-width:0.3;stroke-linecap:butt;stroke-linejoin:miter;stroke-miterlimit:8.60000038;stroke-dasharray:none;stroke-opacity:1"
       d="m -100.10087,89.958337 -4.40955,7.9375 3.70417,1.32292 -1.55391,-1.63918 2.25929,-3.65249 2.205037,2.64583 2.205032,-2.64583 2.259296,3.65249 -1.553912,1.63918 3.704167,-1.32292 -4.409551,-7.9375 -2.205032,3.87831 z" />
    <path
       style="fill:#ffffff;stroke:none;stroke-width:0.264583px;stroke-linecap:butt;stroke-linejoin:miter;stroke-opacity:1"
       d="m -99.460443,87.117259 c 0,0 1.015606,-0.415887 1.56461,-0.415887 0.549005,0 1.564617,0.415887 1.564617,0.415887 l -1.564616,2.572091 z"
       id="path973"
       sodipodi:nodetypes="czccc" />
    <path
       style="fill:#ffffff;stroke:none;stroke-width:0.264583px;stroke-linecap:butt;stroke-linejoin:miter;stroke-opacity:1"
       d="m -161.39583,89.958332 v -2.645833 h 7.9375 v 2.645833 h -2.64583 v 5.291667 H -158.75 v -5.291667 z"
       id="path982" />
    <g
       id="g997"
       inkscape:export-xdpi="185"
       inkscape:export-ydpi="185">
      <path
         id="path984"
         style="fill:#ffffff;stroke:none;stroke-width:0.264583px;stroke-linecap:butt;stroke-linejoin:miter;stroke-opacity:1"
         d="m -120.38542,106.09792 2.64583,2.64583 h 2.11666 l 1e-5,7.14375 1.85209,1.85209 -1e-5,-10.46847 -1.32291,-1.1732 z"
         sodipodi:nodetypes="cccccccc" />
      <path
         id="path990"
         style="fill:#ffffff;stroke:none;stroke-width:0.264583px;stroke-linecap:butt;stroke-linejoin:miter;stroke-opacity:1"
         d="m -105.83334,106.09792 -2.64584,2.64583 h -2.11666 l 10e-6,7.14375 -1.85208,1.85209 0,-10.39751 1.32291,-1.24416 z"
         sodipodi:nodetypes="cccccccc" />
    </g>
  </g>
</svg>
