<?xml version="1.0" encoding="UTF-8" standalone="no"?>
<svg
   xmlns:dc="http://purl.org/dc/elements/1.1/"
   xmlns:cc="http://creativecommons.org/ns#"
   xmlns:rdf="http://www.w3.org/1999/02/22-rdf-syntax-ns#"
   xmlns:svg="http://www.w3.org/2000/svg"
   xmlns="http://www.w3.org/2000/svg"
   xmlns:sodipodi="http://sodipodi.sourceforge.net/DTD/sodipodi-0.dtd"
   xmlns:inkscape="http://www.inkscape.org/namespaces/inkscape"
   width="210mm"
   height="297mm"
   viewBox="0 0 210 297"
   version="1.1"
   id="svg8"
   inkscape:version="1.0.1 (1.0.1+r73)"
   sodipodi:docname="fruits.svg">
  <defs
     id="defs2" />
  <sodipodi:namedview
     id="base"
     pagecolor="#737373"
     bordercolor="#666666"
     borderopacity="1.0"
     inkscape:pageopacity="0"
     inkscape:pageshadow="2"
     inkscape:zoom="0.7"
     inkscape:cx="-135.41871"
     inkscape:cy="494.74015"
     inkscape:document-units="mm"
     inkscape:current-layer="layer1"
     inkscape:document-rotation="0"
     showgrid="false"
     showborder="false"
     inkscape:snap-global="false"
     inkscape:snap-grids="false"
     inkscape:window-width="1224"
     inkscape:window-height="656"
     inkscape:window-x="56"
     inkscape:window-y="27"
     inkscape:window-maximized="1">
    <inkscape:grid
       type="xygrid"
       id="grid10"
       empspacing="2"
       spacingx="13.229167"
       spacingy="13.229167"
       color="#9393ff"
       opacity="0.1254902"
       empcolor="#a5a5ff"
       empopacity="0.25098039" />
  </sodipodi:namedview>
  <metadata
     id="metadata5">
    <rdf:RDF>
      <cc:Work
         rdf:about="">
        <dc:format>image/svg+xml</dc:format>
        <dc:type
           rdf:resource="http://purl.org/dc/dcmitype/StillImage" />
        <dc:title></dc:title>
      </cc:Work>
    </rdf:RDF>
  </metadata>
  <g
     inkscape:label="Layer 1"
     inkscape:groupmode="layer"
     id="layer1">
    <g
       id="g862"
       transform="translate(-119.21179,34.45038)">
      <path
         id="path12"
         style="fill:#c2e06c;fill-opacity:0.999076;stroke:none;stroke-width:1.05833;stroke-linecap:round;stroke-linejoin:bevel;stroke-miterlimit:4;stroke-dasharray:none"
         d="m 33.086647,71.31451 c -7.961791,0 -5.977157,6.927861 -8.048088,11.608594 -2.129081,4.812159 -4.886523,7.351363 -4.886523,11.004494 0,7.108782 5.607267,11.847542 12.640056,12.155852 v 0.015 c 0.09882,0 0.196257,-0.005 0.294555,-0.007 0.09822,0.002 0.195813,0.007 0.294555,0.007 v -0.015 c 7.032583,-0.30854 12.640056,-5.04722 12.640056,-12.155852 0,-3.653131 -2.757958,-6.192335 -4.887039,-11.004494 C 39.063285,78.242371 41.048438,71.31451 33.086647,71.31451 Z"
         sodipodi:nodetypes="ssscccccsss" />
      <path
         id="path864"
         style="fill:#7ea942;fill-opacity:0.999076;stroke:none;stroke-width:4;stroke-linecap:round;stroke-linejoin:bevel;stroke-miterlimit:4;stroke-dasharray:none"
         d="m 125.05273,269.53516 c -1.06297,0 -2.06757,0.0417 -3.03906,0.10546 27.26047,5.92374 23.76875,46.10879 35.84191,74.75853 12.78086,30.32909 -36.23224,61.62462 -76.154408,32.57351 7.983239,14.30601 23.813018,23.16491 42.238278,23.97265 v 0.0566 c 0.3735,0 0.74176,-0.0198 1.11328,-0.0273 0.37123,0.008 0.74009,0.0273 1.11329,0.0273 v -0.0566 c 26.57984,-1.16613 47.77343,-19.07609 47.77343,-45.94336 0,-13.80711 -10.42378,-23.40411 -18.4707,-41.59179 -7.82715,-17.69096 -0.32421,-43.875 -30.41602,-43.875 z"
         transform="scale(0.26458333)"
         sodipodi:nodetypes="scsccccccsss" />
      <path
         id="path869"
         style="fill:none;fill-opacity:0.999076;stroke:#333333;stroke-width:2.11667;stroke-linecap:round;stroke-linejoin:bevel;stroke-miterlimit:4;stroke-dasharray:none"
         d="m 33.086647,71.31451 c -7.961791,0 -5.977157,6.927861 -8.048088,11.608594 -2.129081,4.812159 -4.886523,7.351363 -4.886523,11.004494 0,7.108782 5.607267,11.847542 12.640056,12.155852 v 0.015 c 0.09882,0 0.196257,-0.005 0.294555,-0.007 0.09822,0.002 0.195813,0.007 0.294555,0.007 v -0.015 c 7.032583,-0.30854 12.640056,-5.04722 12.640056,-12.155852 0,-3.653131 -2.757958,-6.192335 -4.887039,-11.004494 C 39.063285,78.242371 41.048438,71.31451 33.086647,71.31451 Z"
         sodipodi:nodetypes="ssscccccsss" />
      <g
         id="g984"
         transform="matrix(-1,0,0,1,66.41933,0)">
        <path
           style="fill:none;stroke:#333333;stroke-width:2.11667;stroke-linecap:round;stroke-linejoin:round;stroke-miterlimit:4;stroke-dasharray:none;stroke-opacity:1"
           d="m 28.984061,62.550711 c 5.56251,2.227579 4.370475,10.461226 4.370475,10.461226"
           id="path32"
           sodipodi:nodetypes="cc" />
        <path
           style="fill:#4e8c40;fill-opacity:1;stroke:none;stroke-width:1.05833;stroke-linecap:round;stroke-linejoin:round;stroke-miterlimit:4;stroke-dasharray:none;stroke-opacity:1"
           d="m 33.395471,69.025692 c 0,0 7.548163,3.860187 13.186876,-5.808644 0,0 -7.841055,-2.981822 -13.186876,5.808644 z"
           id="path34"
           sodipodi:nodetypes="ccc" />
        <path
           style="fill:none;stroke:#406238;stroke-width:0.79375;stroke-linecap:round;stroke-linejoin:round;stroke-miterlimit:4;stroke-dasharray:none;stroke-opacity:1"
           d="m 34.257588,68.878907 c 0,0 4.424634,-2.93857 7.642287,-3.417528"
           id="path876"
           sodipodi:nodetypes="cc" />
        <path
           style="fill:none;fill-opacity:1;stroke:#333333;stroke-width:2.11667;stroke-linecap:round;stroke-linejoin:round;stroke-miterlimit:4;stroke-dasharray:none;stroke-opacity:1"
           d="m 33.395471,69.025692 c 0,0 7.548163,3.860187 13.186876,-5.808644 0,0 -7.841055,-2.981822 -13.186876,5.808644 z"
           id="path878"
           sodipodi:nodetypes="ccc" />
      </g>
    </g>
    <g
       id="g976"
       transform="translate(-211.20386,-74.107887)">
      <path
         style="fill:#4e8c40;fill-opacity:1;stroke:none;stroke-width:1.05833;stroke-linecap:round;stroke-linejoin:round;stroke-miterlimit:4;stroke-dasharray:none;stroke-opacity:1"
         d="m 171.50998,183.98288 c 0,0 -5.92505,12.73332 -17.66313,4.9739 0,0 6.75386,-11.81272 17.66313,-4.9739 z"
         id="path884"
         sodipodi:nodetypes="ccc" />
      <path
         style="fill:none;stroke:#406238;stroke-width:0.793749;stroke-linecap:round;stroke-linejoin:round;stroke-miterlimit:4;stroke-dasharray:none;stroke-opacity:1"
         d="m 170.49093,184.62861 c 0,0 -6.503,0.3073 -10.26628,2.81211"
         id="path890"
         sodipodi:nodetypes="cc" />
      <path
         style="fill:none;fill-opacity:1;stroke:#333333;stroke-width:2.11667;stroke-linecap:round;stroke-linejoin:round;stroke-miterlimit:4;stroke-dasharray:none;stroke-opacity:1"
         d="m 171.50998,183.98288 c 0,0 -5.92505,12.73332 -17.66313,4.9739 0,0 6.75386,-11.81272 17.66313,-4.9739 z"
         id="path892"
         sodipodi:nodetypes="ccc" />
      <path
         id="path896"
         style="fill:#ff3c3c;fill-opacity:1;stroke:none;stroke-width:2.11667;stroke-linecap:round;stroke-linejoin:round;stroke-miterlimit:4;stroke-dasharray:none;stroke-opacity:1"
         d="m 171.68528,203.97782 c -0.58109,4.33391 -4.76464,7.34947 -9.34423,6.73544 -4.57959,-0.61402 -7.82102,-4.62511 -7.23994,-8.95902 0.29055,-2.16695 0.95723,-4.07464 2.64821,-5.29351 3.00833,-2.20073 5.22635,0.55909 6.41474,0.65596 1.18839,0.0969 4.2486,-1.51845 6.36098,1.05699 1.31017,1.62126 1.45078,3.6372 1.16024,5.80414 z"
         sodipodi:nodetypes="sssczcs" />
      <path
         id="path899"
         style="fill:#ff3c3c;fill-opacity:1;stroke:none;stroke-width:2.11667;stroke-linecap:round;stroke-linejoin:round;stroke-miterlimit:4;stroke-dasharray:none;stroke-opacity:1"
         d="m 190.51898,200.87221 c 0.81499,4.02864 -1.97773,7.99214 -6.23771,8.85272 -4.25999,0.86059 -8.37407,-1.70761 -9.18905,-5.73625 -0.40749,-2.01432 -0.40093,-3.9138 0.72787,-5.51582 1.99829,-2.87878 4.81809,-1.10798 5.90435,-1.38679 1.08626,-0.27881 3.31053,-2.65344 5.97977,-1.014 1.66288,1.03805 2.40728,2.78583 2.81477,4.80014 z"
         sodipodi:nodetypes="sssczcs" />
      <path
         id="path921"
         style="fill:#ad2e2e;fill-opacity:1;stroke:none;stroke-width:0.264583px;stroke-linecap:butt;stroke-linejoin:miter;stroke-opacity:1"
         d="m 168.1303,196.77093 -3.71657,0.46716 c 7.13083,1.69237 6.00102,15.50094 -8.00054,9.88828 1.29578,1.88211 3.40847,3.24908 5.9278,3.58686 4.57959,0.61403 8.76305,-2.40159 9.34414,-6.7355 0.29054,-2.16694 0.15003,-4.18304 -1.16014,-5.8043 -0.72462,-0.88347 -1.56081,-1.26704 -2.39469,-1.4025 z" />
      <path
         id="path926"
         style="fill:none;fill-opacity:1;stroke:#333333;stroke-width:2.11667;stroke-linecap:round;stroke-linejoin:round;stroke-miterlimit:4;stroke-dasharray:none;stroke-opacity:1"
         d="m 171.68528,203.97782 c -0.58109,4.33391 -4.76464,7.34947 -9.34423,6.73544 -4.57959,-0.61402 -7.82102,-4.62511 -7.23994,-8.95902 0.29055,-2.16695 0.95723,-4.07464 2.64821,-5.29351 3.00833,-2.20073 5.22635,0.55909 6.41474,0.65596 1.18839,0.0969 4.2486,-1.51845 6.36098,1.05699 1.31017,1.62126 1.45078,3.6372 1.16024,5.80414 z"
         sodipodi:nodetypes="sssczcs" />
      <path
         style="fill:none;stroke:#333333;stroke-width:1.05833;stroke-linecap:round;stroke-linejoin:miter;stroke-miterlimit:4;stroke-dasharray:none;stroke-opacity:1"
         d="m 161.59774,198.3737 c 1.91708,2.4063 4.32762,1.04231 4.32762,1.04231"
         id="path928"
         sodipodi:nodetypes="cc" />
      <path
         id="path945"
         style="fill:#ad2e2e;fill-opacity:1;stroke:none;stroke-width:0.264583px;stroke-linecap:butt;stroke-linejoin:miter;stroke-opacity:1"
         d="m 186.86761,195.54028 -3.64743,0.85289 c 7.26862,0.93813 7.58763,14.78916 -6.92369,10.67001 1.48532,1.73644 3.72926,2.87521 6.2701,2.94795 4.61868,0.13222 8.46419,-3.30397 8.58931,-7.67488 0.0626,-2.18544 -0.28781,-4.17582 -1.76019,-5.65133 -0.81295,-0.80293 -1.68464,-1.09703 -2.5281,-1.14464 z" />
      <path
         style="fill:none;stroke:#333333;stroke-width:1.05833;stroke-linecap:round;stroke-linejoin:miter;stroke-miterlimit:4;stroke-dasharray:none;stroke-opacity:1"
         d="m 180.36428,199.1168 c 2.83353,1.19856 4.29996,-1.15108 4.29996,-1.15108"
         id="path947"
         sodipodi:nodetypes="cc" />
      <path
         style="fill:none;stroke:#333333;stroke-width:2.11667;stroke-linecap:round;stroke-linejoin:round;stroke-miterlimit:4;stroke-dasharray:none;stroke-opacity:1"
         d="m 163.81748,198.92885 c 0,0 4.69225,-13.30315 13.57514,-19.02546"
         id="path901"
         sodipodi:nodetypes="cc" />
      <path
         style="fill:none;stroke:#333333;stroke-width:2.11667;stroke-linecap:round;stroke-linejoin:round;stroke-miterlimit:4;stroke-dasharray:none;stroke-opacity:1"
         d="m 172.57332,184.91976 c 5.1725,4.16637 9.84829,13.60406 9.84829,13.60406"
         id="path903"
         sodipodi:nodetypes="cc" />
      <path
         style="fill:none;stroke:#333333;stroke-width:2.11667;stroke-linecap:round;stroke-linejoin:round;stroke-miterlimit:4;stroke-dasharray:none;stroke-opacity:1"
         d="m 171.50744,183.81572 c 0,0 -3.35156,1.24378 5.53133,-4.47853"
         id="path919"
         sodipodi:nodetypes="cc" />
      <path
         id="path978"
         style="fill:none;fill-opacity:1;stroke:#333333;stroke-width:2.11667;stroke-linecap:round;stroke-linejoin:round;stroke-miterlimit:4;stroke-dasharray:none;stroke-opacity:1"
         d="m 190.51898,200.87221 c 0.81499,4.02864 -1.97773,7.99214 -6.23771,8.85272 -4.25999,0.86059 -8.37407,-1.70761 -9.18905,-5.73625 -0.40749,-2.01432 -0.40093,-3.9138 0.72787,-5.51582 1.99829,-2.87878 4.81809,-1.10798 5.90435,-1.38679 1.08626,-0.27881 3.31053,-2.65344 5.97977,-1.014 1.66288,1.03805 2.40728,2.78583 2.81477,4.80014 z"
         sodipodi:nodetypes="sssczcs" />
    </g>
  </g>
</svg>
